<?xml version="1.0" encoding="utf-8"?>
<!-- Generator: Adobe Illustrator 16.0.0, SVG Export Plug-In . SVG Version: 6.00 Build 0)  -->
<!DOCTYPE svg PUBLIC "-//W3C//DTD SVG 1.1//EN" "http://www.w3.org/Graphics/SVG/1.1/DTD/svg11.dtd">
<svg version="1.1" id="Layer_1" xmlns="http://www.w3.org/2000/svg" xmlns:xlink="http://www.w3.org/1999/xlink" x="0px" y="0px"
	 width="1024px" height="768px" viewBox="0 0 1024 768" enable-background="new 0 0 1024 768" xml:space="preserve">
<g id="Layer_1_1_" display="none">
	<title>major_Artboard 2</title>
	<path display="inline" d="M31.991,432.429c-1.052,0.784-1.27,2.271-0.486,3.323c0.783,1.052,2.271,1.27,3.323,0.486
		c0.098-0.073,0.19-0.153,0.276-0.241c1.056-0.845,1.231-2.384,0.394-3.445c-0.918-1.001-2.475-1.068-3.477-0.149
		C32.011,432.41,32,432.42,31.991,432.429z"/>
	<path display="inline" d="M132.294,461.787c1.124-0.581,1.578-1.953,1.021-3.089c-0.543-1.128-1.892-1.61-3.027-1.083
		c-1.115,0.552-1.571,1.901-1.021,3.017c0.004,0.008,0.008,0.017,0.012,0.023C129.809,461.789,131.149,462.293,132.294,461.787z"/>
	<path display="inline" d="M98.224,285.739c-54.268,0-98.261,43.993-98.261,98.261s43.993,98.261,98.261,98.261
		s98.261-43.993,98.261-98.261c0-0.004,0-0.008,0-0.013C196.431,329.744,152.467,285.787,98.224,285.739z M178.902,341.526
		l0.59-0.309l2.609,5.241l-0.603,0.246c-0.468-0.996-0.702-1.354-1.538-0.972c0,0-8.92,4.403-9.917,4.922
		c-0.997,0.517-0.369,1.414,0.074,2.264l-0.591,0.246l-2.781-5.636l0.591-0.271c0.517,0.997,0.738,1.415,1.55,1.009l9.917-4.922
		C179.825,342.83,178.902,341.526,178.902,341.526z M166.721,336.765l0.086-1.069c0.16-2.461,0.8-3.927,2.141-4.85
		c1.772-1.229,4.023-0.554,5.524,1.588c0.636,0.765,1.038,1.695,1.157,2.683l-2.535,1.748l-0.443-0.689
		c0.497-0.26,0.876-0.7,1.058-1.229c0.232-0.688,0.103-1.446-0.345-2.019c-0.441-0.881-1.514-1.236-2.396-0.796
		c-0.056,0.028-0.111,0.062-0.165,0.095c-0.59,0.405-0.923,0.973-1.034,2.989v0.641c-0.172,2.892-0.75,4.258-2.239,5.291
		c-1.106,0.776-2.538,0.922-3.777,0.382c-0.972-0.436-1.788-1.156-2.338-2.067c-0.715-0.879-1.121-1.969-1.156-3.101l2.928-1.993
		l0.406,0.627c-0.348,0.315-0.677,0.653-0.984,1.01c-0.721,0.866-0.721,2.123,0,2.989c0.52,1.001,1.753,1.391,2.754,0.87
		c0.042-0.021,0.084-0.045,0.125-0.07C166.106,339.274,166.623,338.646,166.721,336.765z M158.92,314.826l3.9,3.888
		c0.92,0.792,1.581,1.842,1.895,3.015c0.165,1.018-0.175,2.05-0.911,2.77c-1.071,1.107-2.461,1.477-4.614,1.23l-0.098,0.923
		c-0.237,1.737-0.385,3.487-0.443,5.24c-0.065,0.79,0.125,1.579,0.542,2.253l0.308,0.405l-0.431,0.432l-1.329-1.256
		c-0.55-0.465-0.974-1.063-1.23-1.734c-0.228-1.254-0.186-2.541,0.123-3.777l0.517-3.162l-1.23-1.229l-2.953,2.978
		c-0.775,0.813,0.123,1.464,0.75,2.116l-0.431,0.455l-4.405-4.367l0.492-0.505c0.812,0.8,1.156,1.107,1.809,0.455l7.776-7.838
		c0.837-0.85-0.467-1.81-0.467-1.81L158.92,314.826z M145.275,305.241l7.629,5.105l-1.563,2.461l-0.554-0.382
		c0.529-0.8,0.874-1.366-0.172-2.092c-0.456-0.319-2.227-1.477-2.227-1.477l-2.719,3.949l2.264,1.501
		c0.763,0.529,0.96,0.319,1.501-0.517l0.554,0.369l-2.141,3.198l-0.566-0.382c0.566-0.774,0.713-1.069,0-1.6l-2.264-1.525l0,0
		l-3.15,4.749l2.461,1.601c0.775,0.541,1.513,0.431,2.301-0.701l0.554,0.356l-1.772,2.607l-7.751-5.191l0.381-0.615
		c0.898,0.615,1.23,0.973,2.08-0.271l5.697-8.612c0.75-1.082-0.308-1.687-0.849-2.042L145.275,305.241z M127.52,296.628l4.922,2.177
		l-0.283,0.615l-0.492-0.221c-0.136-0.098-0.319-0.098-0.455,0c-0.135,0.135-0.111,0.394-0.135,0.504l-0.074,2.03
		c-0.099,2.215-0.345,7.309-0.357,7.689l2.559-2.535l3.938-3.985c0.226-0.232,0.409-0.504,0.542-0.801
		c0-0.146-0.099-0.308-0.259-0.394l-0.479-0.209l0.258-0.64l4.294,1.833l-0.16,0.688l-0.468-0.233
		c-0.629-0.185-1.308-0.029-1.796,0.406l-2.682,2.461l-7.542,6.978l-0.554-0.296l0.197-13.239c0.054-0.529-0.031-1.063-0.246-1.55
		c-0.264-0.276-0.583-0.494-0.935-0.64L127.52,296.628z M113.69,307.247c1.107,0.233,1.575,0.308,1.796-0.579
		c0,0,2.35-10.212,2.461-10.741c0.258-1.156-1.354-1.316-1.354-1.316l0.172-0.627l5.672,1.316l-0.147,0.665
		c-1.107-0.283-1.55-0.369-1.747,0.554c0,0-2.24,9.684-2.461,10.729c-0.222,1.046,0.849,1.229,1.759,1.427l-0.147,0.615
		l-6.127-1.402L113.69,307.247z M93.45,305.426c0.836,0,1.673,0.186,1.759-1.378c0.086-1.563,0.763-12.157,0.763-12.157l0.874,0.074
		l9.241,10.768c0,0,0.406-6.669,0.48-8.146c0.074-1.477-1.046-1.391-1.76-1.464v-0.652l4.86,0.295v0.689
		c-0.775,0-1.501-0.185-1.6,1.23s-0.714,12.169-0.714,12.169h-0.959l-9.191-10.57l-0.467,7.813
		c-0.111,1.661,1.083,1.575,2.018,1.601v0.688l-5.278-0.296L93.45,305.426z M78.747,294.204l0.135,0.652
		c-1.132,0.222-1.538,0.345-1.366,1.23l1.23,6.251c0.554,2.879,1.415,3.69,2.227,4.084c0.713,0.381,1.54,0.485,2.325,0.296
		c0.897-0.174,1.694-0.685,2.228-1.428c0.738-1.145,0.492-2.682,0.123-4.613c0,0-1.23-5.771-1.23-5.98
		c-0.222-1.23-1.772-0.627-1.772-0.627l-0.135-0.64l4.921-0.984l0.135,0.652c-1.12,0.209-1.538,0.308-1.366,1.23l1.132,5.66
		c0.431,2.115,0.652,4.281-0.665,5.955c-0.892,1.113-2.162,1.862-3.568,2.104c-1.475,0.365-3.031,0.195-4.393-0.479
		c-1.329-0.775-2.178-2.228-2.633-4.564c0,0-1.23-6.152-1.23-6.411c-0.234-1.144-1.772-0.603-1.772-0.603l-0.123-0.64
		L78.747,294.204z M58.162,301.328l0.32,0.591c-1.009,0.517-1.39,0.738-0.984,1.563c0,0,4.553,8.87,5.057,9.844
		c0.504,0.972,1.378,0.369,2.215-0.074l0.308,0.591l-5.574,2.83l-0.295-0.542c0.972-0.504,1.415-0.8,0.972-1.587
		c0,0-4.774-9.302-5.033-9.843c-0.553-1.021-1.858-0.1-1.858-0.1l-0.308-0.591L58.162,301.328z M46.756,307.555l1.735,2.362
		l-0.504,0.431c-0.542-0.788-1.021-1.229-2.018-0.542l-2.141,1.588l2.83,3.84l2.203-1.661c0.75-0.529,0.566-0.824,0-1.588
		l0.542-0.382l2.276,3.016l-0.504,0.381c-0.578-0.787-0.8-0.996-1.563-0.431l-2.166,1.637l0,0l3.371,4.563
		c0,0,1.846-1.39,2.35-1.809c0.751-0.554,0.898-1.292,0.086-2.461l0.529-0.381l1.907,2.534l-7.493,5.61l-0.431-0.591
		c0.861-0.615,1.316-0.824,0.406-2.066c0,0-5.34-7.111-6.152-8.22c-0.812-1.107-1.71-0.233-2.202,0.123l-0.443-0.455L46.756,307.555
		z M31.991,319.969c1.55-1.636,2.461-1.733,2.461-1.733l2.215,2.129l-0.554,0.554c-0.379-0.438-0.922-0.701-1.501-0.727
		c-0.722-0.091-1.44,0.191-1.907,0.751c-0.774,0.62-0.898,1.751-0.277,2.524c0.044,0.055,0.091,0.107,0.142,0.157
		c0.529,0.479,1.132,0.664,3.137,0.356c0.211-0.024,0.421-0.063,0.627-0.111c2.842-0.442,4.331-0.135,5.635,1.106
		c0.962,0.938,1.375,2.305,1.095,3.618c-0.207,1.018-0.718,1.948-1.464,2.67c-0.712,0.877-1.687,1.502-2.781,1.784l-2.547-2.461
		l0.492-0.517c0,0,0.874,0.614,1.23,0.75c0.991,0.554,2.237,0.313,2.953-0.565c0.893-0.755,1.004-2.091,0.249-2.981
		c-0.009-0.013-0.018-0.021-0.027-0.032c-0.904-0.761-2.132-1.011-3.261-0.665l-1.046,0.147c-2.461,0.345-3.999,0-5.18-1.083
		C30.047,324.214,30.182,321.852,31.991,319.969z M17.103,340.395l13.867-3.075c0,0-5.697-3.507-6.952-4.295
		c-1.255-0.787-1.759,0.245-2.153,0.874l-0.566-0.356l2.584-4.122l0.542,0.332c-0.406,0.664-0.861,1.23,0.369,2.018l10.385,6.424
		l-0.504,0.823l-13.646,3.103l6.706,4.134c1.415,0.849,1.895-0.222,2.387-1.033l0.566,0.369l-2.769,4.479l-0.59-0.369
		c0.443-0.714,0.959-1.366-0.369-2.229c-1.329-0.86-10.311-6.36-10.311-6.36L17.103,340.395z M18.198,410.011
		c-1.508,0.015-2.742-1.198-2.756-2.707c0-0.012,0-0.023,0-0.036c-0.102-1.52,1.047-2.833,2.566-2.935s2.832,1.047,2.934,2.566
		c0.008,0.122,0.008,0.244,0,0.367c0.014,1.501-1.193,2.729-2.695,2.743C18.231,410.011,18.214,410.011,18.198,410.011z
		 M20.659,379.472l-0.627-0.086c0.086-0.923,0.123-1.55-1.07-1.647l-3.101-0.309c-0.641-0.09-1.294-0.009-1.895,0.233
		c-0.271,0.111-4.516,2.178-5.537,2.72c-0.532,0.274-1.011,0.642-1.415,1.082c-0.185,0.387-0.298,0.804-0.332,1.23H6.054l0.467-5.29
		l0.652,0.072c0,0,0,0.32,0,0.432v0.086c0.05,0.063,0.143,0.076,0.207,0.025c0.001,0,0.001-0.001,0.002-0.001
		c0.16,0,0.456-0.11,0.566-0.147c0.443-0.147,5.451-2.46,5.451-2.46s-4.282-2.893-4.553-3.052c-0.262-0.156-0.549-0.266-0.849-0.32
		c-0.172,0-0.332,0.087-0.332,0.222c0,0.136,0,0.48,0,0.48H6.977l0.406-4.737l0.665,0.073c0,0,0,0.332,0,0.518
		c-0.001,0.256,0.045,0.51,0.135,0.75c0.162,0.397,0.43,0.742,0.775,0.997c1.714,1.447,3.522,2.779,5.414,3.986
		c0.544,0.257,1.134,0.403,1.735,0.431c0,0,1.698,0.123,3.052,0.246s1.39-0.85,1.464-1.87h0.615L20.659,379.472z M15.048,365.716
		c-1.866-0.566-3.432-1.85-4.355-3.567c-0.913-1.882-1.023-4.053-0.308-6.018c0.551-2.024,1.877-3.754,3.691-4.811
		c1.661-0.813,3.583-0.904,5.315-0.26c3.927,1.097,6.222,5.168,5.126,9.097c-0.059,0.211-0.127,0.42-0.205,0.625
		c-1.012,3.823-4.932,6.102-8.755,5.089C15.386,365.826,15.216,365.774,15.048,365.716z M31.831,448.88l-7.998-9.179
		c0.086-0.123,2.842-2.461,2.842-2.461c0.406-0.369,0.591-0.911,0.406-1.12c0.074-0.097,0.156-0.188,0.246-0.271
		c0.098,0.137,2.067,2.388,2.067,2.388l-2.461,2.092l6.337,7.26L31.831,448.88z M34.956,445.89
		c-0.123-0.086-1.575-1.783-1.698-1.906c0.147-0.11,3.113-2.743,3.113-2.743s-1.415-1.625-2.141-2.461
		c-1.539,0.089-3.033-0.538-4.048-1.698c-1.7-1.759-1.652-4.563,0.107-6.264c1.759-1.699,4.563-1.651,6.264,0.106
		c0.128,0.133,0.249,0.274,0.36,0.423c0.907,1.029,1.352,2.387,1.23,3.752l2.387,2.695l0.431-0.394
		c0.406-0.357,0.603-0.924,0.406-1.12c0.083-0.091,0.178-0.169,0.283-0.233l2.042,2.338c-0.209,0.159-8.625,7.48-8.736,7.566V445.89
		z M56.242,458.92v-0.099l-0.074,0.073c-1.309,0.779-2.746,1.316-4.245,1.588l0,0c0-0.11-0.541-1.354-0.603-1.525
		c3.066-0.891,5.659-2.95,7.222-5.734l0,0c0.542-1.229-0.074-1.659-0.11-1.722l0.135-0.296c0.135,0,3.199,1.452,3.347,1.525
		c-0.902,2.021-2.309,3.774-4.085,5.095l0,0v0.135c0.827,1.436,1.468,2.969,1.907,4.565c-0.111,0.098-1.883,1.058-2.104,1.229
		c-0.19-1.659-0.661-3.272-1.391-4.773L56.242,458.92L56.242,458.92z M58.433,468.246c0.062-0.186,3.999-8.724,3.999-8.724
		l-2.461-1.119c0.074-0.147,0.751-1.675,0.813-1.797l2.46,1.106l1.23-2.694c0.234-0.491,0.209-1.032-0.074-1.229
		c0-0.074,0.111-0.197,0.16-0.295c0.049-0.1,2.559,1.229,2.559,1.229l0,0c-0.074,0.136-6.57,14.298-6.632,14.444
		c-0.062,0.148-1.907-0.849-2.055-0.861L58.433,468.246L58.433,468.246z M63.748,470.707c-0.135-0.073-2.166-1.009-2.337-1.058
		c0.074-0.174,6.595-14.299,6.681-14.458c0.135,0,2.276,1.059,2.276,1.059l0,0c-0.037,0.185-6.57,14.334-6.619,14.48L63.748,470.707
		z M105.41,477.093h-2.547v-9.585h-1.145v9.585c-0.172,0-2.251,0-2.375,0v-3.101h-8.687v-11.073c0-0.542-0.271-1.046-0.578-1.046
		v-0.308h7.124v1.955h-3.974v8.416h6.152v-9.399c0-0.529-0.283-1.07-0.59-1.07v-0.308h2.978v4.354h1.145v-4.354h2.559
		L105.41,477.093z M127.2,461.688c-0.482-1.008-0.482-2.18,0-3.187l-1.575,0.738l-0.849-1.784l3.445-1.649v-0.072
		c-0.271-0.443-0.652-0.689-0.898-0.592l0,0l-0.147-0.308c0.147-0.099,2.83-1.378,2.83-1.378l0.591,1.229l3.224-1.574
		c0.062,0.185,0.75,1.674,0.812,1.809l-1.698,0.813c1.076,0.258,1.979,0.984,2.461,1.979c0.803,2.39-0.482,4.979-2.872,5.782
		c-1.976,0.664-4.152-0.095-5.286-1.845L127.2,461.688z M141.633,458.92c-0.16,0.099-2.19,1.059-2.313,1.12
		c0-0.136-3.347-6.965-3.347-6.965c-0.222-0.492-0.689-0.813-0.972-0.664c0-0.11-0.123-0.271-0.147-0.345
		c0.147,0,2.694-1.23,2.83-1.365c0.074,0.172,1.932,4.035,1.932,4.035l2.251-1.083c0.074,0.11,0.726,1.477,0.775,1.625
		c-0.16,0-2.264,1.082-2.264,1.082s1.12,2.412,1.255,2.521V458.92z M142.248,466.167c0-0.172-1.477-3.125-1.477-3.125l-9.609,4.65
		c-0.086-0.123-0.8-1.674-0.874-1.81c0.172,0,11.763-5.598,11.923-5.709c0.098,0.16,2.289,4.762,2.35,4.922
		c-0.148,0-2.141,0.973-2.301,1.033L142.248,466.167z M98.212,455.647c-39.549,0.013-71.621-32.037-71.635-71.587
		c-0.014-39.549,32.036-71.62,71.585-71.635c39.544-0.014,71.614,32.029,71.635,71.573c0.02,39.528-32.008,71.59-71.537,71.61
		c-0.012,0-0.024,0-0.037,0L98.212,455.647z M164.654,448.757c-0.123-0.086-1.415-1.157-1.526-1.229l1.809-2.19l-3.224-2.694
		c-0.394-0.319-0.972-0.418-1.23-0.185c-0.086-0.079-0.176-0.152-0.271-0.222c0.111-0.136,1.723-2.067,1.809-2.202l4.307,3.567
		l0.849-1.009l-4.331-3.567c0.111-0.111,1.44-1.724,1.575-1.87c0.123,0.086,4.294,3.566,4.294,3.566s0.542-0.664,1.23-1.524
		l-8.293-6.878l-6.374,7.702c-0.123-0.123-1.39-1.156-1.538-1.23c0.123-0.11,8.022-9.621,8.022-9.621s7.751,6.436,9.843,8.12
		l0.984-1.23c0.135,0.1,1.403,1.23,1.538,1.23c-0.037,0.086-9.351,11.332-9.462,11.431L164.654,448.757z M174.264,365.384
		l-0.615,0.147l-1.784-6.004l0.652-0.209c0.295,1.105,0.443,1.537,1.329,1.229l10.914-3.211c-0.566-2.006-0.701-2.461-0.775-2.683
		c-0.332-1.23-1.034-1.23-2.005-1.021l-0.222-0.738l2.916-0.419l3.408,11.541l-2.67,1.23l-0.222-0.688
		c0.874-0.431,1.501-0.788,1.132-1.98c-0.063-0.221-0.185-0.664-0.813-2.67l-10.914,3.224c-1.009,0.271-0.578,1.292-0.32,2.215
		L174.264,365.384z M179.185,410.479c-1.548-0.062-2.753-1.365-2.692-2.913c0.061-1.549,1.366-2.755,2.914-2.692
		c1.49,0.06,2.673,1.273,2.694,2.765c0.007,1.542-1.238,2.798-2.78,2.807c-0.021,0-0.042,0-0.062-0.001L179.185,410.479z
		 M189.558,382.277c-0.032-0.263-0.129-0.513-0.283-0.727c-0.228-0.365-0.557-0.654-0.947-0.837
		c-1.984-1.103-4.04-2.073-6.152-2.904c-0.588-0.165-1.205-0.202-1.809-0.109l-2.94,0.319c-1.354,0.099-1.157,1.07-1.07,2.129
		h-0.603l-0.615-6.227h0.652c0.074,0.874,0.16,1.551,1.366,1.391l3.051-0.308c0.65-0.021,1.282-0.227,1.821-0.591
		c0.271-0.123,4.023-2.979,4.922-3.691c0.46-0.372,0.851-0.821,1.157-1.329c0.136-0.395,0.183-0.813,0.135-1.229l0.64-0.086
		l0.504,5.291h-0.64c-0.005-0.146-0.026-0.29-0.062-0.432v-0.072c-0.024-0.085-0.112-0.136-0.197-0.111
		c-0.19,0.048-0.37,0.132-0.529,0.246c-0.418,0.234-4.921,3.458-4.921,3.458l5.02,2.152c0.282,0.092,0.577,0.142,0.874,0.147
		c0.185,0,0.295-0.147,0.283-0.296c-0.012-0.146,0-0.455,0-0.455l0.677-0.086l0.443,4.676l-0.652,0.073c0,0-0.049-0.258-0.049-0.431
		L189.558,382.277z"/>
	<path display="inline" d="M36.654,437.843c-0.111,0.118-0.239,0.218-0.382,0.296l1.612,1.896l1.059-0.937
		c0,0-0.972-1.082-1.686-1.906C37.087,437.436,36.885,437.655,36.654,437.843z"/>
	<path display="inline" d="M19.158,353.966c-1.772-0.648-3.729-0.564-5.438,0.233c-1.144,0.563-2.003,1.574-2.375,2.793
		c-0.492,1.575-0.627,4.441,4.036,5.906c3.752,1.155,7.063-0.123,8.059-3.248c0.306-0.937,0.227-1.954-0.222-2.83
		C22.283,355.381,20.829,354.358,19.158,353.966z"/>
	<path display="inline" d="M157.739,323.956c0.271,0.348,0.653,0.591,1.083,0.688c1.014,0.036,1.982-0.423,2.596-1.229
		c1.24-0.929,1.492-2.688,0.563-3.927c-0.064-0.085-0.132-0.167-0.206-0.244l-0.64-0.641l-4.344,4.368L157.739,323.956z"/>
	<path display="inline" d="M98.224,349.585c-5.81,0-10.52,4.71-10.52,10.521c0,5.81,4.71,10.52,10.52,10.52
		c5.795,0,10.5-4.688,10.52-10.482C108.751,354.323,104.043,349.599,98.224,349.585z"/>
	<path display="inline" d="M48.158,393.732c0.234,1.069,0.48,2.166,0.751,3.235c2.788,11.188,8.128,21.575,15.602,30.354
		l33.713-33.764l33.701,33.764c7.502-8.766,12.857-19.158,15.639-30.354c0.283-1.069,0.554-2.166,0.763-3.235
		C115.214,387.649,81.271,387.649,48.158,393.732L48.158,393.732z"/>
	<path display="inline" d="M149.975,374.981v-35.104c0,0-29.96,0.973-51.763-15.798c-21.803,16.771-51.714,15.798-51.714,15.798
		v35.104c-0.045,5.282,0.33,10.562,1.12,15.785c33.473-6.12,67.778-6.12,101.25,0C149.658,385.543,150.029,380.265,149.975,374.981z
		 M62.751,359.011c0-0.68,0.551-1.229,1.23-1.229h3.938c0.156,0.005,0.283,0.127,0.295,0.281v9.954
		c0.007,0.163-0.12,0.302-0.283,0.309c-0.004,0-0.009,0-0.013,0h-4.823c-0.156,0.015-0.293-0.101-0.308-0.256
		c-0.001-0.018-0.001-0.034,0-0.053L62.751,359.011z M56.107,358.088c0.012-0.156,0.139-0.277,0.295-0.283h3.888
		c0.679,0,1.23,0.552,1.23,1.23v9.031c0.014,0.154-0.102,0.293-0.257,0.307c-0.009,0-0.018,0.001-0.026,0.001h-4.835
		c-0.163,0-0.295-0.132-0.296-0.295c0-0.005,0-0.009,0-0.013L56.107,358.088L56.107,358.088z M70.773,370.281
		c0,0.167-0.128,0.307-0.295,0.318h-6.152c-0.62,1.21-2.103,1.688-3.313,1.068c-0.459-0.235-0.833-0.609-1.068-1.068h-6.152
		c-0.172-0.007-0.308-0.146-0.308-0.318v-10.446c-0.008-0.156,0.113-0.289,0.269-0.296c0.013-0.001,0.025-0.001,0.039,0h1.009v9.844
		h6.152v0.1c0.046,0.63,0.594,1.104,1.224,1.059c0.002,0,0.004-0.001,0.006-0.001c0.607,0.009,1.117-0.453,1.169-1.058v-0.074h6.152
		v-9.843h1.021c0.156-0.009,0.289,0.112,0.295,0.27c0,0.009,0,0.017,0,0.025L70.773,370.281z M98.212,380.678
		c-11.362,0-20.573-9.211-20.573-20.571c0-11.362,9.211-20.572,20.573-20.572c11.362,0,20.572,9.21,20.572,20.572
		c0,0.017,0,0.032,0,0.049c-0.027,11.338-9.222,20.517-20.56,20.522H98.212L98.212,380.678z M134.792,375.966
		c-0.042,0.357-0.341,0.63-0.702,0.641h-0.676c-0.358-0.012-0.652-0.284-0.689-0.641l-1.304-8.33
		c-0.027-0.182,0.098-0.351,0.279-0.378c0.022-0.004,0.044-0.005,0.066-0.004h3.999c0.176-0.01,0.327,0.125,0.337,0.301
		c0.001,0.027,0,0.056-0.005,0.081L134.792,375.966z M138.225,363.575c0,0,0.504,0,0.369,0.441l-0.652,1.957
		c-0.089,0.183-0.278,0.293-0.48,0.283h-7.382c-0.206,0.012-0.399-0.1-0.492-0.283l-0.615-1.906
		c-0.222-0.542,0.308-0.492,0.308-0.492h2.301c0.189-0.327,0.189-0.73,0-1.06c-1.23-1.71-3.79-2.902-3.765-4.134
		c0-1.477,2.166-3.63,2.215-3.69c0.049-0.062,0.283,0,0.246,0.086c-0.837,3.434,4.762,3.975,4.171,6.151
		c-0.289,0.954-0.784,1.832-1.452,2.571h1.452c0.627-0.75,1.649-2.35,1.23-3.347c-0.163-0.473-0.442-0.896-0.812-1.23
		c-0.75-0.726-1.723-1.229-2.461-1.87c-0.789-0.517-1.311-1.353-1.427-2.288c0-1.906,3.691-4.602,3.765-4.676
		c0.074-0.074,0.32-0.123,0.246,0c-0.441,0.84-0.637,1.786-0.566,2.731c0.258,1.76,4.725,4.036,5.02,5.636
		c0.295,1.599-2.166,4.097-3.187,4.995L138.225,363.575z"/>
	<path display="inline" d="M93.671,434.065c-0.638,0.367-1.031,1.048-1.034,1.783c-0.035,0.769,0.559,1.417,1.326,1.452
		c0.001,0,0.002,0,0.003,0c0.68,0.006,1.235-0.541,1.241-1.22c0-0.058-0.003-0.114-0.01-0.171
		C95.247,434.988,94.508,434.533,93.671,434.065z"/>
	<path display="inline" d="M101.165,432.995c0.544-0.23,0.888-0.775,0.861-1.366c0.062-0.533-0.321-1.015-0.854-1.076
		c-0.047-0.006-0.095-0.008-0.142-0.006c-0.556-0.042-1.04,0.375-1.081,0.931c-0.003,0.042-0.004,0.085-0.001,0.128
		C99.947,432.097,100.279,432.479,101.165,432.995z"/>
	<path display="inline" d="M94.139,432.995c0.544-0.229,0.885-0.776,0.849-1.366c0.062-0.533-0.321-1.015-0.854-1.076
		c-0.039-0.004-0.078-0.007-0.117-0.006c-0.549-0.042-1.028,0.369-1.07,0.918c-0.003,0.046-0.004,0.093-0.001,0.141
		C92.945,432.097,93.241,432.479,94.139,432.995z"/>
	<path display="inline" d="M100.697,434.065c-0.636,0.369-1.029,1.049-1.034,1.783c-0.035,0.769,0.559,1.417,1.326,1.452
		c0.001,0,0.002,0,0.002,0c0.68,0.006,1.235-0.541,1.241-1.22c0-0.058-0.003-0.114-0.011-0.171
		C102.26,434.988,101.546,434.533,100.697,434.065z"/>
	<path display="inline" d="M98.224,410.171l-25.433,25.481c7.678,6.508,16.241,11.894,25.433,15.996
		c9.187-4.104,17.746-9.488,25.42-15.996L98.224,410.171z M89.611,437.904h-1.23h-0.923h-1.23c-0.283,0-0.308-0.123-0.308-0.223
		c-0.007-0.124,0.085-0.231,0.209-0.246l0.775-0.072c0.221,0,0.283-0.086,0.308-0.419v-2.276v-2.928
		c0.012-0.073,0.012-0.148,0-0.223c-0.277,0.084-0.545,0.195-0.8,0.332l-0.32,0.137H85.92c-0.131-0.014-0.229-0.127-0.222-0.26
		c-0.001-0.115,0.067-0.222,0.172-0.271c0.074,0,1.944-1.23,2.326-1.55l0.369-0.186c0,0,0.233,0.073,0.233,0.381v0.16v2.461v1.896
		v2.275c0,0.332,0.074,0.383,0.283,0.419l0.652,0.073c0.111,0.028,0.188,0.131,0.185,0.246c-0.013,0.16-0.099,0.283-0.308,0.283
		L89.611,437.904L89.611,437.904z M93.881,438.077c-1.649,0-2.695-0.851-2.695-2.179c0.078-1.025,0.753-1.908,1.723-2.251
		c-0.755-0.33-1.266-1.051-1.329-1.87c0-0.801,0.677-1.993,2.56-1.993c1.366,0,2.227,0.701,2.227,1.733
		c-0.021,0.836-0.547,1.575-1.329,1.87c0.939,0.391,1.586,1.266,1.686,2.276c-0.065,1.405-1.257,2.491-2.662,2.427
		C94,438.089,93.94,438.084,93.881,438.077z M100.906,438.077c-1.624,0-2.694-0.851-2.694-2.179c0.066-1.025,0.739-1.912,1.71-2.251
		c-0.757-0.324-1.267-1.049-1.316-1.87c0-0.801,0.665-1.993,2.547-1.993c1.366,0,2.227,0.701,2.227,1.733
		c-0.015,0.839-0.542,1.581-1.329,1.87c0.939,0.395,1.593,1.266,1.71,2.276c-0.071,1.412-1.273,2.498-2.685,2.428
		c-0.061-0.004-0.122-0.009-0.182-0.016L100.906,438.077L100.906,438.077z M106.456,438.077c-0.351-0.003-0.698-0.074-1.021-0.21
		l0,0c-0.234-0.123-0.234-0.319-0.234-0.528v-1.342c0,0,0.074-0.271,0.283-0.271s0.209,0,0.209,0.309
		c-0.08,0.6,0.341,1.149,0.94,1.229c0.097,0.014,0.194,0.014,0.29,0c0.843,0.021,1.543-0.644,1.564-1.485
		c0.002-0.083-0.002-0.166-0.014-0.249c0-1.587-1.759-2.179-2.46-2.275c-0.308,0-0.308-0.246-0.308-0.382l0.221-2.646
		c0-0.099,0-0.282,0.333-0.282h2.46h0.652h0.099c0.271,0,0.271,0.246,0.271,0.345l-0.147,1.341
		c-0.012,0.136-0.132,0.236-0.267,0.225c-0.005,0-0.011-0.002-0.016-0.003c0,0-0.197,0-0.197-0.295c0-0.296,0-0.394-0.738-0.394
		h-1.686c0,0.172-0.074,0.75-0.099,0.959c1.649,0.333,3.359,1.229,3.359,2.978c-0.077,1.731-1.542,3.072-3.273,2.996
		C106.603,438.091,106.529,438.085,106.456,438.077z"/>
	<path display="inline" d="M465.022,325.899v21.188h-5.573v-21.188h-14.371v1.674l0,0c1.451,0,2.805,2.461,2.805,5.082v45.599
		h-29.64v-40.838h19.686v-9.609h-34.943v1.724l0,0c1.427,0,2.805,2.461,2.805,5.045v53.289h42.081v15.317h11.554v-46.546h5.573
		v46.546H477.4V325.9L465.022,325.899L465.022,325.899z"/>
	<path display="inline" d="M646.423,389.733v-61.778h-60.832v9.634h48.417v52.146h-9.843v-27.167h-11.837v27.167h-6.706v-27.167
		h-13.866v1.71l0,0c1.439,0,2.793,2.461,2.793,5.045v20.412h-13.055v9.658h72.422v-9.658L646.423,389.733L646.423,389.733z"/>
	<path display="inline" d="M374.796,325.899v77.281h12.403v-77.281H374.796z"/>
	<path display="inline" d="M355.282,325.899v1.674l0,0c1.415,0,2.805,2.461,2.805,5.082v14.433h-12.341v9.548h12.304v46.546h11.615
		V325.9L355.282,325.899L355.282,325.899z"/>
	<path display="inline" d="M334.98,358.998l-0.652-0.505l0.147-0.332c5.04-9.319,7.646-19.76,7.58-30.354l0,0h-17.964v1.724l0,0
		c0.16,0,3.925,0.897,3.925,7.197c0,0.395,0,21.349-20.154,40.1l5.722,5.476l0,0c0.098,0,7.555-4.626,15.466-15.639l0.271-0.356
		l0.357,0.283c3.113,2.56,7.801,6.423,15.996,18.224c0.726-0.984,6.459-8.982,6.792-9.463
		C348.884,370.527,342.633,364.756,334.98,358.998z"/>
	<path display="inline" d="M499.622,386.424h51.788v16.697h12.415V376.79h-64.203V386.424z"/>
	<path display="inline" d="M563.825,325.813h-15.232v1.761l0,0c1.451,0,2.806,2.461,2.806,5.057v37.54h12.415v-13.607h12.169v-9.523
		h-12.169L563.825,325.813z"/>
	<path display="inline" d="M494.946,352.07c0,10.385,9.844,18.861,22.013,18.861s21.963-8.478,21.963-18.861
		c-0.105-5.601-2.841-10.822-7.383-14.102h10.028v-9.634h-17.411v-6.546h-15.171v1.686l0,0c1.229,0,2.461,2.03,2.707,4.382v0.468
		h-18.456v9.634h9.167C497.828,341.221,495.063,346.453,494.946,352.07z M516.959,362.837c-5.414,0-9.844-5.094-9.844-11.369
		c0-6.274,4.368-11.369,9.844-11.369c5.475,0,9.781,5.106,9.781,11.369C526.74,357.731,522.323,362.837,516.959,362.837z"/>
	<path display="inline" d="M250.857,377.528h-15.208v1.723c1.439,0,2.818,2.46,2.818,5.032v18.346h59.183v-9.672h-46.756
		L250.857,377.528z"/>
	<path display="inline" d="M268.23,361.569h15.995v20.142h12.427v-55.836h-15.208v1.698l0,0c1.427,0,2.806,2.461,2.806,5.068v3.002
		h-17.066c-4.584-5.104-11.14-7.994-18.001-7.936c-12.796,0-23.218,9.683-23.218,21.594c0,11.91,10.421,21.581,23.218,21.581
		C256.643,370.941,263.695,367.492,268.23,361.569z M284.226,345.229v6.706h-12.021c0.119-0.877,0.18-1.761,0.185-2.646
		c-0.005-1.364-0.149-2.727-0.431-4.062L284.226,345.229L284.226,345.229z M238.344,349.253c0-7.063,4.86-12.784,10.803-12.784
		s10.828,5.723,10.828,12.784c0,7.063-4.811,12.771-10.791,12.771s-10.803-5.733-10.803-12.771H238.344z"/>
	<path display="inline" d="M268.624,422.992c-9.375,0-13.658,6.729-13.658,12.968s4.171,12.981,13.338,12.981
		c8.071,0,13.694-5.586,13.694-13.535C281.999,427.741,276.843,422.992,268.624,422.992z M269.67,446.739
		c-5.672,0-9.646-4.836-9.646-11.775c0-8.552,4.811-9.844,7.666-9.844c5.414,0,9.179,4.7,9.179,11.443
		c-0.024,9.13-5.032,10.162-7.198,10.162L269.67,446.739L269.67,446.739z"/>
	<path display="inline" d="M328.594,429.316h-1.402c0.065-0.988-0.208-1.97-0.775-2.781c-0.781-1.014-2.021-1.564-3.297-1.464
		c-2.153,0-3.556,1.229-3.556,3.039c0,1.229,0.505,2.288,3.31,4.417l0.911,0.677c3.999,3.113,5.414,5.328,5.414,8.49
		c0.037,2.379-1.166,4.605-3.174,5.881c-1.596,0.967-3.439,1.444-5.303,1.378c-1.932,0-4.626-0.395-5.611-1.391v-6.227h1.23
		c0,0,0.258,1.858,0.443,2.461c0.563,1.902,2.378,3.153,4.356,3.003c2.633,0,4.048-1.748,4.048-3.396
		c0-1.648-0.517-2.979-3.063-4.922l-1.489-1.156c-3.433-2.684-4.922-5.045-4.922-7.899c0-3.765,3.15-6.41,7.776-6.41
		c3.863,0,5.045,0.947,5.045,0.947L328.594,429.316z"/>
	<path display="inline" d="M533.077,429.316h-1.402c0.067-0.988-0.206-1.972-0.774-2.781c-0.783-1.012-2.022-1.563-3.298-1.464
		c-2.153,0-3.557,1.229-3.557,3.039c0,1.229,0.518,2.288,3.322,4.417l0.91,0.677c3.999,3.113,5.426,5.328,5.426,8.49
		c0.032,2.381-1.175,4.606-3.188,5.881c-1.595,0.969-3.438,1.447-5.303,1.378c-1.932,0-4.614-0.395-5.599-1.391v-6.227h1.229
		c0,0,0.26,1.858,0.443,2.461c0.537,1.918,2.344,3.196,4.331,3.064c2.62,0,4.048-1.748,4.048-3.396c0-1.647-0.517-2.978-3.064-4.922
		l-1.487-1.156c-3.434-2.683-4.922-5.045-4.922-7.898c0-3.766,3.149-6.41,7.775-6.41c3.863,0,5.045,0.947,5.045,0.947
		L533.077,429.316z"/>
	<path display="inline" d="M346.62,425.674c2.215,0,2.301,1.23,2.301,2.893h1.157v-5.118h-16.119v1.145h0.714
		c1.095,0,2.461,0.332,2.461,2.202v17.988c0,2.461-0.689,2.57-2.203,2.56h-0.542v1.146h16.451v-5.525h-1.23
		c0,2.461-0.972,3.312-2.658,3.312h-5.155V436.27h4.798c1.661,0,1.698,0.555,1.698,2.266h1.157v-6.755h-1.157
		c0,1.733,0,2.274-1.698,2.274h-4.798v-8.365L346.62,425.674z"/>
	<path display="inline" d="M487.589,425.674c2.215,0,2.301,1.23,2.301,2.893h1.156v-5.118H474.94v1.145h0.75
		c1.106,0,2.461,0.332,2.461,2.202c0,2.325,0,17.988,0,17.988c0,2.461-0.689,2.57-2.215,2.56h-0.529v1.146h16.451v-5.525h-1.23
		c0,2.461-0.973,3.312-2.658,3.312h-5.154V436.27h4.812c1.648,0,1.687,0.555,1.687,2.266h1.155v-6.755h-1.155
		c0,1.733,0,2.274-1.687,2.274h-4.812v-8.365L487.589,425.674z"/>
	<path display="inline" d="M366.405,447.342c-1.23,0-2.461-0.185-2.461-1.661v-19.392c0-1.611,0.763-1.697,2.756-1.697v-1.145
		h-10.212v1.145h0.579c0.824,0,2.227,0.222,2.227,1.697v19.404c0,1.61-0.837,1.647-2.818,1.647v1.146h11.074v-1.134L366.405,447.342
		z"/>
	<path display="inline" d="M447.465,447.342c-1.229,0-2.461-0.185-2.461-1.661v-19.392c0-1.611,0.763-1.697,2.744-1.697v-1.145
		h-10.213v1.145h0.591c0.824,0,2.227,0.222,2.227,1.697v19.404c0,1.61-0.836,1.647-2.816,1.647v1.146h11.074v-1.134L447.465,447.342
		z"/>
	<path display="inline" d="M546.304,447.342c-1.229,0-2.398-0.185-2.398-1.661v-19.392c0-1.611,0.763-1.697,2.744-1.697v-1.145
		h-10.188v1.145h0.578c0.824,0,2.227,0.222,2.227,1.697v19.404c0,1.61-0.823,1.647-2.805,1.647v1.146h11.073v-1.134L546.304,447.342
		z"/>
	<path display="inline" d="M239.402,424.592h0.529v-1.145h-9.314v1.145c0.714-0.021,1.425,0.118,2.079,0.405
		c0.856,0.603,1.581,1.373,2.129,2.265c1.144,1.71,5.463,8.785,5.672,9.266c0.516,1.011,0.762,2.139,0.714,3.271v5.438
		c0,2.092-1.132,2.092-2.744,2.092v1.157h10.963v-1.157h-0.8c-1.501,0-2.744-0.123-2.744-2.165v-5.365
		c-0.069-1.062,0.086-2.126,0.455-3.125c1.855-3.519,3.909-6.928,6.152-10.212c0.426-0.622,0.99-1.136,1.649-1.501
		c0.389-0.24,0.835-0.372,1.292-0.382h0.898v-1.146h-8.244v1.146h0.849c0.265-0.009,0.487,0.198,0.496,0.463
		c0,0.026,0,0.053-0.004,0.078c-0.042,0.553-0.202,1.09-0.468,1.575c-0.221,0.492-4.602,8.392-4.602,8.392s-4.848-8.392-5.205-9.167
		c-0.187-0.295-0.308-0.626-0.357-0.972c0.021-0.129,0.103-0.239,0.222-0.295C239.142,424.608,239.272,424.587,239.402,424.592z"/>
	<path display="inline" d="M581.42,424.592h0.566v-1.145h-9.303v1.145c0.714-0.021,1.426,0.117,2.079,0.405
		c0.854,0.604,1.578,1.374,2.128,2.265c1.157,1.71,5.464,8.785,5.673,9.266c0.516,1.012,0.762,2.139,0.715,3.271v5.438
		c0,2.092-1.146,2.092-2.744,2.092v1.157h10.963v-1.157h-0.898c-1.501,0-2.743-0.123-2.743-2.165v-5.365
		c-0.068-1.062,0.087-2.126,0.455-3.125c1.854-3.519,3.908-6.928,6.151-10.212c0.424-0.623,0.989-1.138,1.649-1.501
		c0.393-0.241,0.843-0.373,1.304-0.382h0.887v-1.146h-8.244v1.146h0.85c0.265-0.009,0.486,0.198,0.496,0.463
		c0.001,0.026,0,0.053-0.005,0.078c-0.048,0.553-0.212,1.09-0.479,1.575c-0.222,0.492-4.603,8.392-4.603,8.392
		s-4.849-8.392-5.217-9.167c-0.188-0.295-0.309-0.626-0.356-0.972c0.021-0.128,0.104-0.238,0.222-0.295
		C581.109,424.596,581.266,424.574,581.42,424.592z"/>
	<path display="inline" d="M293.306,447.342v1.146h-9.252v-1.146c1.452,0,2.953,0.11,2.953-2.658v-21.225h1.55
		c2.929,3.003,16.894,17.436,17.349,17.915V427.04c0-2.547-2.018-2.461-3.261-2.461v-1.146h8.527v1.146
		c-1.354,0-2.695-0.086-2.695,2.461v21.446h-1.673l-17.226-17.607v13.793c0,2.399,1.39,2.657,2.793,2.657L293.306,447.342z"/>
	<path display="inline" d="M416.225,447.342v1.146h-9.253v-1.146c1.452,0,2.941,0.11,2.941-2.658v-21.225h1.563
		c2.928,3.003,16.894,17.436,17.349,17.915V427.04c0-2.547-2.02-2.461-3.273-2.461v-1.146h8.527v1.146
		c-1.366,0-2.694-0.086-2.694,2.461v21.446h-1.661l-17.226-17.607v13.793c0,2.399,1.402,2.657,2.793,2.657L416.225,447.342z"/>
	<path display="inline" d="M397.251,424.592c0.825,0,2.264,0.233,2.264,1.734v10.754c0,3.433-0.135,6.152-1.809,7.875
		c-1.165,1.104-2.715,1.708-4.319,1.686c-1.408,0.084-2.796-0.354-3.9-1.229c-1.23-1.034-2.461-2.707-2.461-7.813v-11.209
		c0-1.624,0.775-1.733,2.769-1.733v-1.146h-10.212v1.146h0.615c0.824,0,2.214,0.258,2.214,1.733v11.418
		c0,4.159,0.935,6.952,2.965,8.773c2.091,1.654,4.722,2.475,7.383,2.301c2.524,0.112,4.997-0.741,6.915-2.387
		c2.781-2.388,3.163-6.152,3.163-9.954v-10.151c0-1.611,0.799-1.734,2.768-1.734v-1.145h-8.92v1.145L397.251,424.592z"/>
	<path display="inline" d="M554.597,447.342v1.146h11.074v-1.146h-0.936c-1.354,0-2.621-0.123-2.621-1.674v-19.969h4.922
		c2.228,0,2.461,1.229,2.72,2.879h1.329l-0.738-5.131h-21.15l-0.738,5.131h1.329c0.232-1.674,0.504-2.879,2.707-2.879h4.922v19.994
		c0,1.415-0.641,1.636-2.166,1.636L554.597,447.342z"/>
	<path display="inline" d="M520.194,447.293c-1.369-0.3-2.601-1.049-3.494-2.129c-1.648-1.735-3.544-4.122-5.918-7.124
		c0,0-0.751-0.96-0.974-1.23c2.916-2.461,4.196-4.627,4.196-7.309c0.001-1.805-0.853-3.502-2.301-4.577
		c-1.864-1.08-4.002-1.594-6.152-1.477h-9.634v1.145h0.541c0.813,0,2.264,0.233,2.264,1.734v19.367c0,1.427-0.651,1.636-2.215,1.636
		h-0.603v1.145h11.072v-1.145h-1.069c-1.23,0-2.461-0.172-2.461-1.673v-7.347h2.94l3.285,4.614c1.919,2.62,3.138,4.098,4.54,4.849
		c1.113,0.551,2.355,0.784,3.593,0.677h3.322v-1.107C520.465,447.329,520.194,447.293,520.194,447.293z M507.891,435.813
		c-0.634,0.434-1.405,0.612-2.166,0.506h-2.301v-10.815h1.575c1.734,0,4.7,1.146,4.7,5.647c-0.037,2.892-1.156,4.158-1.833,4.699
		L507.891,435.813z"/>
	<path display="inline" d="M475.629,424.592v-1.145h-8.354v1.145h0.946c0.307-0.021,0.581,0.183,0.652,0.479
		c0.023,0.565-0.069,1.132-0.271,1.661c0,0-5.61,14.347-5.905,15.061c-0.246-0.615-5.979-15.849-5.979-15.849
		s-0.271-0.614-0.16-0.897c0.118-0.283,0.396-0.467,0.701-0.468h0.947v-1.132h-9.462v1.132c0.682-0.016,1.355,0.132,1.969,0.431
		c0.706,0.595,1.223,1.381,1.489,2.265l8.97,21.471h1.046l9.843-22.271c0,0,0.887-1.932,2.598-1.906L475.629,424.592z"/>
	<path display="inline" d="M687.224,375.461c-4.609-6.099-7.01-13.583-6.805-21.225c-0.217-7.66,2.188-15.166,6.816-21.273
		c4.545-5.856,9.99-8.785,16.34-8.785s11.824,2.929,16.427,8.785c4.628,6.107,7.032,13.613,6.816,21.273
		c0.202,7.644-2.202,15.128-6.816,21.225c-4.545,5.881-10.021,8.822-16.427,8.822S691.719,381.342,687.224,375.461z
		 M695.959,339.164c-2.216,4.708-3.295,9.871-3.149,15.072c-0.141,5.174,0.938,10.308,3.149,14.985
		c2.101,4.167,4.635,6.251,7.604,6.251c2.969,0,5.508-2.088,7.615-6.264c2.237-4.671,3.329-9.809,3.188-14.986
		c0.146-5.2-0.946-10.362-3.188-15.06c-2.125-4.159-4.672-6.242-7.642-6.251C700.569,332.905,698.043,334.988,695.959,339.164z
		 M739.897,399.663V329.16c0.027-1.231-0.257-2.45-0.824-3.543c-0.347-0.854-1.14-1.441-2.056-1.526v-1.747h15.195v77.319H739.897z"
		/>
	<path display="inline" d="M819.837,374.846v9.609h-53.289v-9.609h11.8v-19.047c0.029-1.232-0.305-2.448-0.96-3.494
		c-0.64-0.992-1.278-1.488-1.919-1.488v-1.734h15.023v25.765h9.694v-40.801h-30.059v-9.609h42.461v50.447L819.837,374.846z
		 M837.31,353.412v46.387h-12.305V329.16c0.028-1.231-0.255-2.45-0.824-3.543c-0.346-0.854-1.139-1.441-2.055-1.526v-1.747h15.195
		v21.226h12.145v9.844L837.31,353.412L837.31,353.412z"/>
	<path display="inline" d="M857.833,384.283V331.08c0.028-1.232-0.255-2.451-0.825-3.544c-0.558-1.018-1.214-1.525-1.968-1.525
		v-1.661h34.857v9.609H870.21v40.715h29.468v-45.524c0.027-1.238-0.273-2.462-0.873-3.544c-0.583-1.019-1.223-1.525-1.92-1.525
		v-1.735h14.322v21.226h5.586v-21.226h12.305v77.222h-12.305v-46.474h-5.586v46.474h-11.529v-15.281h-41.845V384.283z"/>
	<path display="inline" d="M941.611,334.488v-9.696h18.456v-0.431c-0.09-1.075-0.418-2.117-0.959-3.052
		c-0.525-0.878-1.107-1.315-1.748-1.315h-0.099v-1.674h15.195v6.46h17.287v9.694h-10.14c2.309,1.598,4.22,3.701,5.587,6.152
		c1.327,2.407,2.019,5.113,2.006,7.862c0.001,5.183-2.381,10.078-6.46,13.275c-9.038,7.337-21.98,7.337-31.02,0
		c-4.08-3.196-6.462-8.093-6.459-13.275c-0.014-2.749,0.678-5.456,2.005-7.862c1.337-2.419,3.186-4.519,5.414-6.152L941.611,334.488
		z M1012.028,373.185v26.294h-12.402v-16.536h-51.678v-9.758H1012.028L1012.028,373.185z M958.345,339.877
		c-3.766,4.667-3.766,11.329,0,15.996c2.979,3.812,8.485,4.487,12.298,1.508c0.563-0.438,1.068-0.946,1.509-1.508
		c3.766-4.667,3.766-11.329,0-15.996c-3.045-3.812-8.604-4.434-12.416-1.389C959.221,338.898,958.755,339.364,958.345,339.877z
		 M1011.854,322.319v21.163H1024v9.522h-12.146v13.633h-12.401v-37.563c0.028-1.231-0.255-2.451-0.824-3.544
		c-0.558-1.018-1.214-1.525-1.969-1.525v-1.661L1011.854,322.319z"/>
	<path display="inline" d="M626.563,449.667c-4.972,0-8.875-1.23-11.714-3.691c-2.875-2.555-4.438-6.271-4.258-10.112
		c-0.109-3.557,1.349-6.979,3.987-9.364c2.657-2.46,6.267-3.69,10.827-3.69c1.646,0.009,3.29,0.123,4.922,0.345
		c0.82,0.155,1.96,0.349,3.421,0.579c0.344,0,0.517,0.135,0.517,0.404c0,0.066-0.024,0.259-0.073,0.579
		c-0.049,0.319-0.082,0.754-0.1,1.304c0,1.001-0.031,2.231-0.099,3.691c-0.049,0.524-0.185,0.787-0.405,0.787
		s-0.337-0.25-0.345-0.75c-0.021-1.184-0.496-2.313-1.329-3.15c-0.767-0.713-1.696-1.229-2.707-1.501
		c-1.375-0.421-2.807-0.629-4.245-0.614c-2.336-0.141-4.638,0.616-6.435,2.115c-2.101,1.92-3.15,4.873-3.15,8.859
		c-0.126,3.43,1.217,6.751,3.691,9.13c1.868,1.925,4.429,3.023,7.111,3.051c1.135,0.029,2.27-0.061,3.385-0.271
		c1.111-0.216,2.124-0.79,2.879-1.637c0.591-0.633,0.995-1.415,1.169-2.265c0.09-0.459,0.237-0.688,0.441-0.688
		c0.205,0,0.309,0.172,0.309,0.517c0,0.254-0.077,0.914-0.233,1.98c-0.113,0.854-0.277,1.699-0.492,2.534
		c-0.121,0.468-0.46,0.848-0.909,1.021C630.739,449.472,628.652,449.755,626.563,449.667z"/>
	<path display="inline" d="M651.751,449.667c-7.474,0.146-13.651-5.793-13.798-13.267c-0.064-3.308,1.084-6.522,3.228-9.041
		c2.576-3.011,6.215-4.517,10.914-4.517c3.685-0.194,7.302,1.044,10.09,3.458c2.522,2.434,3.869,5.839,3.691,9.339
		c0.279,7.471-5.549,13.752-13.019,14.032c-0.382,0.014-0.764,0.013-1.145-0.006L651.751,449.667L651.751,449.667z M653.19,447.957
		c1.793,0.048,3.533-0.601,4.858-1.809c2.051-1.847,3.076-4.927,3.076-9.24c0.152-3.285-0.878-6.517-2.903-9.105
		c-1.729-2.146-4.354-3.373-7.111-3.321c-2.11-0.096-4.166,0.685-5.686,2.152c-1.829,1.829-2.739,4.7-2.73,8.613
		c-0.137,3.244,0.854,6.435,2.806,9.031c1.813,2.396,4.674,3.769,7.678,3.679H653.19L653.19,447.957z"/>
	<path display="inline" d="M677.675,433.254v6.018c0,2.574,0.033,4.272,0.1,5.094c-0.047,0.802,0.17,1.596,0.614,2.264
		c0.574,0.501,1.952,0.751,4.136,0.751c2.182,0,3.515-0.32,3.999-0.96c0.51-0.571,0.819-1.292,0.886-2.055
		c0.041-0.346,0.168-0.518,0.381-0.518c0.214,0,0.304,0.192,0.271,0.578c0.005,1.329-0.169,2.653-0.517,3.938
		c-0.081,0.424-0.403,0.762-0.824,0.86c-0.438,0.065-0.885,0.092-1.329,0.073c-1.829,0-3.757-0.032-5.781-0.099
		c-2.026-0.065-3.417-0.099-4.173-0.099h-1.932h-2.374c-0.46,0-0.688-0.114-0.688-0.345c0-0.229,0.25-0.332,0.75-0.308l1.021-0.1
		c0.525-0.114,0.857-0.741,0.997-1.883c0.114-0.886,0.172-3.313,0.172-7.284v-6.017c0-4.101-0.023-6.517-0.073-7.247
		c0.042-0.658-0.236-1.296-0.751-1.71c-0.574-0.272-1.211-0.391-1.846-0.345c-0.394,0-0.578-0.1-0.578-0.309
		s0.246-0.308,0.751-0.308h2.597h2.092h2.141h2.461c0.477,0,0.714,0.103,0.714,0.308c0,0.209-0.209,0.309-0.614,0.309
		c-0.445-0.006-0.891,0.026-1.329,0.099c-0.779,0.14-1.189,0.792-1.23,1.956C677.688,426.749,677.675,429.193,677.675,433.254z"/>
	<path display="inline" d="M698.383,433.254v6.018c0,2.574,0.033,4.272,0.1,5.094c-0.048,0.802,0.17,1.596,0.614,2.264
		c0.574,0.501,1.952,0.751,4.136,0.751c2.182,0,3.515-0.32,3.997-0.96c0.512-0.571,0.821-1.292,0.888-2.055
		c0.049-0.346,0.176-0.518,0.381-0.518c0.185,0,0.271,0.196,0.271,0.578c0.006,1.329-0.169,2.653-0.517,3.938
		c-0.078,0.426-0.402,0.765-0.824,0.86c-0.438,0.065-0.885,0.092-1.329,0.073c-1.828,0-3.757-0.032-5.782-0.099
		c-2.025-0.065-3.416-0.099-4.172-0.099h-1.932h-2.375c-0.455,0-0.688-0.11-0.688-0.345c0-0.233,0.245-0.259,0.75-0.308l1.021-0.1
		c0.525-0.114,0.857-0.741,0.997-1.883c0.114-0.886,0.172-3.313,0.172-7.284v-6.017c0-4.101-0.023-6.517-0.074-7.247
		c0.043-0.658-0.236-1.296-0.75-1.71c-0.574-0.272-1.211-0.391-1.846-0.345c-0.382,0-0.578-0.1-0.578-0.309s0.246-0.308,0.75-0.308
		h2.597h2.093h2.141h2.461c0.477,0,0.714,0.103,0.714,0.308c0,0.209-0.209,0.309-0.615,0.309c-0.444-0.006-0.89,0.026-1.328,0.099
		c-0.779,0.14-1.189,0.792-1.23,1.956C698.396,426.749,698.383,429.193,698.383,433.254z"/>
	<path display="inline" d="M714.81,439.271v-6.018c0-4.102-0.024-6.518-0.073-7.248c0.063-0.928-0.566-1.762-1.478-1.956
		c-0.438-0.077-0.884-0.108-1.329-0.099c-0.394,0-0.577-0.098-0.577-0.309c0-0.209,0.245-0.308,0.75-0.308s1.611,0,2.794,0h2.141
		c5.406,0,8.276,0,8.613,0c0.495-0.032,0.989-0.103,1.477-0.209l0.541-0.135c0.136,0,0.209,0.098,0.209,0.308
		c0,0.209,0,0.233-0.099,0.615c-0.099,0.381-0.122,0.996-0.147,1.611c-0.023,0.614-0.099,1.365-0.185,2.264
		c0,0.246-0.16,0.382-0.346,0.382c-0.185,0-0.258-0.123-0.295-0.382c-0.036-0.258-0.062-0.492-0.086-0.713
		c-0.019-0.21-0.063-0.417-0.136-0.615c-0.271-0.665-1.033-1.075-2.288-1.23c-0.779-0.091-2.398-0.136-4.859-0.136
		c-0.16,0-0.246,0.111-0.246,0.346v8.612c0,0.245,0.086,0.381,0.246,0.381c3.101,0,4.926-0.023,5.476-0.072
		c0.297-0.012,0.594-0.044,0.886-0.1c0.284-0.059,0.546-0.2,0.75-0.405c0.271-0.296,0.456-0.443,0.542-0.443
		s0.233,0.087,0.233,0.271c0,0.185,0,0.246-0.1,0.688c-0.098,0.443-0.123,1.132-0.172,1.809c-0.09,1.296-0.136,2.061-0.136,2.289
		c0,0.432-0.099,0.651-0.308,0.651s-0.309-0.123-0.309-0.356c-0.014-0.413-0.06-0.823-0.135-1.229
		c-0.181-0.771-0.82-1.214-1.92-1.329c-0.64-0.065-2.26-0.098-4.86-0.098c-0.135,0-0.209,0.109-0.209,0.344v8.011
		c-0.088,0.858,0.205,1.713,0.801,2.338c1.034,0.459,2.171,0.643,3.298,0.528c1.087,0.069,2.176-0.068,3.211-0.405
		c0.908-0.531,1.485-1.483,1.538-2.535c0.073-0.345,0.196-0.517,0.382-0.517c0.185,0,0.271,0.209,0.271,0.615
		c0.016,1.28-0.135,2.559-0.441,3.802c-0.045,0.308-0.22,0.581-0.48,0.751c-0.443,0.119-0.905,0.165-1.364,0.135
		c-1.985,0-3.959-0.032-5.92-0.099l-3.556-0.099h-1.932h-2.375c-0.459,0-0.688-0.114-0.688-0.345c0-0.229,0.25-0.332,0.75-0.308
		l1.021-0.1c0.524-0.114,0.856-0.741,0.997-1.883C714.76,445.599,714.801,443.24,714.81,439.271z"/>
	<path display="inline" d="M757.197,443.134v3.79c0,0.664-0.147,1.074-0.443,1.229c-6.329,2.529-13.479,1.924-19.293-1.637
		c-3.189-2.402-4.976-6.235-4.762-10.225c-0.04-2.438,0.586-4.842,1.809-6.952c0.992-1.746,2.416-3.207,4.136-4.245
		c2.806-1.569,5.988-2.341,9.202-2.227c2.03-0.015,4.059,0.167,6.055,0.541c0.894,0.183,1.798,0.311,2.707,0.382
		c0.319,0,0.479,0.159,0.479,0.405c-0.08,0.438-0.121,0.884-0.123,1.329c-0.082,1.091-0.123,2.519-0.123,4.281
		c0,0.477-0.127,0.714-0.381,0.714c-0.255,0-0.369-0.147-0.345-0.442c-0.082-1.047-0.491-2.041-1.169-2.843
		c-0.777-0.769-1.708-1.362-2.731-1.747c-1.563-0.628-3.235-0.942-4.922-0.923c-2.439-0.128-4.846,0.623-6.779,2.115
		c-2.1,1.757-3.149,4.55-3.149,8.381c-0.128,3.387,1.048,6.693,3.285,9.239c2.194,2.422,5.348,3.75,8.612,3.63
		c1.896,0,3.002-0.237,3.322-0.714c0.176-0.273,0.258-0.598,0.233-0.923v-3.211c0-1.961,0-3.307,0-4.036
		c0.104-0.939-0.543-1.799-1.478-1.956c-0.438-0.077-0.884-0.108-1.328-0.099c-0.345,0-0.517-0.091-0.517-0.271
		c0-0.233,0.232-0.345,0.713-0.345h2.769h2.19h1.969h2.03c0.455,0,0.688,0.11,0.688,0.345c0,0.233-0.135,0.271-0.394,0.271
		c-0.326,0.006-0.651,0.038-0.972,0.099c-0.82,0.164-1.255,0.815-1.306,1.956C757.193,439.787,757.197,441.148,757.197,443.134z"/>
	<path display="inline" d="M766.745,439.271v-6.018c0-4.102-0.024-6.518-0.074-7.248c0.063-0.928-0.565-1.762-1.477-1.956
		c-0.438-0.077-0.885-0.108-1.328-0.099c-0.396,0-0.579-0.098-0.579-0.309c0-0.209,0.246-0.308,0.751-0.308c0.504,0,1.611,0,2.793,0
		h2.141c5.406,0,8.277,0,8.613,0c0.496-0.032,0.99-0.103,1.477-0.209l0.541-0.135c0.137,0,0.209,0.098,0.209,0.308
		c0,0.209,0,0.233-0.098,0.615c-0.099,0.381-0.123,0.996-0.147,1.611c-0.024,0.614-0.099,1.365-0.186,2.264
		c0,0.246-0.159,0.382-0.344,0.382c-0.186,0-0.259-0.123-0.296-0.382c-0.037-0.258-0.063-0.492-0.086-0.713
		c-0.02-0.21-0.064-0.417-0.137-0.615c-0.271-0.665-1.032-1.075-2.287-1.23c-0.779-0.091-2.399-0.136-4.86-0.136
		c-0.16,0-0.246,0.111-0.246,0.346v8.612c0,0.245,0.086,0.381,0.246,0.381c3.101,0,4.926-0.023,5.476-0.072
		c0.297-0.012,0.595-0.044,0.887-0.1c0.284-0.059,0.546-0.2,0.751-0.405c0.271-0.296,0.454-0.443,0.541-0.443
		c0.086,0,0.232,0.087,0.232,0.271c0,0.185,0,0.246-0.099,0.688c-0.099,0.443-0.122,1.132-0.172,1.809
		c-0.091,1.296-0.136,2.061-0.136,2.289c0,0.432-0.099,0.651-0.308,0.651c-0.21,0-0.308-0.123-0.308-0.356
		c-0.016-0.413-0.061-0.823-0.137-1.229c-0.181-0.771-0.819-1.214-1.919-1.329c-0.641-0.065-2.261-0.098-4.859-0.098
		c-0.137,0-0.21,0.109-0.21,0.344v8.011c-0.087,0.858,0.205,1.713,0.801,2.338c1.034,0.459,2.171,0.643,3.297,0.528
		c1.087,0.069,2.177-0.068,3.212-0.405c0.907-0.531,1.486-1.483,1.538-2.535c0.073-0.345,0.196-0.517,0.381-0.517
		c0.186,0,0.271,0.209,0.271,0.615c0.015,1.28-0.135,2.559-0.442,3.802c-0.045,0.308-0.22,0.581-0.48,0.751
		c-0.443,0.119-0.905,0.165-1.364,0.135c-1.985,0-3.958-0.032-5.918-0.099l-3.558-0.099h-1.932h-2.375
		c-0.459,0-0.688-0.114-0.688-0.345c0-0.229,0.25-0.332,0.75-0.308l1.021-0.1c0.525-0.114,0.856-0.741,0.997-1.883
		C766.704,445.599,766.745,443.24,766.745,439.271z"/>
	<path display="inline" d="M807.065,449.667c-7.475,0.146-13.65-5.793-13.798-13.267c-0.063-3.308,1.084-6.522,3.229-9.041
		c2.576-3.011,6.214-4.517,10.914-4.517c3.684-0.194,7.3,1.044,10.089,3.458c2.524,2.433,3.871,5.838,3.691,9.339
		c0.279,7.471-5.549,13.752-13.019,14.032c-0.381,0.014-0.763,0.013-1.145-0.006L807.065,449.667L807.065,449.667z M808.505,447.957
		c1.793,0.048,3.535-0.601,4.86-1.809c2.051-1.847,3.076-4.927,3.076-9.24c0.15-3.285-0.88-6.516-2.903-9.105
		c-1.73-2.146-4.355-3.373-7.112-3.321c-2.109-0.096-4.167,0.685-5.685,2.152c-1.829,1.829-2.739,4.7-2.731,8.613
		c-0.137,3.244,0.854,6.435,2.807,9.031C802.63,446.679,805.497,448.051,808.505,447.957z"/>
	<path display="inline" d="M832.99,436.502v2.77c0,3.854,0.058,6.282,0.173,7.283c0.139,1.141,0.582,1.769,1.328,1.883
		c0.565,0.084,1.139,0.129,1.711,0.136c0.385,0,0.578,0.09,0.578,0.271c0,0.182-0.25,0.295-0.751,0.346c-0.819,0-1.846,0-3.075,0
		h-2.117h-2.005h-2.351c-0.477,0-0.714-0.115-0.714-0.346c0-0.229,0.25-0.332,0.75-0.308c0.32-0.049,0.652-0.082,0.997-0.1
		c0.524-0.113,0.856-0.741,0.996-1.882c0.115-0.887,0.173-3.313,0.173-7.283v-6.018c0-4.102-0.024-6.518-0.073-7.248
		c0.063-0.928-0.566-1.762-1.478-1.956c-0.438-0.077-0.884-0.108-1.329-0.099c-0.394,0-0.578-0.086-0.578-0.271
		c0-0.185,0.26-0.345,0.788-0.345s1.574,0,2.756,0h2.179c5.545,0,8.556,0,9.03,0c0.472-0.009,0.939-0.054,1.402-0.135
		c0.437-0.141,0.615-0.209,0.542-0.209c0.159,0,0.246,0.098,0.246,0.308c-0.02,0.175-0.051,0.349-0.099,0.518
		c-0.074,0.345-0.123,0.688-0.174,1.021c-0.049,0.779-0.105,1.701-0.172,2.769c-0.05,0.319-0.164,0.479-0.345,0.479
		c-0.209,0-0.319-0.185-0.345-0.542c0.021-0.444-0.05-0.888-0.209-1.304c-0.295-0.664-1.05-1.009-2.265-1.033l-5.267-0.099
		c-0.205,0-0.308,0.158-0.308,0.479v8.613c0,0.209,0.073,0.308,0.233,0.308h4.38c0.961,0,1.497,0,1.612,0
		c0.531-0.008,1.037-0.229,1.402-0.614c0.181-0.229,0.328-0.346,0.441-0.346c0.137,0,0.21,0.1,0.21,0.309s0,0.295-0.099,0.751
		c-0.099,0.455-0.123,0.982-0.173,1.364c-0.09,0.937-0.135,1.757-0.135,2.461c0,0.432-0.111,0.652-0.346,0.652
		c-0.233,0-0.232-0.222-0.308-0.652c-0.073-0.431-0.123-0.591-0.172-0.886c-0.276-0.729-0.969-1.216-1.747-1.229
		c-0.55-0.065-2.24-0.1-5.069-0.1C833.113,436.194,832.99,436.293,832.99,436.502z"/>
	<path display="inline" d="M865.19,449.667c-1.708,0.053-3.409-0.249-4.995-0.886c-0.452-0.202-0.719-0.679-0.652-1.169
		c0-1.23,0.058-2.725,0.172-4.479c0-0.591,0.186-0.886,0.406-0.886s0.345,0.196,0.345,0.578c0.02,0.594,0.122,1.183,0.309,1.747
		c0.547,2.22,2.646,3.695,4.922,3.457c1.271,0.069,2.516-0.373,3.457-1.229c0.726-0.684,1.135-1.637,1.132-2.634
		c0-1.895-1.115-3.72-3.347-5.476l-1.575-1.229c-3.379-2.65-5.069-5.353-5.069-8.108c-0.038-1.809,0.772-3.529,2.19-4.65
		c1.626-1.268,3.65-1.908,5.709-1.81c1.536,0.007,3.063,0.2,4.553,0.578c0.32,0.09,0.479,0.227,0.479,0.406
		c0,0.271,0,0.356-0.073,1.23c-0.074,0.873-0.074,1.819-0.074,2.892c0,0.688-0.127,1.029-0.381,1.021
		c-0.255-0.008-0.369-0.213-0.345-0.614c-0.021-0.835-0.334-1.638-0.887-2.265c-0.896-1.11-2.266-1.731-3.69-1.673
		c-1.079-0.061-2.143,0.286-2.979,0.973c-0.728,0.643-1.129,1.576-1.095,2.547c0.009,0.821,0.28,1.62,0.773,2.275
		c0.822,1.017,1.783,1.91,2.854,2.657l0.96,0.714c1.68,1.176,3.148,2.628,4.344,4.294c0.833,1.325,1.262,2.865,1.23,4.431
		c0.085,2.42-1.144,4.696-3.212,5.954C869.003,449.287,867.104,449.758,865.19,449.667z"/>
	<path display="inline" d="M894.24,449.667c-4.972,0-8.875-1.23-11.713-3.691c-2.875-2.555-4.44-6.271-4.259-10.112
		c-0.109-3.557,1.348-6.979,3.986-9.364c2.658-2.46,6.269-3.69,10.828-3.69c1.646,0.009,3.29,0.123,4.922,0.345
		c0.82,0.155,1.96,0.349,3.42,0.579c0.345,0,0.518,0.135,0.518,0.404c0,0.066-0.024,0.259-0.073,0.579
		c-0.05,0.319-0.082,0.754-0.099,1.304c0,1.001-0.033,2.231-0.1,3.691c0,0.529-0.185,0.787-0.405,0.787
		c-0.222,0-0.345-0.246-0.345-0.75c-0.02-1.184-0.496-2.313-1.329-3.15c-0.767-0.713-1.695-1.229-2.707-1.501
		c-1.375-0.422-2.807-0.629-4.245-0.614c-2.336-0.141-4.638,0.616-6.435,2.115c-2.101,1.92-3.15,4.873-3.15,8.859
		c-0.126,3.43,1.218,6.751,3.691,9.13c1.868,1.925,4.429,3.023,7.112,3.051c1.134,0.029,2.269-0.061,3.383-0.271
		c1.113-0.215,2.125-0.79,2.88-1.637c0.591-0.633,0.995-1.415,1.169-2.265c0.086-0.455,0.246-0.688,0.442-0.688
		s0.308,0.172,0.308,0.517c0,0.344-0.086,0.91-0.233,1.98c-0.113,0.854-0.277,1.699-0.491,2.534
		c-0.122,0.468-0.461,0.848-0.91,1.021C898.416,449.472,896.329,449.755,894.24,449.667z"/>
	<path display="inline" d="M909.362,439.271v-6.018c0-4.102-0.024-6.518-0.074-7.248c-0.065-1.099-0.455-1.738-1.168-1.919
		c-0.403-0.095-0.816-0.141-1.23-0.136c-0.369,0-0.542-0.11-0.542-0.344c0-0.234,0.271-0.271,0.824-0.271h2.352h2.104h1.92h2.264
		c0.48,0,0.715,0.087,0.715,0.271c0,0.184-0.16,0.344-0.492,0.344c-0.363,0.001-0.727,0.034-1.083,0.099
		c-0.779,0.141-1.189,0.792-1.23,1.956c-0.049,0.779-0.072,3.195-0.072,7.248v6.018c0,4.101,0.045,6.599,0.135,7.492
		c0.091,0.895,0.546,1.451,1.366,1.674c0.577,0.085,1.161,0.13,1.747,0.136c0.368,0,0.554,0.09,0.554,0.271
		c0,0.182-0.218,0.295-0.652,0.346c-0.869,0-1.924,0-3.162,0h-2.178h-1.932h-2.375c-0.455,0-0.689-0.111-0.689-0.346
		c0-0.233,0.246-0.259,0.751-0.308l1.021-0.1c0.549-0.113,0.882-0.681,0.996-1.696C909.342,445.722,909.387,443.232,909.362,439.271
		z"/>
	<path display="inline" d="M924.829,439.271v-6.018c0-4.102-0.025-6.518-0.074-7.248c0.063-0.928-0.565-1.762-1.477-1.956
		c-0.438-0.077-0.885-0.108-1.329-0.099c-0.395,0-0.578-0.098-0.578-0.309c0-0.209,0.246-0.308,0.751-0.308c0.504,0,1.611,0,2.793,0
		h2.141c5.405,0,8.276,0,8.613,0c0.496-0.032,0.99-0.102,1.477-0.209l0.541-0.135c0.136,0,0.209,0.098,0.209,0.308
		c0,0.209,0,0.233-0.099,0.615c-0.099,0.381-0.123,0.996-0.159,1.611c-0.037,0.614-0.099,1.365-0.186,2.264
		c-0.049,0.255-0.164,0.382-0.344,0.382c-0.16,0-0.26-0.123-0.297-0.382c-0.035-0.258-0.062-0.492-0.086-0.713
		c-0.019-0.21-0.063-0.417-0.136-0.615c-0.271-0.665-1.033-1.075-2.288-1.23c-0.779-0.091-2.398-0.136-4.859-0.136
		c-0.16,0-0.233,0.111-0.233,0.346v8.612c0,0.245,0.073,0.381,0.233,0.381c3.101,0,4.926-0.023,5.476-0.072
		c0.298-0.012,0.594-0.044,0.886-0.1c0.285-0.059,0.547-0.2,0.751-0.405c0.271-0.296,0.451-0.443,0.541-0.443
		c0.16,0,0.246,0.087,0.246,0.271c0,0.185,0,0.246-0.099,0.688c-0.1,0.443-0.123,1.132-0.172,1.809
		c-0.09,1.296-0.137,2.061-0.137,2.289c0,0.432-0.099,0.651-0.308,0.651s-0.308-0.123-0.308-0.356
		c-0.015-0.413-0.061-0.823-0.135-1.229c-0.182-0.771-0.82-1.214-1.921-1.329c-0.64-0.065-2.26-0.098-4.859-0.098
		c-0.136,0-0.209,0.109-0.209,0.344v8.011c-0.088,0.858,0.205,1.713,0.8,2.338c1.035,0.459,2.171,0.643,3.298,0.528
		c1.086,0.069,2.176-0.068,3.211-0.405c0.908-0.531,1.486-1.483,1.538-2.535c0.074-0.345,0.197-0.517,0.382-0.517
		c0.186,0,0.271,0.209,0.271,0.615c0.015,1.28-0.136,2.559-0.443,3.802c-0.044,0.308-0.22,0.581-0.479,0.751
		c-0.445,0.119-0.906,0.165-1.365,0.135c-1.985,0-3.958-0.032-5.919-0.099l-3.557-0.099h-1.932h-2.375
		c-0.455,0-0.689-0.11-0.689-0.345c0-0.233,0.246-0.259,0.752-0.308l1.021-0.1c0.524-0.114,0.857-0.741,0.996-1.883
		C924.788,445.599,924.829,443.24,924.829,439.271z"/>
	<path display="inline" d="M947.997,430.165l0.382,14.371c0.065,2.28,0.476,3.548,1.23,3.802c0.064,0,0.509,0.059,1.329,0.173
		c0.681,0.09,1.021,0.205,1.021,0.346c0,0.139-0.263,0.254-0.787,0.344c-0.87,0-1.771,0-2.707,0h-1.538h-1.305
		c-0.886,0-1.686,0-2.398,0c-0.501,0-0.751-0.114-0.751-0.344c0-0.23,0.296-0.333,0.887-0.309l1.229-0.136
		c0.469-0.176,0.802-0.598,0.861-1.095c0.154-1.043,0.225-2.098,0.209-3.15l0.308-20.252c0-0.775,0.173-1.169,0.443-1.169
		c0.27,0,0.603,0.355,1.229,1.058c1.87,2.011,5.405,5.673,10.606,10.987l7.528,7.802h0.1l-0.295-15.355
		c0.001-0.585-0.045-1.169-0.136-1.747c-0.105-0.581-0.486-1.076-1.021-1.328c-0.587-0.17-1.198-0.241-1.809-0.21
		c-0.369,0-0.541-0.098-0.541-0.309c0-0.209,0.295-0.308,0.886-0.308s1.501,0,2.461,0h1.674h1.229c0.771,0,1.489,0,2.152,0
		c0.525,0,0.788,0.104,0.788,0.308c0,0.21-0.209,0.309-0.615,0.309c-1.141,0-1.838,0.378-2.092,1.133
		c-0.141,0.617-0.211,1.249-0.209,1.882l-0.382,21.594c0,0.706-0.146,1.06-0.442,1.06c-0.295,0-0.686-0.25-1.168-0.751
		c-2.19-2.165-5.555-5.521-10.091-10.064c-1.55-1.524-3.298-3.339-5.241-5.438l-2.903-3.188L947.997,430.165z"/>
	<path display="inline" d="M991.099,449.667c-4.971,0-8.875-1.23-11.714-3.691c-2.874-2.555-4.438-6.271-4.257-10.112
		c-0.111-3.557,1.347-6.979,3.986-9.364c2.658-2.46,6.268-3.69,10.828-3.69c1.646,0.009,3.289,0.123,4.922,0.345
		c0.818,0.155,1.96,0.349,3.42,0.579c0.345,0,0.517,0.158,0.517,0.404s0,0.259-0.073,0.579c-0.073,0.319-0.086,0.85-0.099,1.304
		c0,1.001-0.033,2.231-0.099,3.691c-0.049,0.524-0.186,0.787-0.406,0.787s-0.336-0.25-0.345-0.75
		c-0.021-1.184-0.495-2.313-1.328-3.15c-0.767-0.713-1.696-1.229-2.707-1.501c-1.375-0.422-2.808-0.629-4.245-0.614
		c-2.336-0.141-4.638,0.616-6.436,2.115c-2.101,1.92-3.149,4.873-3.149,8.859c-0.127,3.43,1.216,6.751,3.691,9.13
		c1.868,1.925,4.429,3.023,7.11,3.051c1.135,0.03,2.27-0.061,3.385-0.271c1.112-0.215,2.125-0.79,2.879-1.637
		c0.592-0.633,0.996-1.415,1.17-2.265c0.09-0.459,0.236-0.688,0.441-0.688s0.309,0.172,0.309,0.517c0,0.254-0.078,0.914-0.233,1.98
		c-0.114,0.854-0.278,1.699-0.492,2.534c-0.12,0.469-0.46,0.85-0.911,1.021C995.274,449.472,993.187,449.755,991.099,449.667z"/>
	<path display="inline" d="M1006.221,439.271v-6.018c0-4.102-0.023-6.518-0.073-7.248c0.063-0.928-0.565-1.762-1.478-1.956
		c-0.438-0.077-0.884-0.108-1.329-0.099c-0.381,0-0.578-0.098-0.578-0.309c0-0.209,0.246-0.308,0.751-0.308s1.611,0,2.794,0h2.141
		c5.406,0,8.275,0,8.613,0c0.496-0.032,0.989-0.102,1.477-0.209l0.541-0.135c0.136,0,0.209,0.098,0.209,0.308
		c0,0.209,0,0.233-0.098,0.615c-0.1,0.381-0.123,0.996-0.148,1.611c-0.023,0.614-0.099,1.365-0.186,2.264
		c-0.049,0.255-0.163,0.382-0.344,0.382s-0.278-0.127-0.296-0.382c0-0.246-0.062-0.492-0.086-0.713
		c-0.019-0.21-0.063-0.417-0.136-0.615c-0.271-0.665-1.033-1.075-2.288-1.23c-0.779-0.091-2.399-0.136-4.86-0.136
		c-0.16,0-0.232,0.111-0.232,0.346v8.612c0,0.245,0.072,0.381,0.232,0.381c3.102,0,4.926-0.023,5.477-0.072
		c0.297-0.012,0.594-0.044,0.886-0.1c0.285-0.059,0.546-0.2,0.75-0.405c0.271-0.296,0.452-0.443,0.542-0.443
		c0.16,0,0.246,0.087,0.246,0.271c0,0.185,0,0.246-0.1,0.688c-0.099,0.443-0.123,1.132-0.172,1.809
		c-0.091,1.296-0.136,2.061-0.136,2.289c0,0.432-0.099,0.651-0.308,0.651s-0.309-0.123-0.309-0.356
		c-0.015-0.413-0.06-0.823-0.135-1.229c-0.181-0.771-0.82-1.214-1.92-1.329c-0.64-0.065-2.26-0.098-4.859-0.098
		c-0.136,0-0.209,0.109-0.209,0.344v8.011c-0.127,0.899,0.168,1.807,0.8,2.461c1.034,0.459,2.171,0.643,3.298,0.528
		c1.086,0.068,2.176-0.068,3.211-0.405c0.902-0.553,1.465-1.526,1.488-2.584c0.073-0.345,0.196-0.518,0.382-0.518
		c0.185,0,0.271,0.21,0.271,0.614c0.016,1.281-0.134,2.56-0.441,3.804c-0.045,0.307-0.221,0.58-0.479,0.75
		c-0.445,0.12-0.906,0.166-1.366,0.136c-1.984,0-3.958-0.033-5.918-0.099l-3.556-0.1h-1.933h-2.375c-0.46,0-0.688-0.114-0.688-0.345
		c0-0.229,0.25-0.332,0.751-0.309l1.021-0.098c0.525-0.115,0.857-0.743,0.997-1.883
		C1006.167,445.623,1006.221,443.24,1006.221,439.271z"/>
</g>
<g>
	<g>
		<circle fill="#004395" cx="127.731" cy="380.369" r="90.697"/>
		<circle fill="#FFFFFF" cx="127.731" cy="380.369" r="75.734"/>
	</g>
	<g>
		<polygon fill="#FFFFFF" points="59.814,401.217 51.339,385.77 78.202,385.77 83.714,415.451 54.963,415.453 		"/>
		<polygon fill="#004395" points="80.407,412.778 75.888,388.444 55.938,388.444 62.811,400.971 58.788,412.78 		"/>
		<path fill="#FFFFFF" d="M195.648,401.219l4.851,14.234h-27.274l0.239-2.885c0.438-5.301,0.928-10.637,1.653-15.909
			c0.394-2.857,0.875-6.35,1.838-9.081l0.638-1.809h26.529L195.648,401.219z"/>
		<path fill="#004395" d="M176.222,412.78c1.065-12.911,2.183-21.024,3.352-24.336h19.953l-6.876,12.525l4.024,11.81L176.222,412.78
			L176.222,412.78z"/>
		<path fill="#004395" d="M72.604,399.106l-0.87-67.881l5.693-1.697c3.511-1.047,6.975-2.251,10.424-3.48
			c4.421-1.578,8.816-3.231,13.187-4.945c4.373-1.714,8.725-3.488,13.032-5.366c3.291-1.434,6.585-2.904,9.746-4.608l3.915-2.109
			l3.915,2.109c3.164,1.703,6.458,3.174,9.748,4.608c4.308,1.876,8.659,3.651,13.033,5.365c4.371,1.714,8.764,3.369,13.187,4.946
			c3.45,1.23,6.914,2.434,10.424,3.48l5.692,1.697l-0.869,67.882c-0.127,9.8-3.094,18.712-9.067,26.506
			c-10.435,13.617-27.251,20.649-42.511,27.336l-3.552,1.553l-3.552-1.553c-6.464-2.835-12.955-5.61-19.193-8.925
			C86.807,434.366,72.883,420.961,72.604,399.106"/>
		<path fill="#FFFFFF" d="M76.887,399.052l-0.83-64.647l2.594-0.776c3.572-1.065,7.128-2.297,10.64-3.55
			c4.462-1.591,8.9-3.26,13.31-4.99c4.422-1.735,8.826-3.528,13.181-5.427c3.375-1.473,6.823-3.017,10.067-4.763l1.884-1.016
			l1.883,1.016c3.245,1.747,6.691,3.29,10.068,4.763c4.354,1.896,8.759,3.693,13.18,5.427c4.411,1.73,8.848,3.399,13.312,4.99
			c3.512,1.253,7.065,2.484,10.637,3.55l2.595,0.776l-0.83,64.647c-0.113,8.884-2.772,16.896-8.181,23.956
			c-9.844,12.848-26.416,19.702-40.832,26.017l-1.833,0.804l-1.832-0.804c-6.37-2.791-12.756-5.516-18.903-8.783
			C90.308,431.378,77.144,419.281,76.887,399.052"/>
		<path fill="#004395" d="M80.47,399.005l-0.793-61.939c11.489-3.427,37.324-13.36,47.871-19.01l0.182-0.098l0.185,0.098
			c10.547,5.65,36.382,15.583,47.871,19.01l-0.794,61.939c-0.351,27.372-26.737,37.921-46.867,46.736l-0.394,0.171l-0.393-0.171
			C107.208,436.926,80.821,426.377,80.47,399.005"/>
		<path fill="#EFEEEE" d="M127.731,392.138c1.61,0,2.917,1.306,2.917,2.918s-1.308,2.919-2.917,2.919
			c-1.61,0-2.917-1.307-2.917-2.919C124.814,393.444,126.119,392.138,127.731,392.138"/>
		<path fill="#EFEEEE" d="M96.04,375.313c-0.852-0.486-1.606-1.196-2.085-1.96c0.834,0.208,1.674,0.686,2.573,1.309
			c-0.411-4.191-4.583-3.369-5.957-3.569C90.46,373.911,94.274,376.28,96.04,375.313"/>
		<path fill="#EFEEEE" d="M93.828,368c-0.642-0.771-1.118-1.715-1.321-2.603c0.712,0.503,1.343,1.26,1.983,2.175
			c0.954-4.063-3.203-4.845-4.422-5.54C89.07,364.622,91.873,368.248,93.828,368"/>
		<path fill="#EFEEEE" d="M94.084,360.819c-0.522-0.808-0.875-1.757-0.972-2.622c0.62,0.563,1.134,1.356,1.643,2.297
			c1.327-3.72-2.513-4.966-3.592-5.773C89.947,357.046,92.214,360.812,94.084,360.819"/>
		<path fill="#EFEEEE" d="M95.274,353.49c-0.324-0.849-0.464-1.79-0.39-2.598c0.458,0.648,0.778,1.481,1.062,2.452
			c1.909-3.094-1.353-5.072-2.181-6.042C92.22,349.15,93.572,353.075,95.274,353.49"/>
		<path fill="#EFEEEE" d="M97.178,347.094c0.024-0.848,0.237-1.701,0.586-2.354c0.156,0.735,0.133,1.57,0.033,2.506
			c2.704-1.832,0.645-4.839,0.287-5.997C96.128,342.176,95.887,346.046,97.178,347.094"/>
		<path fill="#EFEEEE" d="M100.397,342.046c0.181-0.747,0.529-1.451,0.957-1.954c0.001,0.684-0.173,1.416-0.437,2.221
			c2.729-1.033,1.472-4.135,1.371-5.235C100.386,337.474,99.454,340.84,100.397,342.046"/>
		<path fill="#EFEEEE" d="M104.723,337.115c0.282-0.6,0.698-1.133,1.15-1.476c-0.115,0.585-0.391,1.174-0.754,1.807
			c2.503-0.337,1.962-3.232,2.064-4.192C105.495,333.213,104.125,335.899,104.723,337.115"/>
		<path fill="#EFEEEE" d="M109.064,334.42c0.567-0.277,1.202-0.41,1.752-0.37c-0.429,0.376-0.986,0.649-1.637,0.897
			c2.146,1.434,3.409-1.188,4.047-1.866C111.936,331.907,109.306,333.067,109.064,334.42"/>
		<path fill="#EFEEEE" d="M106.3,338.999c0.616-0.108,1.213-0.372,1.653-0.73c-0.55-0.06-1.155,0.044-1.824,0.223
			c1.061-2.47,3.452-1.029,4.33-0.842C109.981,339.395,107.192,339.985,106.3,338.999"/>
		<path fill="#EFEEEE" d="M102.103,343.323c0.683-0.088,1.35-0.349,1.85-0.723c-0.604-0.092-1.273-0.008-2.018,0.155
			c1.27-2.665,3.843-0.964,4.802-0.717C106.136,343.936,103.044,344.452,102.103,343.323"/>
		<path fill="#EFEEEE" d="M98.886,348.362c0.675-0.226,1.305-0.626,1.744-1.104c-0.625,0.028-1.289,0.249-2.012,0.565
			c0.821-2.951,3.715-1.75,4.728-1.692C103.07,348.169,100.033,349.313,98.886,348.362"/>
		<path fill="#EFEEEE" d="M97,354.105c0.692-0.348,1.316-0.877,1.722-1.459c-0.667,0.129-1.348,0.47-2.083,0.922
			c0.483-3.298,3.752-2.465,4.847-2.563C101.465,353.24,98.36,354.946,97,354.105"/>
		<path fill="#EFEEEE" d="M95.643,360.899c0.726-0.453,1.359-1.096,1.751-1.774c-0.718,0.209-1.431,0.652-2.193,1.225
			c0.232-3.652,3.876-3.081,5.063-3.303C100.442,359.488,97.201,361.675,95.643,360.899"/>
		<path fill="#EFEEEE" d="M95.792,367.627c0.655-0.677,1.168-1.528,1.419-2.349c-0.705,0.418-1.35,1.081-2.016,1.894
			c-0.622-3.904,3.346-4.311,4.542-4.87C100.504,364.82,97.617,368.013,95.792,367.627"/>
		<path fill="#EFEEEE" d="M97.838,374.275c0.411-0.907,0.626-1.927,0.598-2.821c-0.544,0.677-0.95,1.567-1.323,2.609
			c-1.896-3.538,1.809-5.461,2.783-6.464C101.469,369.743,99.733,373.945,97.838,374.275"/>
		<path fill="#EFEEEE" d="M100.423,382.667c-1.009-0.317-1.958-0.896-2.623-1.593c0.931,0.022,1.923,0.334,3.008,0.783
			c-1.294-4.369-5.574-2.504-7.081-2.392C94.189,382.495,98.739,384.114,100.423,382.667"/>
		<path fill="#EFEEEE" d="M102.197,380.15c0.074-1.048-0.083-2.129-0.428-2.98c-0.286,0.881-0.361,1.913-0.352,3.079
			c-3.099-2.646-0.193-6.045,0.391-7.421C104.099,374.25,103.916,379.046,102.197,380.15"/>
		<path fill="#EFEEEE" d="M105.823,388.8c-1.146-0.108-2.279-0.512-3.13-1.114c1.004-0.188,2.132-0.081,3.385,0.154
			c-2.25-4.392-6.477-1.411-8.069-0.941C99.099,390.044,104.3,390.741,105.823,388.8"/>
		<path fill="#EFEEEE" d="M107.219,386.408c-0.149-1.13-0.546-2.227-1.096-3.04c-0.11,1.001,0.033,2.108,0.293,3.337
			c-3.843-2.015-1.511-6.333-1.19-7.932C107.954,379.701,108.795,384.81,107.219,386.408"/>
		<path fill="#EFEEEE" d="M112.777,393.486c-1.209,0.09-2.448-0.132-3.426-0.605c1.019-0.372,2.206-0.458,3.547-0.434
			c-3.004-4.18-6.954-0.332-8.544,0.434C105.965,395.963,111.485,395.775,112.777,393.486"/>
		<path fill="#EFEEEE" d="M114.404,390.553c-0.49-1.108-1.229-2.101-2.039-2.742c0.187,1.07,0.667,2.156,1.305,3.329
			c-4.555-0.726-3.456-5.986-3.607-7.74C113.145,383.401,115.546,388.359,114.404,390.553"/>
		<path fill="#EFEEEE" d="M121.283,396.195c-1.169,0.343-2.424,0.385-3.47,0.127c0.932-0.578,2.079-0.915,3.397-1.177
			c-3.706-3.458-6.878,1.15-8.297,2.237C115.055,400.063,120.434,398.709,121.283,396.195"/>
		<path fill="#EFEEEE" d="M122.346,392.973c-0.682-0.979-1.586-1.799-2.498-2.26c0.377,1.015,1.046,1.979,1.885,2.99
			c-4.597,0.251-4.477-5.138-4.943-6.826C119.811,386.225,123.065,390.581,122.346,392.973"/>
		<path fill="#EFEEEE" d="M159.424,375.313c0.852-0.486,1.605-1.196,2.084-1.96c-0.834,0.209-1.674,0.686-2.572,1.309
			c0.412-4.191,4.582-3.369,5.957-3.569C165.004,373.911,161.189,376.28,159.424,375.313"/>
		<path fill="#EFEEEE" d="M161.635,368c0.642-0.771,1.117-1.715,1.321-2.603c-0.712,0.503-1.344,1.26-1.983,2.175
			c-0.953-4.063,3.204-4.845,4.422-5.54C166.394,364.622,163.59,368.248,161.635,368"/>
		<path fill="#EFEEEE" d="M161.379,360.819c0.521-0.808,0.872-1.757,0.971-2.622c-0.62,0.563-1.136,1.356-1.643,2.297
			c-1.327-3.72,2.513-4.966,3.591-5.773C165.515,357.046,163.249,360.812,161.379,360.819"/>
		<path fill="#EFEEEE" d="M160.188,353.49c0.325-0.849,0.465-1.79,0.391-2.598c-0.458,0.648-0.78,1.481-1.063,2.452
			c-1.908-3.094,1.353-5.072,2.183-6.042C163.243,349.15,161.89,353.075,160.188,353.49"/>
		<path fill="#EFEEEE" d="M158.285,347.094c-0.024-0.848-0.238-1.701-0.585-2.354c-0.158,0.735-0.135,1.57-0.034,2.506
			c-2.704-1.832-0.646-4.839-0.287-5.997C159.336,342.176,159.577,346.046,158.285,347.094"/>
		<path fill="#EFEEEE" d="M155.065,342.047c-0.181-0.746-0.528-1.452-0.956-1.954c-0.002,0.684,0.174,1.417,0.437,2.221
			c-2.728-1.032-1.469-4.133-1.37-5.234C155.076,337.474,156.01,340.84,155.065,342.047"/>
		<path fill="#EFEEEE" d="M150.74,337.115c-0.282-0.6-0.697-1.133-1.148-1.474c0.113,0.583,0.39,1.172,0.753,1.805
			c-2.503-0.338-1.963-3.232-2.065-4.19C149.968,333.213,151.338,335.899,150.74,337.115"/>
		<path fill="#EFEEEE" d="M146.399,334.42c-0.569-0.277-1.203-0.41-1.754-0.37c0.428,0.377,0.987,0.649,1.638,0.897
			c-2.146,1.434-3.409-1.188-4.047-1.866C143.527,331.907,146.156,333.067,146.399,334.42"/>
		<path fill="#EFEEEE" d="M149.163,338.999c-0.616-0.108-1.214-0.372-1.652-0.73c0.549-0.06,1.155,0.044,1.824,0.223
			c-1.06-2.47-3.452-1.029-4.329-0.842C145.483,339.395,148.271,339.985,149.163,338.999"/>
		<path fill="#EFEEEE" d="M153.359,343.323c-0.682-0.086-1.351-0.349-1.851-0.723c0.605-0.092,1.274-0.008,2.02,0.155
			c-1.271-2.665-3.842-0.964-4.802-0.717C149.327,343.936,152.419,344.452,153.359,343.323"/>
		<path fill="#EFEEEE" d="M156.576,348.362c-0.673-0.226-1.304-0.626-1.743-1.104c0.625,0.028,1.288,0.249,2.012,0.565
			c-0.822-2.951-3.716-1.75-4.728-1.693C152.393,348.169,155.43,349.313,156.576,348.362"/>
		<path fill="#EFEEEE" d="M158.464,354.105c-0.694-0.348-1.316-0.877-1.724-1.459c0.668,0.129,1.349,0.47,2.084,0.922
			c-0.483-3.298-3.752-2.465-4.847-2.563C153.997,353.24,157.102,354.946,158.464,354.105"/>
		<path fill="#EFEEEE" d="M159.819,360.899c-0.724-0.453-1.357-1.096-1.749-1.774c0.718,0.209,1.432,0.652,2.192,1.225
			c-0.233-3.652-3.876-3.081-5.064-3.303C155.021,359.488,158.261,361.675,159.819,360.899"/>
		<path fill="#EFEEEE" d="M159.67,367.627c-0.655-0.677-1.167-1.528-1.418-2.349c0.706,0.418,1.349,1.081,2.015,1.894
			c0.624-3.904-3.346-4.311-4.54-4.87C154.961,364.82,157.846,368.013,159.67,367.627"/>
		<path fill="#EFEEEE" d="M157.625,374.275c-0.411-0.907-0.625-1.927-0.597-2.821c0.544,0.677,0.949,1.567,1.325,2.609
			c1.895-3.538-1.811-5.461-2.784-6.464C153.993,369.743,155.73,373.945,157.625,374.275"/>
		<path fill="#EFEEEE" d="M155.04,382.667c1.01-0.317,1.959-0.896,2.623-1.593c-0.93,0.022-1.923,0.334-3.007,0.783
			c1.293-4.369,5.573-2.504,7.081-2.392C161.273,382.495,156.725,384.114,155.04,382.667"/>
		<path fill="#EFEEEE" d="M153.267,380.15c-0.074-1.048,0.082-2.129,0.427-2.98c0.286,0.881,0.36,1.913,0.352,3.079
			c3.099-2.646,0.193-6.045-0.391-7.421C151.363,374.25,151.549,379.046,153.267,380.15"/>
		<path fill="#EFEEEE" d="M149.64,388.8c1.146-0.108,2.277-0.512,3.13-1.114c-1.005-0.188-2.132-0.081-3.386,0.154
			c2.25-4.392,6.477-1.411,8.069-0.941C156.365,390.044,151.163,390.741,149.64,388.8"/>
		<path fill="#EFEEEE" d="M148.244,386.408c0.149-1.13,0.545-2.227,1.095-3.04c0.111,1.001-0.032,2.108-0.292,3.337
			c3.842-2.015,1.508-6.333,1.189-7.932C147.51,379.701,146.667,384.81,148.244,386.408"/>
		<path fill="#EFEEEE" d="M142.686,393.49c1.21,0.086,2.448-0.135,3.424-0.609c-1.016-0.372-2.205-0.458-3.544-0.434
			c3.004-4.18,6.954-0.332,8.542,0.434C149.497,395.963,143.979,395.775,142.686,393.49"/>
		<path fill="#EFEEEE" d="M141.058,390.553c0.49-1.108,1.229-2.101,2.04-2.742c-0.187,1.07-0.668,2.156-1.304,3.329
			c4.555-0.726,3.455-5.986,3.605-7.74C142.318,383.401,139.919,388.359,141.058,390.553"/>
		<path fill="#EFEEEE" d="M134.18,396.195c1.17,0.343,2.424,0.385,3.471,0.127c-0.931-0.578-2.079-0.915-3.4-1.177
			c3.708-3.458,6.88,1.15,8.299,2.237C140.407,400.063,135.029,398.709,134.18,396.195"/>
		<path fill="#EFEEEE" d="M133.117,392.973c0.683-0.979,1.586-1.796,2.498-2.26c-0.377,1.015-1.046,1.979-1.884,2.99
			c4.599,0.251,4.477-5.138,4.945-6.826C135.654,386.225,132.398,390.581,133.117,392.973"/>
		<polygon fill="#EFEEEE" points="127.731,323.176 128.876,326.721 132.599,326.713 129.583,328.898 130.743,332.436 
			127.731,330.241 124.722,332.436 125.881,328.898 122.862,326.713 126.588,326.721 		"/>
		<path fill="#EFEEEE" d="M128.084,337.707c13.175,0,23.854,10.679,23.854,23.854s-10.679,23.854-23.854,23.854
			c-13.174,0-23.854-10.679-23.854-23.854C104.229,348.387,114.911,337.707,128.084,337.707"/>
		<rect x="66.661" y="379.399" fill="#FFFFFF" width="122.141" height="29.089"/>
		<path fill="#222065" d="M139.337,373.932c-4.646,0.566-9.294,1.559-11.116,3.212c2.522-1.398,7.508-2.135,12.049-2.285
			c0,0,2.019-5.974,6.058-17.92c-3.352,0.325-7.012,1.611-10.983,3.855c3.381-1.178,6.376-1.892,8.987-2.142
			C141.002,368.839,139.337,373.932,139.337,373.932"/>
		<path fill="#222065" d="M141.255,375.131c-3.965,0.438-8.854,0.364-11.466,1.912c2.575-1.053,7.852-1.011,12.372-1.072
			c0,0,2.181-5.119,6.539-15.358c-1.104,0.054-2.243,0.196-3.421,0.428l-0.395,1.129c0.611-0.064,1.202-0.11,1.774-0.138
			C143.059,370.766,141.255,375.131,141.255,375.131"/>
		<path fill="#222065" d="M142.592,376.844c-2.512-0.311-7.15-1.063-11.476,0.263c3.891-0.742,8.753,0.211,12.321,0.649
			c0,0,2.53-4.931,7.592-14.793c-0.953-0.03-1.935,0.003-2.949,0.101l-0.499,1.137c0.449-0.006,0.885,0,1.311,0.013
			C144.692,372.635,142.592,376.844,142.592,376.844"/>
		<path fill="#222065" d="M117.199,373.932c4.646,0.566,9.293,1.559,11.115,3.212c-2.52-1.398-7.508-2.135-12.047-2.285
			c0,0-2.019-5.974-6.058-17.92c3.352,0.325,7.013,1.611,10.984,3.855c-3.381-1.178-6.376-1.892-8.987-2.142
			C115.533,368.839,117.199,373.932,117.199,373.932"/>
		<path fill="#222065" d="M115.279,375.131c3.965,0.438,8.855,0.364,11.466,1.912c-2.573-1.053-7.852-1.011-12.372-1.072
			c0,0-2.18-5.119-6.539-15.358c1.105,0.054,2.244,0.196,3.42,0.428l0.396,1.129c-0.61-0.064-1.201-0.11-1.774-0.138
			C113.478,370.766,115.279,375.131,115.279,375.131"/>
		<path fill="#222065" d="M113.943,376.844c2.512-0.311,7.15-1.063,11.476,0.263c-3.892-0.742-8.753,0.211-12.32,0.649
			c0,0-2.531-4.931-7.594-14.793c0.952-0.03,1.935,0.003,2.948,0.101l0.497,1.137c-0.447-0.006-0.885,0-1.31,0.013
			C111.843,372.635,113.943,376.844,113.943,376.844"/>
		<rect x="69.679" y="382.417" fill="#004395" width="116.105" height="23.054"/>
		<rect x="100.641" y="422.776" fill="#EFEEEE" width="54.181" height="0.894"/>
		<g>
			<path fill="#222065" d="M125.604,358.266l-3.097-2.239l-2.045,0.004l3.725,2.696l-2.593,7.931l1.669-1.218
				C124.038,363.025,124.817,360.667,125.604,358.266L125.604,358.266z M124.623,364.448l0.625-1.946l3.086-2.251l2.665,1.943
				l-0.005,0.007l3.462,2.566l0.619,1.892l-6.741-4.917L124.623,364.448L124.623,364.448z M133.921,363.135l-1.441-4.408l6.76-4.893
				l-2.065,0.005c-2.052,1.512-4.049,2.935-6.113,4.427l1.189,3.631L133.921,363.135L133.921,363.135z M135.5,353.843l-1.636,1.208
				l-3.84,0.007l-1.688-5.227l-0.001,0.006l-0.63-1.971l0.631-1.954l2.563,7.94L135.5,353.843L135.5,353.843z M127.178,349.488
				l-1.408,4.363l-8.344-0.017l1.667,1.207c2.54-0.006,5.022,0.011,7.553,0.015l1.162-3.597L127.178,349.488z"/>
		</g>
		<g>
			<path fill="#FFFFFF" d="M76.214,396.303c0.136,1.183,0.52,2.077,1.151,2.69c0.631,0.607,1.416,0.915,2.352,0.915
				c0.691,0,1.238-0.19,1.638-0.569c0.401-0.381,0.602-0.888,0.602-1.508c0-0.951-0.646-1.678-1.935-2.179l-1.995-0.835
				c-1.548-0.64-2.323-1.688-2.323-3.157c0-0.652,0.157-1.247,0.47-1.791c0.313-0.544,0.782-0.979,1.404-1.304
				c0.625-0.326,1.386-0.488,2.28-0.488c0.448,0,0.829,0.031,1.141,0.101c0.312,0.067,0.625,0.156,0.937,0.267
				c0.312,0.109,0.537,0.181,0.672,0.223c0.23,0.081,0.434,0.121,0.61,0.121c0.23,0,0.42-0.026,0.569-0.08
				c-0.041,0.325-0.062,0.843-0.062,1.546c0,0.394,0.006,0.679,0.02,0.854c0.015,0.179,0.047,0.34,0.102,0.49h-0.692
				c0-0.843-0.29-1.525-0.866-2.047c-0.577-0.521-1.28-0.784-2.108-0.784c-0.652,0-1.187,0.171-1.608,0.511
				c-0.421,0.338-0.631,0.778-0.631,1.323c0,0.381,0.139,0.724,0.417,1.027s0.724,0.58,1.333,0.823l1.73,0.734
				c1.061,0.462,1.816,0.954,2.271,1.476s0.682,1.214,0.682,2.065c0,0.734-0.17,1.396-0.509,1.986
				c-0.34,0.589-0.842,1.06-1.508,1.405c-0.665,0.347-1.473,0.521-2.423,0.521c-0.598,0-1.242-0.091-1.935-0.267
				c-0.774-0.204-1.305-0.305-1.589-0.305c-0.122,0-0.267,0.009-0.437,0.027c-0.169,0.021-0.283,0.044-0.336,0.072
				c0.055-0.285,0.082-0.81,0.082-1.567c0-0.545-0.014-1.046-0.041-1.508c-0.027-0.46-0.068-0.704-0.123-0.734L76.214,396.303z"/>
			<path fill="#FFFFFF" d="M97.759,399.682v0.757H91.65v-0.757l0.937,0.044c0.406,0.037,0.61-0.125,0.61-0.489
				c0-0.232-0.068-0.495-0.204-0.793l-0.753-1.796h-4.48l-0.692,1.67c-0.189,0.425-0.285,0.761-0.285,1.021
				c0,0.284,0.15,0.419,0.447,0.408l0.916-0.064v0.756H84.46v-0.756l0.591,0.044h0.082c0.271,0,0.495-0.13,0.672-0.388
				c0.203-0.301,0.407-0.69,0.611-1.181l4.194-10.08h0.999l4.235,10.121c0.189,0.486,0.387,0.875,0.591,1.16
				c0.189,0.241,0.426,0.366,0.711,0.366h0.102L97.759,399.682z M88.045,395.937h3.91l-1.976-4.683L88.045,395.937z"/>
			<path fill="#FFFFFF" d="M98.146,399.682l0.713,0.044h0.041c0.231,0,0.347-0.152,0.347-0.447v-9.858
				c0-0.123-0.035-0.226-0.103-0.316c-0.068-0.087-0.163-0.126-0.285-0.109l-0.713,0.039v-0.754h5.031v0.754l-0.712-0.039h-0.042
				c-0.109,0-0.197,0.039-0.265,0.121c-0.067,0.081-0.103,0.182-0.103,0.305v9.858c0,0.322,0.136,0.474,0.409,0.447l0.712-0.044
				v0.757h-5.031V399.682z"/>
			<path fill="#FFFFFF" d="M117.064,388.281v0.609l-0.795-0.038h-0.039c-0.232,0-0.348,0.143-0.348,0.428v11.277h-1.222
				l-7.962-10.81v9.69c0,0.3,0.13,0.449,0.388,0.449l0.998-0.04v0.591h-3.422v-0.591l0.794,0.04c0.272,0,0.407-0.149,0.407-0.449
				V389.28c0-0.123-0.037-0.229-0.112-0.317c-0.074-0.09-0.173-0.125-0.295-0.109l-0.794,0.037v-0.609h4.195l6.192,8.431v-7.455
				c0-0.27-0.114-0.405-0.347-0.405h-0.061l-0.998,0.038v-0.61h3.421V388.281z"/>
			<path fill="#FFFFFF" d="M118.062,388.218c0.244,0.026,0.569,0.04,0.977,0.04h8.533c0.502,0,0.821-0.014,0.958-0.04v3.179h-0.673
				c0-0.83-0.194-1.438-0.582-1.832c-0.387-0.396-1.027-0.592-1.923-0.592h-0.407c-0.135,0-0.218,0.076-0.245,0.227v10.08
				c0,0.295,0.135,0.447,0.408,0.447l1.079-0.044v0.757h-5.782v-0.757l1.1,0.044c0.122,0,0.216-0.053,0.285-0.154
				c0.068-0.1,0.102-0.22,0.102-0.356v-9.999c0-0.164-0.081-0.244-0.245-0.244h-0.366c-0.896,0-1.542,0.197-1.935,0.592
				c-0.394,0.396-0.59,1.003-0.59,1.833h-0.692v-3.18H118.062L118.062,388.218z"/>
			<path fill="#FFFFFF" d="M134.493,396.303c0.136,1.183,0.521,2.077,1.151,2.69c0.631,0.607,1.416,0.915,2.352,0.915
				c0.693,0,1.24-0.19,1.64-0.569c0.4-0.381,0.602-0.888,0.602-1.508c0-0.951-0.644-1.678-1.935-2.179l-1.995-0.835
				c-1.549-0.64-2.322-1.688-2.322-3.157c0-0.652,0.155-1.247,0.468-1.791c0.312-0.544,0.78-0.979,1.404-1.304
				c0.625-0.326,1.386-0.488,2.282-0.488c0.449,0,0.827,0.031,1.141,0.101c0.313,0.067,0.624,0.156,0.937,0.267
				c0.313,0.109,0.537,0.181,0.672,0.223c0.229,0.081,0.435,0.121,0.61,0.121c0.23,0,0.419-0.026,0.569-0.08
				c-0.04,0.325-0.06,0.843-0.06,1.546c0,0.394,0.006,0.679,0.021,0.854c0.013,0.179,0.046,0.34,0.103,0.49h-0.693
				c0-0.843-0.287-1.525-0.866-2.047c-0.576-0.521-1.279-0.784-2.107-0.784c-0.652,0-1.189,0.171-1.608,0.511
				c-0.421,0.338-0.631,0.778-0.631,1.323c0,0.381,0.139,0.724,0.416,1.027c0.278,0.304,0.723,0.58,1.333,0.823l1.731,0.734
				c1.059,0.462,1.814,0.954,2.271,1.476c0.455,0.521,0.682,1.214,0.682,2.065c0,0.734-0.17,1.396-0.51,1.986
				c-0.339,0.589-0.841,1.06-1.507,1.405c-0.667,0.347-1.473,0.521-2.423,0.521c-0.597,0-1.243-0.091-1.935-0.267
				c-0.776-0.204-1.303-0.305-1.589-0.305c-0.122,0-0.269,0.009-0.437,0.027c-0.17,0.021-0.282,0.044-0.337,0.072
				c0.055-0.285,0.083-0.81,0.083-1.567c0-0.545-0.014-1.046-0.041-1.508c-0.026-0.46-0.068-0.704-0.123-0.734L134.493,396.303z"/>
			<path fill="#FFFFFF" d="M143.454,388.218c0.245,0.026,0.57,0.04,0.979,0.04h8.532c0.503,0,0.822-0.014,0.958-0.04v3.179h-0.673
				c0-0.83-0.193-1.438-0.581-1.832c-0.385-0.396-1.027-0.592-1.925-0.592h-0.406c-0.135,0-0.217,0.076-0.245,0.227v10.08
				c0,0.295,0.135,0.447,0.408,0.447l1.079-0.044v0.757h-5.783v-0.757l1.1,0.044c0.123,0,0.217-0.053,0.284-0.154
				c0.068-0.1,0.103-0.22,0.103-0.356v-9.999c0-0.164-0.082-0.244-0.245-0.244h-0.368c-0.896,0-1.54,0.197-1.935,0.592
				c-0.394,0.396-0.589,1.003-0.589,1.833h-0.694L143.454,388.218L143.454,388.218z"/>
			<path fill="#FFFFFF" d="M165.977,399.682v0.757h-6.108v-0.757l0.936,0.044c0.405,0.037,0.611-0.125,0.611-0.489
				c0-0.232-0.068-0.495-0.206-0.793l-0.752-1.796h-4.48l-0.693,1.67c-0.19,0.425-0.286,0.761-0.286,1.021
				c0,0.284,0.151,0.419,0.449,0.408l0.916-0.064v0.756h-3.687v-0.756l0.59,0.044h0.082c0.27,0,0.494-0.13,0.672-0.388
				c0.204-0.301,0.408-0.69,0.612-1.181l4.194-10.08h0.998l4.238,10.121c0.188,0.486,0.385,0.875,0.589,1.16
				c0.19,0.241,0.428,0.366,0.713,0.366h0.102L165.977,399.682z M156.264,395.937h3.909l-1.976-4.683L156.264,395.937z"/>
			<path fill="#FFFFFF" d="M166.363,399.682l0.713,0.044h0.041c0.229,0,0.346-0.152,0.346-0.447v-9.858
				c0-0.123-0.038-0.226-0.112-0.316c-0.075-0.087-0.188-0.126-0.337-0.109l-0.652,0.039v-0.754h5.273
				c1.467,0,2.55,0.247,3.249,0.742c0.699,0.499,1.049,1.267,1.049,2.313c0,0.829-0.262,1.523-0.783,2.077
				c-0.523,0.557-1.248,0.933-2.169,1.119c0.489,0,0.983,0.135,1.487,0.407c0.501,0.272,0.918,0.668,1.253,1.192
				c0.332,0.522,0.499,1.129,0.499,1.824c0,0.38,0.058,0.781,0.174,1.21c0.113,0.428,0.254,0.662,0.417,0.704
				c0.082,0.023,0.169,0.039,0.264,0.039c0.122,0,0.23-0.025,0.326-0.081v0.611h-3.604c-0.163-0.34-0.258-0.79-0.285-1.345
				c-0.027-0.352-0.041-0.611-0.041-0.775v-0.671c0-0.922-0.259-1.606-0.773-2.057c-0.517-0.448-1.14-0.672-1.873-0.672h-0.549v4.36
				c0,0.295,0.136,0.446,0.408,0.446l0.998-0.043v0.757h-5.317V399.682L166.363,399.682L166.363,399.682z M171.557,394.206
				c0.488,0,0.877-0.237,1.17-0.703c0.292-0.466,0.437-1.101,0.437-1.903c0-0.911-0.164-1.57-0.489-1.985
				c-0.326-0.412-0.829-0.62-1.507-0.62h-0.65c-0.164,0-0.245,0.064-0.245,0.202v5.01H171.557L171.557,394.206z"/>
		</g>
		<g>
			<g>
				<path fill="#FFFFFF" d="M106.719,413.521c0.326-0.555,0.765-0.989,1.323-1.301c0.556-0.31,1.167-0.466,1.832-0.466
					c0.76,0,1.435,0.187,2.025,0.559c0.591,0.371,1.021,0.901,1.287,1.586h-1.405c-0.185-0.376-0.442-0.657-0.769-0.842
					c-0.328-0.185-0.708-0.278-1.138-0.278c-0.473,0-0.892,0.107-1.262,0.319c-0.37,0.212-0.659,0.516-0.867,0.914
					c-0.208,0.396-0.313,0.855-0.313,1.383c0,0.528,0.104,0.989,0.313,1.384c0.208,0.396,0.498,0.703,0.867,0.918
					c0.369,0.216,0.79,0.323,1.262,0.323c0.43,0,0.81-0.093,1.138-0.277c0.327-0.184,0.584-0.465,0.769-0.841h1.405
					c-0.266,0.683-0.697,1.21-1.287,1.581c-0.59,0.369-1.265,0.555-2.025,0.555c-0.672,0-1.283-0.16-1.837-0.47
					c-0.553-0.312-0.994-0.744-1.317-1.295c-0.325-0.555-0.488-1.182-0.488-1.879C106.231,414.697,106.395,414.07,106.719,413.521z"
					/>
				<path fill="#FFFFFF" d="M115.971,418.583c-0.558-0.313-0.999-0.749-1.322-1.306c-0.324-0.556-0.488-1.183-0.488-1.881
					c0-0.699,0.163-1.326,0.488-1.875c0.325-0.555,0.764-0.989,1.322-1.301c0.558-0.31,1.169-0.466,1.832-0.466
					c0.67,0,1.283,0.156,1.841,0.466c0.558,0.312,0.997,0.745,1.318,1.301c0.322,0.549,0.482,1.177,0.482,1.875
					c0,0.699-0.161,1.325-0.482,1.881c-0.321,0.557-0.761,0.993-1.318,1.306c-0.557,0.309-1.171,0.464-1.841,0.464
					C117.139,419.047,116.528,418.892,115.971,418.583z M119.064,417.71c0.37-0.214,0.657-0.523,0.867-0.925
					c0.208-0.4,0.313-0.86,0.313-1.389c0-0.527-0.105-0.986-0.313-1.384c-0.208-0.397-0.499-0.701-0.867-0.914
					c-0.368-0.21-0.79-0.318-1.262-0.318c-0.471,0-0.891,0.107-1.261,0.318c-0.37,0.212-0.659,0.517-0.867,0.914
					c-0.209,0.397-0.313,0.856-0.313,1.384c0,0.528,0.104,0.988,0.313,1.389c0.209,0.4,0.497,0.71,0.867,0.925
					c0.37,0.216,0.79,0.324,1.261,0.324C118.274,418.034,118.696,417.925,119.064,417.71z"/>
				<path fill="#FFFFFF" d="M123.761,418.033h2.411v0.943h-3.58v-7.129h1.169V418.033L123.761,418.033z"/>
				<path fill="#FFFFFF" d="M128.315,418.033h2.411v0.943h-3.579v-7.129h1.168V418.033z"/>
				<path fill="#FFFFFF" d="M132.87,412.793v2.09h2.461v0.954h-2.461v2.186h2.771v0.956h-3.939v-7.14h3.939v0.955L132.87,412.793
					L132.87,412.793z"/>
				<path fill="#FFFFFF" d="M142.236,413.898c-0.185-0.358-0.442-0.625-0.77-0.807c-0.33-0.183-0.708-0.272-1.14-0.272
					c-0.472,0-0.891,0.107-1.262,0.318c-0.37,0.212-0.658,0.514-0.866,0.903c-0.211,0.389-0.315,0.841-0.315,1.353
					c0,0.514,0.104,0.967,0.315,1.36c0.208,0.395,0.497,0.695,0.866,0.908c0.37,0.211,0.79,0.318,1.262,0.318
					c0.637,0,1.152-0.18,1.549-0.533c0.397-0.356,0.64-0.839,0.729-1.446h-2.678v-0.937h3.93v0.915
					c-0.075,0.553-0.272,1.063-0.589,1.527c-0.318,0.465-0.733,0.837-1.241,1.115c-0.51,0.275-1.076,0.415-1.699,0.415
					c-0.67,0-1.283-0.159-1.836-0.47c-0.554-0.31-0.992-0.744-1.317-1.294c-0.326-0.556-0.487-1.181-0.487-1.88
					c0-0.698,0.161-1.325,0.487-1.875c0.325-0.555,0.764-0.988,1.322-1.301c0.557-0.312,1.167-0.465,1.832-0.465
					c0.76,0,1.435,0.187,2.027,0.558c0.589,0.37,1.02,0.903,1.286,1.585h-1.405v0.003H142.236z"/>
				<path fill="#FFFFFF" d="M146.176,412.793v2.09h2.462v0.954h-2.462v2.186h2.768v0.956h-3.939v-7.14h3.939v0.955L146.176,412.793
					L146.176,412.793z"/>
			</g>
		</g>
		<g>
			<g>
				<path fill="#FFFFFF" d="M119.91,431.394c0.452-0.394,0.808-0.714,1.069-0.966c0.261-0.25,0.479-0.515,0.654-0.785
					c0.173-0.276,0.26-0.547,0.26-0.821c0-0.281-0.067-0.504-0.201-0.664c-0.134-0.157-0.345-0.238-0.632-0.238
					c-0.277,0-0.493,0.088-0.646,0.264s-0.234,0.414-0.244,0.712h-0.777c0.014-0.538,0.175-0.948,0.484-1.234
					c0.309-0.284,0.7-0.426,1.176-0.426c0.513,0,0.913,0.142,1.203,0.424c0.289,0.283,0.435,0.659,0.435,1.132
					c0,0.337-0.087,0.662-0.258,0.975c-0.172,0.313-0.377,0.592-0.615,0.842c-0.238,0.248-0.541,0.532-0.908,0.858l-0.318,0.283
					h2.239v0.669H119.4v-0.586L119.91,431.394z"/>
				<path fill="#FFFFFF" d="M123.952,427.938c0.276-0.459,0.75-0.69,1.423-0.69c0.674,0,1.147,0.231,1.422,0.69
					c0.276,0.456,0.414,1.096,0.414,1.907c0,0.822-0.137,1.469-0.414,1.932c-0.275,0.464-0.75,0.696-1.422,0.696
					c-0.673,0-1.148-0.232-1.423-0.696c-0.276-0.462-0.413-1.109-0.413-1.932C123.539,429.033,123.675,428.395,123.952,427.938z
					 M126.346,428.878c-0.051-0.265-0.15-0.479-0.301-0.645c-0.151-0.169-0.375-0.251-0.671-0.251c-0.296,0-0.521,0.083-0.671,0.251
					c-0.151,0.165-0.25,0.38-0.3,0.645c-0.049,0.263-0.074,0.588-0.074,0.968c0,0.394,0.023,0.729,0.07,0.995
					c0.046,0.27,0.148,0.486,0.301,0.649c0.153,0.167,0.379,0.247,0.674,0.247c0.296,0,0.521-0.081,0.674-0.247
					c0.152-0.163,0.253-0.38,0.302-0.649c0.046-0.266,0.069-0.602,0.069-0.995C126.42,429.465,126.396,429.141,126.346,428.878z"/>
				<path fill="#FFFFFF" d="M128.509,431.394c0.452-0.394,0.808-0.714,1.069-0.966c0.263-0.25,0.479-0.515,0.654-0.785
					c0.174-0.276,0.262-0.547,0.262-0.821c0-0.281-0.066-0.504-0.202-0.664c-0.135-0.157-0.346-0.238-0.631-0.238
					c-0.279,0-0.493,0.088-0.646,0.264s-0.234,0.414-0.243,0.712h-0.776c0.015-0.538,0.176-0.948,0.483-1.234
					c0.31-0.284,0.7-0.426,1.176-0.426c0.512,0,0.915,0.142,1.204,0.424c0.291,0.283,0.435,0.659,0.435,1.132
					c0,0.337-0.085,0.662-0.257,0.975c-0.173,0.313-0.376,0.592-0.615,0.842c-0.237,0.248-0.541,0.532-0.907,0.858l-0.318,0.283
					h2.24v0.669h-3.434v-0.586L128.509,431.394z"/>
				<path fill="#FFFFFF" d="M132.583,431.394c0.451-0.394,0.808-0.714,1.07-0.966c0.261-0.25,0.478-0.515,0.652-0.785
					c0.174-0.276,0.261-0.547,0.261-0.821c0-0.281-0.067-0.504-0.202-0.664c-0.133-0.157-0.344-0.238-0.633-0.238
					c-0.277,0-0.492,0.088-0.646,0.264c-0.151,0.176-0.234,0.414-0.244,0.712h-0.776c0.013-0.538,0.175-0.948,0.482-1.234
					c0.309-0.284,0.701-0.426,1.176-0.426c0.513,0,0.915,0.142,1.204,0.424c0.289,0.283,0.435,0.659,0.435,1.132
					c0,0.337-0.086,0.662-0.257,0.975c-0.173,0.313-0.377,0.592-0.615,0.842c-0.238,0.248-0.541,0.532-0.908,0.858l-0.318,0.283
					h2.24v0.669h-3.432v-0.586L132.583,431.394z"/>
			</g>
		</g>
	</g>
</g>
<g>
	<g>
		<path fill="#FFFFFF" stroke="#FFFFFF" stroke-miterlimit="10" d="M307.562,380.025l-7.203,4.554
			c-2.207-2.815-4.18-6.14-5.919-9.977c-1.738-3.835-3.022-7.768-3.85-11.796c-1.159,3.808-2.896,7.838-5.216,12.086
			c-2.098,3.864-4.002,6.761-5.711,8.693l-6.706-4.554c4.47-5.244,7.947-11.452,10.431-18.628
			c2.869-8.279,4.306-17.605,4.306-27.981h4.801c1.269,0,2.139,0.111,2.607,0.33c0.468,0.222,0.704,0.526,0.704,0.912
			c0,0.166-0.07,0.552-0.208,1.158c-0.138,0.608-0.207,1.022-0.207,1.243c0,11.646,1.187,21.193,3.561,28.644
			C300.883,370.782,303.752,375.886,307.562,380.025z M320.807,390.539h-7.617v-30.383h-12.666v-7.451h12.666V330.27h7.617V390.539z
			 M335.542,396.914h-7.699v-70.7h7.699V396.914z"/>
		<path fill="#FFFFFF" stroke="#FFFFFF" stroke-miterlimit="10" d="M396.225,348.98c0,4.802-1.601,8.914-4.801,12.335
			c-3.477,3.753-8.113,5.629-13.908,5.629s-10.459-1.875-13.991-5.629c-3.257-3.477-4.884-7.617-4.884-12.417
			c0-4.691,1.627-8.748,4.884-12.17c3.532-3.697,8.196-5.546,13.991-5.546c5.74,0,10.375,1.849,13.908,5.546
			C394.623,340.095,396.225,344.179,396.225,348.98z M388.526,348.98c0-3.09-0.967-5.601-2.899-7.534
			c-1.932-1.931-4.608-2.897-8.029-2.897c-3.533,0-6.25,0.924-8.155,2.772c-1.903,1.85-2.855,4.375-2.855,7.576
			c0,3.201,0.952,5.782,2.855,7.74c1.904,1.96,4.622,2.939,8.155,2.939c3.365,0,6.029-0.979,7.989-2.939
			C387.546,354.68,388.526,352.126,388.526,348.98z M421.972,393.437h-55.136v-20.034h7.864v12.667h47.271L421.972,393.437
			L421.972,393.437z M418.909,377.789h-8.196v-51.575h8.196V377.789z"/>
		<path fill="#FFFFFF" stroke="#FFFFFF" stroke-miterlimit="10" d="M508.979,390.291h-71.03v-7.368h71.03V390.291z M499.046,369.842
			h-51.742V334.41h51.742v7.037h-43.96v7.119h42.966v6.623h-42.966v7.451h43.96V369.842z"/>
		<path fill="#FFFFFF" stroke="#FFFFFF" stroke-miterlimit="10" d="M592.428,388.965h-71.114v-7.283h71.114V388.965z
			 M589.033,357.424l-4.966,6.872c-4.195-0.994-8.831-3.146-13.91-6.458c-5.96-3.918-10.293-8.167-12.996-12.748
			c-2.814,4.305-7.119,8.361-12.915,12.17c-4.967,3.256-9.823,5.602-14.569,7.036l-5.465-6.623
			c7.064-1.71,13.383-4.719,18.959-9.025c6.622-5.132,9.934-10.596,9.934-16.391h4.967c1.435,0,2.36,0.083,2.774,0.248
			c0.414,0.166,0.621,0.497,0.621,0.994c0,0.165-0.071,0.552-0.207,1.159c-0.139,0.607-0.208,1.021-0.208,1.242
			c0,3.973,3.313,8.334,9.936,13.08C577.058,353.341,583.073,356.155,589.033,357.424z"/>
		<path fill="#FFFFFF" stroke="#FFFFFF" stroke-miterlimit="10" d="M651.62,376.134c-5.74,1.546-12.902,2.898-21.483,4.057
			c-8.583,1.158-15.991,1.738-22.228,1.738v-48.265h34.107v7.616H615.94v10.845h25.332v7.203H615.94v14.901
			c4.248,0,9.781-0.468,16.599-1.407c6.815-0.938,13.011-2.124,18.586-3.56L651.62,376.134z M676.374,365.951h-11.426v31.377h-8.196
			v-70.7h8.196v31.873h11.426V365.951z"/>
		<path fill="#FFFFFF" stroke="#FFFFFF" stroke-miterlimit="10" d="M697.484,366.531l-1.656,0.662
			c-0.662-0.994-1.406-1.931-2.234-2.814c-1.05-1.103-2.348-2.318-3.893-3.643c3.697-0.993,7.589-2.744,11.674-5.257
			c4.084-2.511,7.285-5.092,9.604-7.74l-17.386,1.655c-0.331,0.111-0.856,0.373-1.573,0.786c-0.718,0.414-1.242,0.621-1.572,0.621
			c-0.662,0-1.298-0.799-1.904-2.401l-2.153-6.54c2.924,0,7.782-0.192,14.571-0.58c6.788-0.385,11.506-0.579,14.155-0.579
			c0.387-0.606,0.718-1.296,0.994-2.07c0.11-0.386,0.331-1.242,0.662-2.566h-24.422v-7.202h33.363
			c0,6.733-1.463,12.749-4.388,18.047c-2.483,4.525-6.016,8.555-10.597,12.086c-3.588,2.76-7.783,5.189-12.584,7.286h49.591v17.386
			H705.35v4.885h44.788v6.29h-52.818V377.54h42.222v-5.049h-42.057V366.531L697.484,366.531z M759.408,351.05h-11.674v12.418h-8.196
			V326.38h8.196v17.219h11.674V351.05z"/>
		<path fill="#FFFFFF" stroke="#FFFFFF" stroke-miterlimit="10" d="M815.123,381.266c-4.416,1.05-11.122,2.003-20.117,2.858
			c-8.995,0.855-15.619,1.283-19.868,1.283v-32.038h25.498v-11.674h-25.331v-7.616h33.279v26.491h-25.416v17.137
			c3.809,0,8.664-0.303,14.57-0.911c5.904-0.606,11.453-1.379,16.641-2.318L815.123,381.266z M832.839,396.914h-8.195v-70.7h8.195
			V396.914z"/>
		<path fill="#FFFFFF" stroke="#FFFFFF" stroke-miterlimit="10" d="M899.482,379.362c-0.992,0.718-1.959,1.504-2.897,2.36
			c-0.939,0.856-2.125,2.027-3.559,3.519c-3.367-2.925-6.499-6.637-9.398-11.136c-2.897-4.497-5.063-9.01-6.497-13.536
			c-3.643,9.383-9.824,17.58-18.545,24.589c-1.158-1.326-2.098-2.321-2.814-2.982c-1.05-0.938-2.347-1.792-3.891-2.566
			c6.346-4.027,11.548-9.506,15.604-16.433c4.057-6.926,6.085-13.921,6.085-20.986h-16.723v-7.534h39.157v7.534H881.27
			c0,7.12,1.683,14.02,5.05,20.696C889.52,369.291,893.908,374.783,899.482,379.362z M915.625,397.328h-8.196v-70.7h8.196V397.328z"
			/>
	</g>
	<g>
		<path fill="#FFFFFF" stroke="#FFFFFF" stroke-miterlimit="10" d="M283.347,428.58c1.575,2.407,4.042,5.201,8.233,5.201
			c3.001,0,5.289-1.219,5.289-4.667c0-2.91-1.783-3.863-6.389-5.201c-3.299-0.979-6.866-2.467-6.866-6.329
			c0-2.496,1.576-5.41,6.36-5.41c2.14,0,3.418,0.804,4.191,0.804c0.148,0,0.267,0,0.357-0.06l1.456-0.535l1.933,5.349l-0.446,0.298
			c-1.754-2.941-4.16-5.111-7.608-5.111c-2.408,0-4.636,1.1-4.636,4.161c0,3.15,2.912,4.34,6.063,5.2
			c4.013,1.101,7.281,2.467,7.281,6.271c0,4.189-3.091,5.975-6.895,5.975c-2.111,0-3.982-0.952-4.666-0.952
			c-0.654,0-1.516,0.417-2.17,0.892l-2.08-5.646L283.347,428.58z"/>
		<path fill="#FFFFFF" stroke="#FFFFFF" stroke-miterlimit="10" d="M312.771,412.145l7.34,18.991c0.536,1.635,1.398,2.17,2.973,2.17
			v0.742h-7.548v-0.742c1.96,0,2.853-0.238,2.853-1.159c0-0.237-0.059-0.535-0.178-0.892l-1.931-4.993h-8.947l-1.606,4.309
			c-0.178,0.565-0.297,1.012-0.297,1.367c0,1.069,0.862,1.367,2.824,1.367v0.742h-6.479v-0.742c1.634,0,2.229-0.388,3.149-3.092
			l6.211-17.385L312.771,412.145z M311.701,414.165l-4.072,11.234h8.321L311.701,414.165z"/>
		<path fill="#FFFFFF" stroke="#FFFFFF" stroke-miterlimit="10" d="M325.762,412.68h8.024v0.741c-2.319,0-3.09,0.447-3.09,1.934
			v16.196c0,1.189,0.771,1.754,3.09,1.754v0.742h-8.024v-0.742c2.318,0,3.09-0.564,3.09-1.754v-16.196
			c0-1.486-0.772-1.934-3.09-1.934V412.68z"/>
		<path fill="#FFFFFF" stroke="#FFFFFF" stroke-miterlimit="10" d="M336.461,434.048v-0.742c2.111,0,2.823-0.565,2.823-2.051
			v-15.779c0-1.487-0.714-2.053-2.823-2.053v-0.741h4.012l13.553,17.891V415.06c0-1.159-0.773-1.636-3.091-1.636v-0.742h6.806v0.742
			c-1.961,0-2.854,0.506-2.854,1.636v19.139h-0.476l-14.236-18.961v16.019c0,1.485,0.654,2.051,3.091,2.051v0.742L336.461,434.048
			L336.461,434.048z"/>
		<path fill="#FFFFFF" stroke="#FFFFFF" stroke-miterlimit="10" d="M366.392,434.078v-0.744c1.842,0,3.358-0.147,3.358-1.633
			v-16.524c0-1.249-0.595-1.724-2.496-1.724c-3.834,0-5.379,2.288-6.688,4.397l-0.416-0.237l1.724-4.903h17.624l1.753,5.112
			l-0.505,0.207c-1.426-2.378-2.467-4.576-6.152-4.576c-2.05,0-3,0.475-3,1.724v16.524c0,1.486,1.188,1.633,3.357,1.633v0.744
			H366.392L366.392,434.078z"/>
		<path fill="#FFFFFF" stroke="#FFFFFF" stroke-miterlimit="10" d="M394.718,428.58c1.575,2.407,4.042,5.201,8.232,5.201
			c3.002,0,5.29-1.219,5.29-4.667c0-2.91-1.784-3.863-6.39-5.201c-3.299-0.979-6.865-2.467-6.865-6.329
			c0-2.496,1.575-5.41,6.36-5.41c2.14,0,3.418,0.804,4.191,0.804c0.148,0,0.268,0,0.356-0.06l1.457-0.535l1.932,5.349l-0.446,0.298
			c-1.753-2.941-4.161-5.111-7.608-5.111c-2.408,0-4.636,1.1-4.636,4.161c0,3.15,2.913,4.34,6.063,5.2
			c4.012,1.101,7.281,2.467,7.281,6.271c0,4.189-3.091,5.975-6.896,5.975c-2.109,0-3.981-0.952-4.666-0.952
			c-0.654,0-1.515,0.417-2.169,0.892l-2.08-5.646L394.718,428.58z"/>
		<path fill="#FFFFFF" stroke="#FFFFFF" stroke-miterlimit="10" d="M419.595,434.078v-0.744c1.842,0,3.358-0.147,3.358-1.633
			v-16.524c0-1.249-0.595-1.724-2.496-1.724c-3.835,0-5.379,2.288-6.688,4.397l-0.416-0.237l1.724-4.903h17.624l1.754,5.112
			l-0.506,0.207c-1.426-2.378-2.467-4.576-6.151-4.576c-2.05,0-3.002,0.475-3.002,1.724v16.524c0,1.486,1.188,1.633,3.358,1.633
			v0.744H419.595L419.595,434.078z"/>
		<path fill="#FFFFFF" stroke="#FFFFFF" stroke-miterlimit="10" d="M447.652,412.145l7.342,18.991
			c0.534,1.635,1.396,2.17,2.972,2.17v0.742h-7.548v-0.742c1.961,0,2.853-0.238,2.853-1.159c0-0.237-0.06-0.535-0.178-0.892
			l-1.931-4.993h-8.946l-1.604,4.31c-0.179,0.565-0.297,1.012-0.297,1.367c0,1.07,0.862,1.367,2.823,1.367v0.742h-6.478v-0.742
			c1.633,0,2.229-0.388,3.149-3.091l6.212-17.386L447.652,412.145z M446.583,414.165l-4.072,11.234h8.322L446.583,414.165z"/>
		<path fill="#FFFFFF" stroke="#FFFFFF" stroke-miterlimit="10" d="M460.197,434.048v-0.742c2.229,0,2.823-0.685,2.823-2.111
			v-15.988c0-1.309-0.594-1.784-2.823-1.784v-0.741h9.66c4.606,0,6.984,2.229,6.984,5.261c0,2.793-1.813,5.229-5.797,5.438
			l4.845,8.559c0.624,1.099,1.457,1.367,3.031,1.367v0.742h-4.011l-5.884-10.639h-4.132v7.785c0,1.427,0.773,2.111,2.854,2.111
			v0.742H460.197L460.197,434.048z M464.893,422.666h5.499c3.297,0,4.398-2.349,4.398-4.727c0-2.823-1.872-4.519-5.082-4.519h-2.645
			c-1.397,0-2.17,0.477-2.17,1.784V422.666z"/>
		<path fill="#FFFFFF" stroke="#FFFFFF" stroke-miterlimit="10" d="M509.475,428.282c-1.367,3.358-3.804,6.243-8.38,6.243
			c-5.172,0-9.393-4.014-9.393-11.295c0-6.003,3.418-11.057,8.886-11.057c1.962,0,2.796,0.357,4.191,0.804l2.109-0.684l2.052,5.438
			l-0.477,0.238c-1.338-1.961-3.894-5.052-7.815-5.052c-4.191,0-6.925,4.428-6.925,10.313c0,5.646,3.299,9.807,8.054,9.807
			c3.031,0,5.32-1.455,7.163-4.992L509.475,428.282z"/>
		<path fill="#FFFFFF" stroke="#FFFFFF" stroke-miterlimit="10" d="M531.441,423.379c0,5.588-3.092,11.146-9.51,11.146
			c-6.152,0-9.214-5.558-9.214-11.146c0-5.618,3.062-11.205,9.214-11.205C528.35,412.174,531.441,417.762,531.441,423.379z
			 M514.71,423.379c0,5.201,2.405,10.402,7.222,10.402c5.05,0,7.458-5.201,7.458-10.402c0-5.202-2.408-10.432-7.458-10.432
			C517.115,412.948,514.71,418.178,514.71,423.379z"/>
		<path fill="#FFFFFF" stroke="#FFFFFF" stroke-miterlimit="10" d="M534.475,434.048v-0.742c2.259,0,2.823-0.685,2.823-1.902
			v-16.138c0-1.397-0.564-1.844-2.823-1.844v-0.741h7.788v0.741c-2.557,0-3.092,0.446-3.092,1.844v16.138
			c0,1.218,0.535,1.902,2.201,1.902h3.06c2.854,0,5.349-1.813,6.985-4.726l0.563,0.297l-2.17,5.171H534.475z"/>
		<path fill="#FFFFFF" stroke="#FFFFFF" stroke-miterlimit="10" d="M554.271,434.048v-0.742c2.256,0,2.821-0.685,2.821-1.902
			v-16.138c0-1.397-0.565-1.844-2.821-1.844v-0.741h7.785v0.741c-2.556,0-3.089,0.446-3.089,1.844v16.138
			c0,1.218,0.533,1.902,2.197,1.902h3.062c2.853,0,5.351-1.813,6.984-4.726l0.565,0.297l-2.171,5.171H554.271z"/>
		<path fill="#FFFFFF" stroke="#FFFFFF" stroke-miterlimit="10" d="M574.065,434.048v-0.742c2.021,0,2.824-0.624,2.824-2.051
			v-15.931c0-1.366-0.804-1.902-2.824-1.902v-0.741h15.604l2.081,5.051l-0.446,0.298c-1.487-1.812-2.674-4.607-7.281-4.607h-2.913
			c-1.543,0-2.348,0.536-2.348,1.902v7.164h4.519c2.079,0,3.21-0.893,3.21-3.714h0.713v8.32h-0.713c0-2.645-1.131-3.805-3.21-3.805
			h-4.519v7.965c0,1.428,0.805,2.051,2.378,2.051h2.794c3.447,0,5.557-1.428,7.937-4.726l0.532,0.237l-2.02,5.23H574.065
			L574.065,434.048z"/>
		<path fill="#FFFFFF" stroke="#FFFFFF" stroke-miterlimit="10" d="M615.14,424.39v0.772c-1.872,0-2.465,0.713-2.465,2.111v6.775
			h-1.338l-0.505-1.545c-1.278,0.831-2.973,2.021-5.796,2.021c-5.646,0-9.361-3.864-9.361-11.146c0-6.538,3.892-11.206,9.479-11.206
			c1.812,0,3.3,0.358,3.981,0.625l2.407-0.593l2.051,5.318l-0.476,0.207c-1.575-2.02-3.923-4.813-7.815-4.813
			c-4.28,0-7.608,4.34-7.608,10.313c0,7.134,3.625,10.551,7.341,10.551c3.211,0,5.796-2.378,5.796-4.191v-2.317
			c0-1.397-0.623-2.111-3.299-2.111v-0.771H615.14L615.14,424.39z"/>
		<path fill="#FFFFFF" stroke="#FFFFFF" stroke-miterlimit="10" d="M617.402,434.048v-0.742c2.021,0,2.822-0.624,2.822-2.051
			v-15.931c0-1.366-0.802-1.902-2.822-1.902v-0.741h15.602l2.081,5.051l-0.445,0.298c-1.487-1.812-2.675-4.607-7.281-4.607h-2.913
			c-1.545,0-2.347,0.536-2.347,1.902v7.164h4.518c2.08,0,3.208-0.893,3.208-3.714h0.715v8.32h-0.715
			c0-2.645-1.128-3.805-3.208-3.805h-4.518v7.965c0,1.428,0.802,2.051,2.378,2.051h2.792c3.448,0,5.559-1.428,7.936-4.726
			l0.534,0.237l-2.02,5.23H617.402L617.402,434.048z"/>
		<path fill="#FFFFFF" stroke="#FFFFFF" stroke-miterlimit="10" d="M648.491,434.048v-0.742c2.229,0,2.824-0.565,2.824-1.932
			v-16.257c0-1.159-0.505-1.695-2.824-1.695v-0.741h7.549v0.741c-2.169,0-2.853,0.536-2.853,1.695v7.52h11.62v-7.52
			c0-1.159-0.802-1.695-2.853-1.695v-0.741h7.549v0.741c-2.141,0-2.852,0.536-2.852,1.695v16.257c0,1.366,0.711,1.932,2.852,1.932
			v0.742h-7.549v-0.742c2.051,0,2.853-0.565,2.853-1.932v-7.995h-11.62v7.995c0,1.366,0.655,1.932,2.853,1.932v0.742H648.491z"/>
		<path fill="#FFFFFF" stroke="#FFFFFF" stroke-miterlimit="10" d="M671.855,412.68h7.549v0.741c-2.111,0-2.854,0.536-2.854,1.784
			v12.215c0,3.626,2.734,6.122,6.598,6.122c2.824,0,6.271-1.308,6.271-6.241v-12.096c0-1.248-0.625-1.784-2.854-1.784v-0.741h6.538
			v0.741c-2.228,0-2.852,0.536-2.852,1.784v12.274c0,4.786-3.24,7.045-8.025,7.045c-3.953,0-7.55-2.23-7.55-7.431v-11.888
			c0-1.248-0.533-1.784-2.821-1.784V412.68L671.855,412.68z"/>
		<path fill="#FFFFFF" stroke="#FFFFFF" stroke-miterlimit="10" d="M695.454,434.048v-0.742c2.199,0,2.824-0.595,2.824-2.051
			v-16.196c0-1.189-0.685-1.636-2.824-1.636v-0.741h5.349l6.984,18.633l6.954-18.633h5.527v0.741c-2.376,0-2.853,0.477-2.853,1.636
			v16.196c0,1.309,0.625,2.051,2.853,2.051v0.742h-7.518v-0.742c2.169,0,2.823-0.742,2.823-2.051v-17.563h-0.326l-7.699,20.566
			h-0.475l-7.608-20.15h-0.356v17.148c0,1.456,0.655,2.051,2.854,2.051v0.742L695.454,434.048L695.454,434.048z"/>
		<path fill="#FFFFFF" stroke="#FFFFFF" stroke-miterlimit="10" d="M733.558,412.145l7.342,18.991
			c0.533,1.635,1.397,2.17,2.972,2.17v0.742h-7.549v-0.742c1.963,0,2.854-0.238,2.854-1.159c0-0.237-0.06-0.535-0.18-0.892
			l-1.932-4.993h-8.944l-1.605,4.31c-0.178,0.565-0.297,1.012-0.297,1.367c0,1.07,0.862,1.367,2.823,1.367v0.742h-6.479v-0.742
			c1.634,0,2.227-0.388,3.15-3.091l6.212-17.386L733.558,412.145z M732.488,414.165l-4.072,11.234h8.322L732.488,414.165z"/>
		<path fill="#FFFFFF" stroke="#FFFFFF" stroke-miterlimit="10" d="M746.102,434.048v-0.742c2.109,0,2.822-0.565,2.822-2.051
			v-15.779c0-1.487-0.713-2.053-2.822-2.053v-0.741h4.012l13.553,17.891V415.06c0-1.159-0.774-1.636-3.091-1.636v-0.742h6.805v0.742
			c-1.961,0-2.854,0.506-2.854,1.636v19.139h-0.474l-14.237-18.961v16.019c0,1.485,0.655,2.051,3.093,2.051v0.742L746.102,434.048
			L746.102,434.048z"/>
		<path fill="#FFFFFF" stroke="#FFFFFF" stroke-miterlimit="10" d="M780.847,428.58c1.576,2.407,4.042,5.201,8.234,5.201
			c3.001,0,5.289-1.219,5.289-4.667c0-2.91-1.783-3.863-6.389-5.201c-3.3-0.979-6.866-2.467-6.866-6.329
			c0-2.496,1.575-5.41,6.359-5.41c2.14,0,3.419,0.804,4.191,0.804c0.149,0,0.268,0,0.356-0.06l1.456-0.535l1.933,5.349l-0.444,0.298
			c-1.756-2.941-4.162-5.111-7.608-5.111c-2.408,0-4.638,1.1-4.638,4.161c0,3.15,2.914,4.34,6.064,5.2
			c4.011,1.101,7.278,2.467,7.278,6.271c0,4.189-3.089,5.975-6.894,5.975c-2.111,0-3.982-0.952-4.666-0.952
			c-0.653,0-1.517,0.417-2.17,0.892l-2.08-5.646L780.847,428.58z"/>
		<path fill="#FFFFFF" stroke="#FFFFFF" stroke-miterlimit="10" d="M817.643,428.282c-1.366,3.358-3.803,6.243-8.379,6.243
			c-5.172,0-9.393-4.014-9.393-11.295c0-6.003,3.417-11.057,8.886-11.057c1.963,0,2.795,0.357,4.191,0.804l2.108-0.684l2.053,5.438
			l-0.477,0.238c-1.337-1.961-3.894-5.052-7.816-5.052c-4.189,0-6.925,4.428-6.925,10.313c0,5.646,3.299,9.807,8.054,9.807
			c3.032,0,5.319-1.455,7.164-4.992L817.643,428.282z"/>
		<path fill="#FFFFFF" stroke="#FFFFFF" stroke-miterlimit="10" d="M820.795,412.68h8.025v0.741c-2.319,0-3.092,0.447-3.092,1.934
			v16.196c0,1.189,0.773,1.754,3.092,1.754v0.742h-8.025v-0.742c2.318,0,3.09-0.564,3.09-1.754v-16.196
			c0-1.486-0.772-1.934-3.09-1.934V412.68z"/>
		<path fill="#FFFFFF" stroke="#FFFFFF" stroke-miterlimit="10" d="M831.495,434.048v-0.742c2.021,0,2.824-0.624,2.824-2.051
			v-15.931c0-1.366-0.804-1.902-2.824-1.902v-0.741h15.604l2.081,5.051l-0.447,0.298c-1.485-1.812-2.674-4.607-7.28-4.607h-2.913
			c-1.544,0-2.348,0.536-2.348,1.902v7.164h4.518c2.08,0,3.21-0.893,3.21-3.714h0.713v8.32h-0.713c0-2.645-1.13-3.805-3.21-3.805
			h-4.518v7.965c0,1.428,0.804,2.051,2.378,2.051h2.794c3.448,0,5.558-1.428,7.937-4.726l0.532,0.237l-2.021,5.23H831.495
			L831.495,434.048z"/>
		<path fill="#FFFFFF" stroke="#FFFFFF" stroke-miterlimit="10" d="M852.539,434.048v-0.742c2.111,0,2.824-0.565,2.824-2.051
			v-15.779c0-1.487-0.713-2.053-2.824-2.053v-0.741h4.012l13.553,17.891V415.06c0-1.159-0.772-1.636-3.091-1.636v-0.742h6.806v0.742
			c-1.962,0-2.853,0.506-2.853,1.636v19.139h-0.475l-14.237-18.961v16.019c0,1.485,0.654,2.051,3.092,2.051v0.742L852.539,434.048
			L852.539,434.048z"/>
		<path fill="#FFFFFF" stroke="#FFFFFF" stroke-miterlimit="10" d="M894.387,428.282c-1.367,3.358-3.804,6.243-8.381,6.243
			c-5.172,0-9.391-4.014-9.391-11.295c0-6.003,3.418-11.057,8.887-11.057c1.962,0,2.792,0.357,4.189,0.804l2.111-0.684l2.051,5.438
			l-0.476,0.238c-1.338-1.961-3.894-5.052-7.816-5.052c-4.191,0-6.926,4.428-6.926,10.313c0,5.646,3.299,9.807,8.054,9.807
			c3.032,0,5.319-1.455,7.164-4.992L894.387,428.282z"/>
		<path fill="#FFFFFF" stroke="#FFFFFF" stroke-miterlimit="10" d="M897.094,434.048v-0.742c2.021,0,2.824-0.624,2.824-2.051
			v-15.931c0-1.366-0.805-1.902-2.824-1.902v-0.741h15.603l2.082,5.051l-0.446,0.298c-1.486-1.812-2.674-4.607-7.281-4.607h-2.912
			c-1.545,0-2.348,0.536-2.348,1.902v7.164h4.516c2.081,0,3.211-0.893,3.211-3.714h0.714v8.32h-0.714
			c0-2.645-1.13-3.805-3.211-3.805h-4.516v7.965c0,1.428,0.803,2.051,2.376,2.051h2.795c3.448,0,5.557-1.428,7.937-4.726
			l0.532,0.237l-2.021,5.23H897.094L897.094,434.048z"/>
	</g>
</g>
<g id="Layer_3" display="none">
	<rect x="2.5" y="141.5" display="inline" fill="#191160" width="1021.5" height="487"/>
</g>
</svg>
