<?xml version="1.0" encoding="utf-8"?>
<!-- Generator: Adobe Illustrator 16.0.0, SVG Export Plug-In . SVG Version: 6.00 Build 0)  -->
<!DOCTYPE svg PUBLIC "-//W3C//DTD SVG 1.1//EN" "http://www.w3.org/Graphics/SVG/1.1/DTD/svg11.dtd">
<svg version="1.1" xmlns="http://www.w3.org/2000/svg" xmlns:xlink="http://www.w3.org/1999/xlink" x="0px" y="0px" width="1024px"
	 height="768px" viewBox="0 0 1024 768" enable-background="new 0 0 1024 768" xml:space="preserve">
<g id="Layer_1" display="none">
	<title>major_Artboard 2</title>
	<path display="inline" d="M31.991,432.429c-1.052,0.784-1.27,2.271-0.486,3.323c0.783,1.052,2.271,1.27,3.323,0.486
		c0.098-0.073,0.19-0.153,0.276-0.241c1.056-0.845,1.231-2.384,0.394-3.445c-0.918-1.001-2.475-1.069-3.477-0.15
		C32.011,432.41,32,432.42,31.991,432.429z"/>
	<path display="inline" d="M132.294,461.787c1.124-0.581,1.578-1.953,1.021-3.089c-0.543-1.128-1.892-1.61-3.027-1.083
		c-1.115,0.552-1.571,1.902-1.021,3.017c0.004,0.008,0.008,0.016,0.012,0.023C129.809,461.789,131.149,462.293,132.294,461.787z"/>
	<path display="inline" d="M98.224,285.739c-54.268,0-98.261,43.993-98.261,98.261s43.993,98.261,98.261,98.261
		s98.261-43.993,98.261-98.261c0-0.004,0-0.008,0-0.013C196.431,329.744,152.467,285.787,98.224,285.739z M178.902,341.526
		l0.59-0.308l2.609,5.241l-0.603,0.246c-0.468-0.996-0.702-1.354-1.538-0.972c0,0-8.92,4.404-9.917,4.922
		c-0.997,0.517-0.369,1.414,0.074,2.264l-0.591,0.246l-2.781-5.636l0.591-0.271c0.517,0.997,0.738,1.415,1.55,1.009l9.917-4.922
		C179.825,342.83,178.902,341.526,178.902,341.526z M166.721,336.765l0.086-1.07c0.16-2.461,0.8-3.926,2.141-4.849
		c1.772-1.23,4.023-0.554,5.524,1.588c0.636,0.764,1.038,1.695,1.157,2.682l-2.535,1.748l-0.443-0.689
		c0.497-0.26,0.876-0.7,1.058-1.23c0.232-0.688,0.103-1.446-0.345-2.018c-0.441-0.881-1.514-1.237-2.395-0.796
		c-0.056,0.028-0.111,0.061-0.165,0.095c-0.59,0.405-0.923,0.972-1.034,2.989v0.64c-0.172,2.892-0.75,4.258-2.239,5.291
		c-1.106,0.777-2.538,0.922-3.777,0.382c-0.972-0.435-1.788-1.156-2.338-2.067c-0.715-0.879-1.121-1.969-1.156-3.101l2.928-1.993
		l0.406,0.627c-0.348,0.316-0.677,0.653-0.984,1.01c-0.721,0.866-0.721,2.123,0,2.989c0.52,1.001,1.753,1.391,2.754,0.87
		c0.042-0.021,0.084-0.045,0.125-0.07C166.106,339.274,166.623,338.646,166.721,336.765z M158.92,314.826l3.9,3.888
		c0.92,0.792,1.581,1.842,1.895,3.015c0.165,1.017-0.175,2.049-0.911,2.769c-1.071,1.107-2.461,1.477-4.614,1.23l-0.098,0.923
		c-0.237,1.738-0.385,3.488-0.443,5.241c-0.065,0.79,0.125,1.579,0.542,2.252l0.308,0.406l-0.431,0.431l-1.329-1.255
		c-0.55-0.465-0.974-1.063-1.23-1.735c-0.228-1.254-0.186-2.541,0.123-3.777l0.517-3.162l-1.23-1.23l-2.953,2.978
		c-0.775,0.813,0.123,1.464,0.75,2.116l-0.431,0.455l-4.405-4.367l0.492-0.505c0.812,0.8,1.156,1.107,1.809,0.455l7.776-7.838
		c0.837-0.849-0.467-1.809-0.467-1.809L158.92,314.826z M145.275,305.241l7.629,5.106l-1.563,2.461l-0.554-0.382
		c0.529-0.8,0.874-1.366-0.172-2.092c-0.456-0.319-2.227-1.477-2.227-1.477l-2.719,3.95l2.264,1.501
		c0.763,0.529,0.96,0.319,1.501-0.517l0.554,0.369l-2.141,3.198l-0.566-0.381c0.566-0.775,0.713-1.07,0-1.6l-2.264-1.525l0,0
		l-3.15,4.749l2.461,1.6c0.775,0.541,1.513,0.431,2.301-0.701l0.554,0.356l-1.772,2.608l-7.751-5.192l0.381-0.615
		c0.898,0.615,1.23,0.973,2.08-0.271l5.697-8.613c0.75-1.082-0.308-1.686-0.849-2.042L145.275,305.241z M127.52,296.628l4.922,2.177
		l-0.283,0.615l-0.492-0.221c-0.136-0.097-0.319-0.097-0.455,0c-0.135,0.135-0.111,0.394-0.135,0.504l-0.074,2.03
		c-0.099,2.215-0.345,7.309-0.357,7.69l2.559-2.535l3.938-3.986c0.226-0.232,0.409-0.504,0.542-0.8c0-0.147-0.099-0.308-0.259-0.394
		l-0.479-0.209l0.258-0.64l4.294,1.833l-0.16,0.688l-0.468-0.233c-0.629-0.185-1.308-0.03-1.796,0.406l-2.682,2.461l-7.542,6.977
		l-0.554-0.296l0.197-13.239c0.054-0.529-0.031-1.063-0.246-1.55c-0.264-0.276-0.583-0.494-0.935-0.64L127.52,296.628z
		 M113.69,307.247c1.107,0.233,1.575,0.308,1.796-0.579c0,0,2.35-10.212,2.461-10.741c0.258-1.156-1.354-1.316-1.354-1.316
		l0.172-0.627l5.672,1.316l-0.147,0.665c-1.107-0.283-1.55-0.369-1.747,0.554c0,0-2.24,9.684-2.461,10.729
		c-0.222,1.046,0.849,1.23,1.759,1.427l-0.147,0.615l-6.127-1.402L113.69,307.247z M93.45,305.426c0.836,0,1.673,0.185,1.759-1.378
		s0.763-12.157,0.763-12.157l0.874,0.074l9.241,10.767c0,0,0.406-6.669,0.48-8.146c0.074-1.477-1.046-1.391-1.76-1.464v-0.652
		l4.86,0.295v0.689c-0.775,0-1.501-0.185-1.6,1.23c-0.099,1.415-0.714,12.169-0.714,12.169h-0.959l-9.191-10.57l-0.467,7.813
		c-0.111,1.661,1.083,1.575,2.018,1.6v0.689l-5.278-0.296L93.45,305.426z M78.747,294.204l0.135,0.652
		c-1.132,0.222-1.538,0.345-1.366,1.23l1.23,6.251c0.554,2.879,1.415,3.69,2.227,4.084c0.713,0.381,1.54,0.485,2.325,0.296
		c0.897-0.174,1.694-0.685,2.228-1.428c0.738-1.144,0.492-2.682,0.123-4.613c0,0-1.23-5.771-1.23-5.98
		c-0.222-1.23-1.772-0.627-1.772-0.627l-0.135-0.64l4.921-0.984l0.135,0.652c-1.12,0.209-1.538,0.308-1.366,1.23l1.132,5.66
		c0.431,2.116,0.652,4.282-0.665,5.955c-0.892,1.114-2.162,1.863-3.568,2.104c-1.475,0.365-3.031,0.195-4.393-0.48
		c-1.329-0.775-2.178-2.227-2.633-4.564c0,0-1.23-6.152-1.23-6.411c-0.234-1.144-1.772-0.603-1.772-0.603l-0.123-0.64
		L78.747,294.204z M58.162,301.328l0.32,0.591c-1.009,0.517-1.39,0.738-0.984,1.563c0,0,4.553,8.871,5.057,9.844
		c0.504,0.972,1.378,0.369,2.215-0.074l0.308,0.591l-5.574,2.83l-0.295-0.542c0.972-0.504,1.415-0.8,0.972-1.587
		c0,0-4.774-9.302-5.033-9.843c-0.553-1.021-1.858-0.099-1.858-0.099l-0.308-0.591L58.162,301.328z M46.756,307.555l1.735,2.362
		l-0.504,0.431c-0.542-0.788-1.021-1.23-2.018-0.542l-2.141,1.588l2.83,3.839l2.203-1.661c0.75-0.529,0.566-0.824,0-1.588
		l0.542-0.381l2.276,3.015l-0.504,0.381c-0.578-0.787-0.8-0.996-1.563-0.431l-2.166,1.637l0,0l3.371,4.564
		c0,0,1.846-1.39,2.35-1.809c0.751-0.554,0.898-1.292,0.086-2.461l0.529-0.381l1.907,2.534l-7.493,5.611l-0.431-0.591
		c0.861-0.615,1.316-0.824,0.406-2.067c0,0-5.34-7.111-6.152-8.219s-1.71-0.234-2.202,0.123l-0.443-0.455L46.756,307.555z
		 M31.991,319.969c1.55-1.636,2.461-1.734,2.461-1.734l2.215,2.129l-0.554,0.554c-0.379-0.438-0.922-0.701-1.501-0.727
		c-0.722-0.09-1.44,0.192-1.907,0.751c-0.774,0.621-0.898,1.751-0.277,2.525c0.044,0.055,0.091,0.107,0.142,0.157
		c0.529,0.479,1.132,0.664,3.137,0.356c0.211-0.024,0.421-0.062,0.627-0.111c2.842-0.442,4.331-0.135,5.635,1.107
		c0.962,0.938,1.375,2.304,1.095,3.618c-0.207,1.017-0.718,1.948-1.464,2.67c-0.712,0.877-1.687,1.502-2.781,1.784l-2.547-2.461
		l0.492-0.517c0,0,0.874,0.615,1.23,0.75c0.991,0.554,2.237,0.314,2.953-0.565c0.893-0.755,1.004-2.091,0.249-2.982
		c-0.009-0.012-0.018-0.021-0.027-0.032c-0.904-0.761-2.132-1.011-3.261-0.665l-1.046,0.148c-2.461,0.344-3.999,0-5.18-1.083
		C30.047,324.214,30.182,321.852,31.991,319.969z M17.103,340.395l13.867-3.076c0,0-5.697-3.507-6.952-4.295
		c-1.255-0.787-1.759,0.246-2.153,0.874l-0.566-0.356l2.584-4.122l0.542,0.332c-0.406,0.664-0.861,1.23,0.369,2.018l10.385,6.423
		l-0.504,0.824l-13.646,3.102l6.706,4.134c1.415,0.849,1.895-0.222,2.387-1.033l0.566,0.369l-2.769,4.479l-0.59-0.369
		c0.443-0.714,0.959-1.366-0.369-2.228c-1.329-0.861-10.311-6.361-10.311-6.361L17.103,340.395z M18.198,410.011
		c-1.508,0.014-2.742-1.198-2.756-2.707c0-0.012,0-0.024,0-0.036c-0.102-1.52,1.047-2.833,2.566-2.935
		c1.519-0.102,2.832,1.047,2.934,2.566c0.008,0.122,0.008,0.245,0,0.368c0.014,1.501-1.193,2.729-2.695,2.743
		C18.231,410.011,18.214,410.011,18.198,410.011z M20.659,379.472l-0.627-0.086c0.086-0.923,0.123-1.55-1.07-1.648l-3.101-0.308
		c-0.641-0.09-1.294-0.009-1.895,0.233c-0.271,0.111-4.516,2.178-5.537,2.72c-0.532,0.274-1.011,0.641-1.415,1.082
		c-0.185,0.387-0.298,0.804-0.332,1.23H6.054l0.467-5.29l0.652,0.073c0,0,0,0.32,0,0.431v0.086c0.05,0.064,0.143,0.076,0.207,0.026
		c0.001,0,0.001-0.001,0.002-0.001c0.16,0,0.456-0.111,0.566-0.148c0.443-0.147,5.451-2.46,5.451-2.46s-4.282-2.892-4.553-3.052
		c-0.262-0.156-0.549-0.265-0.849-0.32c-0.172,0-0.332,0.087-0.332,0.222c0,0.136,0,0.48,0,0.48H6.977l0.406-4.737l0.665,0.073
		c0,0,0,0.332,0,0.518c-0.001,0.256,0.045,0.51,0.135,0.75c0.162,0.397,0.43,0.742,0.775,0.997c1.714,1.447,3.522,2.779,5.414,3.986
		c0.544,0.257,1.134,0.403,1.735,0.431c0,0,1.698,0.123,3.052,0.246s1.39-0.85,1.464-1.87h0.615L20.659,379.472z M15.048,365.716
		c-1.866-0.567-3.432-1.85-4.355-3.568c-0.913-1.881-1.023-4.052-0.308-6.017c0.551-2.025,1.877-3.754,3.691-4.811
		c1.661-0.812,3.583-0.904,5.315-0.259c3.927,1.096,6.222,5.168,5.126,9.096c-0.059,0.211-0.127,0.42-0.205,0.625
		c-1.012,3.823-4.932,6.102-8.755,5.089C15.386,365.826,15.216,365.774,15.048,365.716z M31.831,448.88l-7.998-9.179
		c0.086-0.123,2.842-2.461,2.842-2.461c0.406-0.369,0.591-0.911,0.406-1.12c0.074-0.097,0.156-0.188,0.246-0.271
		c0.098,0.136,2.067,2.387,2.067,2.387l-2.461,2.092l6.337,7.26L31.831,448.88z M34.956,445.89
		c-0.123-0.086-1.575-1.784-1.698-1.907c0.147-0.11,3.113-2.743,3.113-2.743s-1.415-1.625-2.141-2.461
		c-1.539,0.089-3.033-0.538-4.048-1.698c-1.7-1.759-1.652-4.563,0.107-6.264c1.759-1.699,4.563-1.651,6.264,0.107
		c0.128,0.133,0.249,0.274,0.36,0.423c0.907,1.029,1.352,2.386,1.23,3.752l2.387,2.695l0.431-0.394
		c0.406-0.357,0.603-0.923,0.406-1.12c0.083-0.091,0.178-0.169,0.283-0.233l2.042,2.338c-0.209,0.159-8.625,7.48-8.736,7.566V445.89
		z M56.242,458.92v-0.099l-0.074,0.074c-1.309,0.779-2.746,1.316-4.245,1.587l0,0c0-0.11-0.541-1.354-0.603-1.525
		c3.066-0.891,5.659-2.95,7.222-5.734l0,0c0.542-1.23-0.074-1.66-0.11-1.722l0.135-0.296c0.135,0,3.199,1.452,3.347,1.525
		c-0.902,2.021-2.309,3.775-4.085,5.095l0,0v0.135c0.827,1.435,1.468,2.969,1.907,4.565c-0.111,0.098-1.883,1.058-2.104,1.23
		c-0.19-1.659-0.661-3.273-1.391-4.774V458.92z M58.433,468.246c0.062-0.185,3.999-8.724,3.999-8.724l-2.461-1.119
		c0.074-0.147,0.751-1.674,0.813-1.797l2.46,1.107l1.23-2.694c0.234-0.492,0.209-1.033-0.074-1.23c0-0.074,0.111-0.197,0.16-0.295
		c0.049-0.099,2.559,1.23,2.559,1.23l0,0c-0.074,0.135-6.57,14.297-6.632,14.444c-0.062,0.148-1.907-0.849-2.055-0.861V468.246z
		 M63.748,470.707c-0.135-0.073-2.166-1.009-2.337-1.058c0.074-0.173,6.595-14.298,6.681-14.458c0.135,0,2.276,1.059,2.276,1.059
		l0,0c-0.037,0.185-6.57,14.334-6.619,14.481L63.748,470.707z M105.41,477.093h-2.547v-9.585h-1.145v9.585c-0.172,0-2.251,0-2.375,0
		v-3.101h-8.687v-11.073c0-0.542-0.271-1.046-0.578-1.046v-0.308h7.124v1.956h-3.974v8.416h6.152v-9.4c0-0.529-0.283-1.07-0.59-1.07
		v-0.308h2.978v4.355h1.145v-4.355h2.559L105.41,477.093z M127.2,461.688c-0.482-1.008-0.482-2.18,0-3.187l-1.575,0.738
		l-0.849-1.784l3.445-1.649v-0.073c-0.271-0.443-0.652-0.689-0.898-0.591l0,0l-0.147-0.308c0.147-0.099,2.83-1.378,2.83-1.378
		l0.591,1.23l3.224-1.575c0.062,0.185,0.75,1.674,0.812,1.809l-1.698,0.813c1.076,0.258,1.979,0.985,2.461,1.98
		c0.803,2.39-0.482,4.979-2.872,5.782c-1.976,0.664-4.152-0.095-5.286-1.845L127.2,461.688z M141.633,458.92
		c-0.16,0.099-2.19,1.059-2.313,1.12c0-0.136-3.347-6.965-3.347-6.965c-0.222-0.492-0.689-0.812-0.972-0.664
		c0-0.11-0.123-0.271-0.147-0.345c0.147,0,2.694-1.23,2.83-1.365c0.074,0.172,1.932,4.035,1.932,4.035l2.251-1.083
		c0.074,0.111,0.726,1.477,0.775,1.625c-0.16,0-2.264,1.082-2.264,1.082s1.12,2.412,1.255,2.522V458.92z M142.248,466.167
		c0-0.172-1.477-3.125-1.477-3.125l-9.609,4.65c-0.086-0.123-0.8-1.673-0.874-1.809c0.172,0,11.763-5.598,11.923-5.709
		c0.098,0.16,2.289,4.762,2.35,4.922c-0.148,0-2.141,0.972-2.301,1.033L142.248,466.167z M98.212,455.647
		c-39.549,0.013-71.621-32.037-71.635-71.586s32.036-71.621,71.585-71.635c39.544-0.014,71.614,32.029,71.635,71.573
		c0.02,39.528-32.008,71.59-71.537,71.61c-0.012,0-0.024,0-0.037,0L98.212,455.647z M164.654,448.757
		c-0.123-0.086-1.415-1.157-1.526-1.23l1.809-2.19l-3.224-2.694c-0.394-0.32-0.972-0.418-1.23-0.185
		c-0.086-0.079-0.176-0.152-0.271-0.222c0.111-0.135,1.723-2.067,1.809-2.202l4.307,3.568l0.849-1.009l-4.331-3.568
		c0.111-0.111,1.44-1.723,1.575-1.87c0.123,0.086,4.294,3.567,4.294,3.567s0.542-0.664,1.23-1.525l-8.293-6.878l-6.374,7.702
		c-0.123-0.123-1.39-1.156-1.538-1.23c0.123-0.11,8.022-9.621,8.022-9.621s7.751,6.435,9.843,8.12l0.984-1.23
		c0.135,0.099,1.403,1.23,1.538,1.23c-0.037,0.086-9.351,11.332-9.462,11.431L164.654,448.757z M174.264,365.384l-0.615,0.147
		l-1.784-6.004l0.652-0.209c0.295,1.106,0.443,1.537,1.329,1.229l10.914-3.211c-0.566-2.006-0.701-2.461-0.775-2.683
		c-0.332-1.23-1.034-1.23-2.005-1.021l-0.222-0.738l2.916-0.419l3.408,11.541l-2.67,1.23l-0.222-0.688
		c0.874-0.431,1.501-0.788,1.132-1.981c-0.062-0.221-0.185-0.664-0.812-2.67l-10.914,3.224c-1.009,0.271-0.578,1.292-0.32,2.215
		L174.264,365.384z M179.185,410.479c-1.548-0.062-2.753-1.366-2.692-2.914s1.366-2.754,2.914-2.692
		c1.49,0.06,2.673,1.273,2.694,2.765c0.007,1.542-1.238,2.798-2.78,2.806c-0.021,0-0.042,0-0.062-0.001L179.185,410.479z
		 M189.558,382.277c-0.032-0.262-0.129-0.512-0.283-0.726c-0.228-0.365-0.557-0.655-0.947-0.837
		c-1.984-1.103-4.04-2.073-6.152-2.904c-0.588-0.165-1.205-0.203-1.809-0.11l-2.94,0.32c-1.354,0.098-1.157,1.07-1.07,2.128h-0.603
		l-0.615-6.226h0.652c0.074,0.874,0.16,1.551,1.366,1.391l3.051-0.308c0.65-0.021,1.282-0.227,1.821-0.591
		c0.271-0.123,4.023-2.978,4.922-3.691c0.46-0.372,0.851-0.822,1.157-1.329c0.136-0.395,0.183-0.814,0.135-1.23l0.64-0.086
		l0.504,5.291h-0.64c-0.005-0.146-0.026-0.29-0.062-0.431v-0.073c-0.024-0.085-0.112-0.135-0.197-0.111
		c-0.19,0.048-0.37,0.132-0.529,0.246c-0.418,0.234-4.921,3.458-4.921,3.458l5.02,2.152c0.282,0.092,0.577,0.142,0.874,0.148
		c0.185,0,0.295-0.148,0.283-0.296c-0.012-0.147,0-0.455,0-0.455l0.677-0.086l0.443,4.676l-0.652,0.073c0,0-0.049-0.258-0.049-0.431
		L189.558,382.277z"/>
	<path display="inline" d="M36.654,437.843c-0.111,0.118-0.239,0.218-0.382,0.296l1.612,1.895l1.059-0.936
		c0,0-0.972-1.082-1.686-1.907C37.087,437.436,36.885,437.655,36.654,437.843z"/>
	<path display="inline" d="M19.158,353.966c-1.772-0.649-3.729-0.565-5.438,0.233c-1.144,0.563-2.003,1.574-2.375,2.793
		c-0.492,1.575-0.627,4.442,4.036,5.906c3.752,1.156,7.063-0.123,8.059-3.248c0.306-0.936,0.227-1.954-0.222-2.83
		C22.283,355.381,20.829,354.358,19.158,353.966z"/>
	<path display="inline" d="M157.739,323.956c0.271,0.348,0.653,0.591,1.083,0.688c1.014,0.036,1.982-0.423,2.596-1.23
		c1.24-0.929,1.492-2.688,0.563-3.927c-0.064-0.085-0.132-0.167-0.206-0.244l-0.64-0.64l-4.344,4.368L157.739,323.956z"/>
	<path display="inline" d="M98.224,349.585c-5.81,0-10.52,4.71-10.52,10.521c0,5.81,4.71,10.52,10.52,10.52
		c5.795,0,10.5-4.688,10.52-10.482C108.751,354.323,104.043,349.599,98.224,349.585z"/>
	<path display="inline" d="M48.158,393.732c0.234,1.07,0.48,2.166,0.751,3.236c2.788,11.187,8.128,21.575,15.602,30.354
		l33.713-33.763l33.701,33.763c7.502-8.765,12.857-19.158,15.639-30.354c0.283-1.07,0.554-2.166,0.763-3.236
		C115.214,387.649,81.271,387.649,48.158,393.732L48.158,393.732z"/>
	<path display="inline" d="M149.975,374.981v-35.104c0,0-29.96,0.973-51.763-15.798c-21.803,16.771-51.714,15.798-51.714,15.798
		v35.104c-0.045,5.283,0.33,10.562,1.12,15.786c33.473-6.121,67.778-6.121,101.25,0
		C149.658,385.543,150.029,380.265,149.975,374.981z M62.751,359.011c0-0.68,0.551-1.23,1.23-1.23h3.938
		c0.156,0.005,0.283,0.127,0.295,0.282v9.954c0.007,0.163-0.12,0.301-0.283,0.308c-0.004,0-0.009,0-0.013,0h-4.823
		c-0.156,0.015-0.293-0.1-0.308-0.256c-0.001-0.017-0.001-0.034,0-0.052L62.751,359.011z M56.107,358.088
		c0.012-0.156,0.139-0.277,0.295-0.283h3.888c0.679,0,1.23,0.551,1.23,1.23v9.031c0.014,0.155-0.102,0.293-0.257,0.307
		c-0.009,0-0.018,0.001-0.026,0.001h-4.835c-0.163,0-0.295-0.132-0.296-0.295c0-0.005,0-0.009,0-0.013V358.088z M70.773,370.281
		c0,0.167-0.128,0.307-0.295,0.319h-6.152c-0.62,1.21-2.103,1.688-3.313,1.068c-0.459-0.235-0.833-0.609-1.068-1.068h-6.152
		c-0.172-0.007-0.308-0.147-0.308-0.319v-10.446c-0.008-0.156,0.113-0.289,0.269-0.296c0.013-0.001,0.025-0.001,0.039,0h1.009v9.844
		h6.152v0.099c0.046,0.63,0.594,1.104,1.224,1.059c0.002,0,0.004-0.001,0.006-0.001c0.607,0.009,1.117-0.453,1.169-1.058v-0.074
		h6.152v-9.843h1.021c0.156-0.008,0.289,0.113,0.295,0.27c0,0.009,0,0.017,0,0.025L70.773,370.281z M98.212,380.678
		c-11.362,0-20.573-9.211-20.573-20.572c0-11.362,9.211-20.572,20.573-20.572s20.572,9.21,20.572,20.572c0,0.017,0,0.033,0,0.049
		c-0.027,11.338-9.222,20.517-20.56,20.523H98.212z M134.792,375.966c-0.042,0.357-0.341,0.63-0.702,0.64h-0.676
		c-0.358-0.011-0.652-0.284-0.689-0.64l-1.304-8.33c-0.027-0.182,0.098-0.351,0.279-0.378c0.022-0.004,0.044-0.005,0.066-0.004
		h3.999c0.176-0.01,0.327,0.125,0.337,0.301c0.001,0.027,0,0.055-0.005,0.081L134.792,375.966z M138.225,363.575
		c0,0,0.504,0,0.369,0.442l-0.652,1.957c-0.089,0.182-0.278,0.293-0.48,0.283h-7.382c-0.206,0.012-0.399-0.1-0.492-0.283
		l-0.615-1.907c-0.222-0.542,0.308-0.492,0.308-0.492h2.301c0.189-0.327,0.189-0.73,0-1.059c-1.23-1.71-3.79-2.903-3.765-4.134
		c0-1.477,2.166-3.63,2.215-3.691s0.283,0,0.246,0.086c-0.837,3.434,4.762,3.975,4.171,6.152c-0.289,0.954-0.784,1.832-1.452,2.571
		h1.452c0.627-0.75,1.649-2.35,1.23-3.347c-0.163-0.472-0.442-0.895-0.812-1.23c-0.75-0.726-1.723-1.23-2.461-1.87
		c-0.789-0.517-1.311-1.353-1.427-2.288c0-1.907,3.691-4.602,3.765-4.676s0.32-0.123,0.246,0c-0.441,0.84-0.637,1.786-0.566,2.731
		c0.258,1.76,4.725,4.036,5.02,5.636c0.295,1.599-2.166,4.097-3.187,4.995L138.225,363.575z"/>
	<path display="inline" d="M93.671,434.065c-0.638,0.368-1.031,1.048-1.034,1.784c-0.035,0.768,0.559,1.417,1.326,1.452
		c0.001,0,0.002,0,0.003,0c0.68,0.006,1.235-0.541,1.241-1.22c0-0.058-0.003-0.114-0.01-0.171
		C95.247,434.988,94.508,434.533,93.671,434.065z"/>
	<path display="inline" d="M101.165,432.995c0.544-0.23,0.888-0.775,0.861-1.366c0.062-0.533-0.321-1.015-0.854-1.076
		c-0.047-0.006-0.095-0.008-0.142-0.006c-0.556-0.042-1.04,0.375-1.081,0.931c-0.003,0.042-0.004,0.085-0.001,0.127
		C99.947,432.097,100.279,432.479,101.165,432.995z"/>
	<path display="inline" d="M94.139,432.995c0.544-0.229,0.885-0.776,0.849-1.366c0.062-0.533-0.321-1.015-0.854-1.076
		c-0.039-0.004-0.078-0.007-0.117-0.006c-0.549-0.042-1.028,0.369-1.07,0.918c-0.003,0.046-0.004,0.093-0.001,0.14
		C92.945,432.097,93.241,432.479,94.139,432.995z"/>
	<path display="inline" d="M100.697,434.065c-0.636,0.37-1.029,1.049-1.034,1.784c-0.035,0.768,0.559,1.417,1.326,1.452
		c0.001,0,0.002,0,0.002,0c0.68,0.006,1.235-0.541,1.241-1.22c0-0.058-0.003-0.114-0.011-0.171
		C102.26,434.988,101.546,434.533,100.697,434.065z"/>
	<path display="inline" d="M98.224,410.171l-25.433,25.481c7.678,6.508,16.241,11.894,25.433,15.996
		c9.187-4.103,17.746-9.488,25.42-15.996L98.224,410.171z M89.611,437.904h-1.23h-0.923h-1.23c-0.283,0-0.308-0.123-0.308-0.222
		c-0.007-0.124,0.085-0.232,0.209-0.246l0.775-0.073c0.221,0,0.283-0.086,0.308-0.419v-2.276v-2.928
		c0.012-0.073,0.012-0.148,0-0.222c-0.277,0.084-0.545,0.195-0.8,0.332l-0.32,0.136H85.92c-0.131-0.013-0.229-0.127-0.222-0.259
		c-0.001-0.116,0.067-0.222,0.172-0.271c0.074,0,1.944-1.23,2.326-1.55l0.369-0.185c0,0,0.233,0.073,0.233,0.381v0.16v2.461v1.895
		v2.276c0,0.332,0.074,0.382,0.283,0.418l0.652,0.074c0.111,0.028,0.188,0.131,0.185,0.246c-0.013,0.16-0.099,0.283-0.308,0.283
		V437.904z M93.881,438.077c-1.649,0-2.695-0.85-2.695-2.179c0.078-1.025,0.753-1.908,1.723-2.251
		c-0.755-0.33-1.266-1.05-1.329-1.87c0-0.8,0.677-1.993,2.56-1.993c1.366,0,2.227,0.701,2.227,1.734
		c-0.021,0.836-0.547,1.575-1.329,1.87c0.939,0.39,1.586,1.265,1.686,2.276c-0.065,1.405-1.257,2.491-2.662,2.427
		C94,438.089,93.94,438.084,93.881,438.077z M100.906,438.077c-1.624,0-2.694-0.85-2.694-2.179c0.066-1.025,0.739-1.912,1.71-2.251
		c-0.757-0.324-1.267-1.048-1.316-1.87c0-0.8,0.665-1.993,2.547-1.993c1.366,0,2.227,0.701,2.227,1.734
		c-0.015,0.838-0.542,1.581-1.329,1.87c0.939,0.394,1.593,1.265,1.71,2.276c-0.071,1.412-1.273,2.498-2.685,2.428
		c-0.061-0.004-0.122-0.009-0.182-0.016H100.906z M106.456,438.077c-0.351-0.003-0.698-0.074-1.021-0.21l0,0
		c-0.234-0.123-0.234-0.319-0.234-0.528v-1.342c0,0,0.074-0.271,0.283-0.271s0.209,0,0.209,0.308c-0.08,0.6,0.341,1.15,0.94,1.23
		c0.097,0.013,0.194,0.013,0.29,0c0.843,0.021,1.543-0.644,1.564-1.486c0.002-0.083-0.002-0.166-0.014-0.249
		c0-1.587-1.759-2.178-2.46-2.275c-0.308,0-0.308-0.246-0.308-0.382l0.221-2.646c0-0.099,0-0.283,0.333-0.283h2.46h0.652h0.099
		c0.271,0,0.271,0.246,0.271,0.345l-0.147,1.341c-0.012,0.136-0.132,0.236-0.267,0.224c-0.005,0-0.011-0.001-0.016-0.002
		c0,0-0.197,0-0.197-0.295c0-0.296,0-0.394-0.738-0.394h-1.686c0,0.172-0.074,0.75-0.099,0.959c1.649,0.333,3.359,1.23,3.359,2.978
		c-0.077,1.731-1.542,3.072-3.273,2.996C106.603,438.091,106.529,438.085,106.456,438.077z"/>
	<path display="inline" d="M465.022,325.899v21.188h-5.573v-21.188h-14.371v1.674l0,0c1.451,0,2.805,2.461,2.805,5.082v45.599
		h-29.64v-40.838h19.686v-9.609h-34.943v1.723l0,0c1.427,0,2.805,2.461,2.805,5.045v53.289h42.081v15.318h11.554v-46.546h5.573
		v46.546H477.4v-77.282H465.022z"/>
	<path display="inline" d="M646.423,389.733v-61.778h-60.832v9.634h48.417v52.145h-9.843v-27.167h-11.837v27.167h-6.706v-27.167
		h-13.866v1.71l0,0c1.439,0,2.793,2.461,2.793,5.045v20.412h-13.055v9.659h72.422v-9.659H646.423z"/>
	<path display="inline" d="M374.796,325.899v77.282h12.403v-77.282H374.796z"/>
	<path display="inline" d="M355.282,325.899v1.674l0,0c1.415,0,2.805,2.461,2.805,5.082v14.433h-12.341v9.548h12.304v46.546h11.615
		v-77.282H355.282z"/>
	<path display="inline" d="M334.98,358.998l-0.652-0.505l0.147-0.332c5.04-9.319,7.646-19.76,7.58-30.354l0,0h-17.964v1.723l0,0
		c0.16,0,3.925,0.898,3.925,7.198c0,0.394,0,21.348-20.154,40.099l5.722,5.476l0,0c0.098,0,7.555-4.626,15.466-15.639l0.271-0.356
		l0.357,0.283c3.113,2.559,7.801,6.423,15.996,18.223c0.726-0.984,6.459-8.982,6.792-9.462
		C348.884,370.527,342.633,364.756,334.98,358.998z"/>
	<path display="inline" d="M499.622,386.424h51.788v16.697h12.415V376.79h-64.203V386.424z"/>
	<path display="inline" d="M563.825,325.813h-15.232v1.76l0,0c1.451,0,2.805,2.461,2.805,5.057v37.54h12.415v-13.608h12.169v-9.523
		h-12.169L563.825,325.813z"/>
	<path display="inline" d="M494.946,352.07c0,10.385,9.844,18.862,22.013,18.862s21.963-8.478,21.963-18.862
		c-0.106-5.6-2.841-10.822-7.383-14.101h10.028v-9.634h-17.411v-6.546h-15.171v1.686l0,0c1.23,0,2.461,2.03,2.707,4.381v0.468
		h-18.456v9.634h9.167C497.828,341.221,495.063,346.453,494.946,352.07z M516.959,362.837c-5.414,0-9.844-5.094-9.844-11.369
		s4.368-11.369,9.844-11.369c5.475,0,9.781,5.106,9.781,11.369S522.323,362.837,516.959,362.837z"/>
	<path display="inline" d="M250.857,377.528h-15.208v1.723c1.439,0,2.818,2.46,2.818,5.032v18.346h59.183v-9.672h-46.756
		L250.857,377.528z"/>
	<path display="inline" d="M268.23,361.569h15.995v20.142h12.427v-55.836h-15.208v1.698l0,0c1.427,0,2.806,2.461,2.806,5.069v3.002
		h-17.066c-4.584-5.104-11.14-7.995-18.001-7.936c-12.796,0-23.218,9.683-23.218,21.594c0,11.91,10.421,21.581,23.218,21.581
		C256.643,370.941,263.695,367.492,268.23,361.569z M284.226,345.229v6.706h-12.021c0.119-0.877,0.18-1.761,0.185-2.646
		c-0.005-1.364-0.149-2.726-0.431-4.061H284.226z M238.344,349.253c0-7.063,4.86-12.784,10.803-12.784s10.828,5.722,10.828,12.784
		s-4.811,12.771-10.791,12.771c-5.98,0-10.803-5.733-10.803-12.771H238.344z"/>
	<path display="inline" d="M268.624,422.992c-9.375,0-13.658,6.73-13.658,12.968c0,6.238,4.171,12.981,13.338,12.981
		c8.071,0,13.694-5.586,13.694-13.535C281.999,427.741,276.843,422.992,268.624,422.992z M269.67,446.739
		c-5.672,0-9.646-4.836-9.646-11.775c0-8.552,4.811-9.844,7.666-9.844c5.414,0,9.179,4.7,9.179,11.443
		c-0.024,9.13-5.032,10.163-7.198,10.163V446.739z"/>
	<path display="inline" d="M328.594,429.316h-1.402c0.065-0.988-0.208-1.969-0.775-2.781c-0.781-1.014-2.021-1.564-3.297-1.464
		c-2.153,0-3.556,1.23-3.556,3.039c0,1.23,0.505,2.288,3.31,4.417l0.911,0.677c3.999,3.113,5.414,5.328,5.414,8.49
		c0.037,2.379-1.166,4.606-3.174,5.881c-1.596,0.967-3.439,1.445-5.303,1.378c-1.932,0-4.626-0.394-5.611-1.39v-6.227h1.23
		c0,0,0.258,1.858,0.443,2.461c0.563,1.902,2.378,3.153,4.356,3.003c2.633,0,4.048-1.748,4.048-3.396s-0.517-2.978-3.063-4.922
		l-1.489-1.156c-3.433-2.683-4.922-5.045-4.922-7.899c0-3.765,3.15-6.41,7.776-6.41c3.863,0,5.045,0.947,5.045,0.947
		L328.594,429.316z"/>
	<path display="inline" d="M533.077,429.316h-1.402c0.067-0.988-0.206-1.971-0.775-2.781c-0.783-1.012-2.022-1.562-3.298-1.464
		c-2.153,0-3.556,1.23-3.556,3.039c0,1.23,0.517,2.288,3.322,4.417l0.91,0.677c3.999,3.113,5.426,5.328,5.426,8.49
		c0.032,2.381-1.175,4.607-3.187,5.881c-1.595,0.969-3.438,1.447-5.303,1.378c-1.932,0-4.614-0.394-5.599-1.39v-6.227h1.23
		c0,0,0.259,1.858,0.443,2.461c0.537,1.918,2.344,3.196,4.331,3.064c2.62,0,4.048-1.748,4.048-3.396s-0.517-2.978-3.064-4.922
		l-1.488-1.156c-3.433-2.683-4.922-5.045-4.922-7.899c0-3.765,3.15-6.41,7.776-6.41c3.863,0,5.045,0.947,5.045,0.947
		L533.077,429.316z"/>
	<path display="inline" d="M346.62,425.674c2.215,0,2.301,1.23,2.301,2.892h1.157v-5.118h-16.119v1.145h0.714
		c1.095,0,2.461,0.332,2.461,2.202v17.988c0,2.461-0.689,2.571-2.203,2.56h-0.542v1.145h16.451v-5.525h-1.23
		c0,2.461-0.972,3.311-2.658,3.311h-5.155v-10.004h4.798c1.661,0,1.698,0.554,1.698,2.265h1.157v-6.755h-1.157
		c0,1.734,0,2.275-1.698,2.275h-4.798v-8.366L346.62,425.674z"/>
	<path display="inline" d="M487.589,425.674c2.215,0,2.301,1.23,2.301,2.892h1.156v-5.118H474.94v1.145h0.75
		c1.107,0,2.461,0.332,2.461,2.202c0,2.325,0,17.988,0,17.988c0,2.461-0.689,2.571-2.215,2.56h-0.529v1.145h16.451v-5.525h-1.23
		c0,2.461-0.973,3.311-2.658,3.311h-5.155v-10.004h4.812c1.648,0,1.686,0.554,1.686,2.265h1.156v-6.755h-1.156
		c0,1.734,0,2.275-1.686,2.275h-4.812v-8.366L487.589,425.674z"/>
	<path display="inline" d="M366.405,447.342c-1.23,0-2.461-0.185-2.461-1.661v-19.392c0-1.611,0.763-1.697,2.756-1.697v-1.145
		h-10.212v1.145h0.579c0.824,0,2.227,0.221,2.227,1.697v19.404c0,1.611-0.837,1.648-2.818,1.648v1.145h11.074v-1.133
		L366.405,447.342z"/>
	<path display="inline" d="M447.465,447.342c-1.23,0-2.461-0.185-2.461-1.661v-19.392c0-1.611,0.763-1.697,2.744-1.697v-1.145
		h-10.213v1.145h0.591c0.824,0,2.227,0.221,2.227,1.697v19.404c0,1.611-0.836,1.648-2.817,1.648v1.145h11.074v-1.133
		L447.465,447.342z"/>
	<path display="inline" d="M546.304,447.342c-1.23,0-2.399-0.185-2.399-1.661v-19.392c0-1.611,0.763-1.697,2.744-1.697v-1.145
		h-10.188v1.145h0.578c0.824,0,2.227,0.221,2.227,1.697v19.404c0,1.611-0.824,1.648-2.805,1.648v1.145h11.073v-1.133
		L546.304,447.342z"/>
	<path display="inline" d="M239.402,424.592h0.529v-1.145h-9.314v1.145c0.714-0.021,1.425,0.118,2.079,0.405
		c0.856,0.603,1.581,1.373,2.129,2.265c1.144,1.71,5.463,8.785,5.672,9.265c0.516,1.011,0.762,2.139,0.714,3.272v5.438
		c0,2.092-1.132,2.092-2.744,2.092v1.157h10.963v-1.157h-0.8c-1.501,0-2.744-0.123-2.744-2.165v-5.365
		c-0.069-1.062,0.086-2.126,0.455-3.125c1.855-3.519,3.909-6.928,6.152-10.212c0.426-0.622,0.99-1.136,1.649-1.501
		c0.389-0.24,0.835-0.372,1.292-0.382h0.898v-1.145h-8.244v1.145h0.849c0.265-0.009,0.487,0.198,0.496,0.463
		c0,0.026,0,0.053-0.004,0.078c-0.042,0.553-0.202,1.09-0.468,1.575c-0.221,0.492-4.602,8.392-4.602,8.392s-4.848-8.392-5.205-9.167
		c-0.187-0.295-0.308-0.626-0.357-0.972c0.021-0.129,0.103-0.239,0.222-0.295C239.142,424.608,239.272,424.587,239.402,424.592z"/>
	<path display="inline" d="M581.42,424.592h0.566v-1.145h-9.302v1.145c0.714-0.021,1.425,0.117,2.079,0.405
		c0.854,0.604,1.578,1.374,2.128,2.265c1.157,1.71,5.464,8.785,5.673,9.265c0.515,1.012,0.761,2.139,0.714,3.272v5.438
		c0,2.092-1.145,2.092-2.744,2.092v1.157h10.963v-1.157h-0.898c-1.501,0-2.743-0.123-2.743-2.165v-5.365
		c-0.069-1.062,0.086-2.126,0.455-3.125c1.854-3.519,3.908-6.928,6.151-10.212c0.424-0.623,0.989-1.138,1.649-1.501
		c0.393-0.241,0.843-0.373,1.304-0.382h0.887v-1.145h-8.244v1.145h0.849c0.265-0.009,0.487,0.198,0.496,0.463
		c0.001,0.026,0,0.053-0.004,0.078c-0.048,0.553-0.212,1.09-0.479,1.575c-0.222,0.492-4.602,8.392-4.602,8.392
		s-4.849-8.392-5.217-9.167c-0.188-0.295-0.309-0.626-0.357-0.972c0.022-0.128,0.104-0.238,0.222-0.295
		C581.109,424.596,581.266,424.574,581.42,424.592z"/>
	<path display="inline" d="M293.306,447.342v1.145h-9.252v-1.145c1.452,0,2.953,0.11,2.953-2.658v-21.225h1.55
		c2.929,3.003,16.894,17.436,17.349,17.915V427.04c0-2.547-2.018-2.461-3.261-2.461v-1.145h8.527v1.145
		c-1.354,0-2.695-0.086-2.695,2.461v21.446h-1.673l-17.226-17.607v13.793c0,2.399,1.39,2.657,2.793,2.657L293.306,447.342z"/>
	<path display="inline" d="M416.225,447.342v1.145h-9.253v-1.145c1.452,0,2.941,0.11,2.941-2.658v-21.225h1.563
		c2.928,3.003,16.894,17.436,17.349,17.915V427.04c0-2.547-2.019-2.461-3.273-2.461v-1.145h8.527v1.145
		c-1.366,0-2.694-0.086-2.694,2.461v21.446h-1.661l-17.226-17.607v13.793c0,2.399,1.402,2.657,2.793,2.657L416.225,447.342z"/>
	<path display="inline" d="M397.251,424.592c0.825,0,2.264,0.233,2.264,1.734v10.754c0,3.433-0.135,6.152-1.809,7.875
		c-1.165,1.104-2.715,1.708-4.319,1.686c-1.408,0.084-2.796-0.354-3.9-1.23c-1.23-1.034-2.461-2.707-2.461-7.813v-11.209
		c0-1.624,0.775-1.734,2.769-1.734v-1.145h-10.212v1.145h0.615c0.824,0,2.214,0.258,2.214,1.734v11.418
		c0,4.159,0.935,6.952,2.965,8.773c2.091,1.654,4.722,2.475,7.383,2.301c2.524,0.112,4.997-0.741,6.915-2.387
		c2.781-2.388,3.163-6.152,3.163-9.954v-10.151c0-1.612,0.799-1.735,2.768-1.735v-1.144h-8.92v1.144L397.251,424.592z"/>
	<path display="inline" d="M554.597,447.342v1.145h11.074v-1.145h-0.936c-1.354,0-2.621-0.123-2.621-1.674v-19.969h4.922
		c2.228,0,2.461,1.229,2.72,2.879h1.329l-0.738-5.131h-21.151l-0.738,5.131h1.329c0.233-1.674,0.504-2.879,2.707-2.879h4.922v19.994
		c0,1.415-0.641,1.636-2.166,1.636L554.597,447.342z"/>
	<path display="inline" d="M520.194,447.293c-1.369-0.3-2.6-1.049-3.494-2.129c-1.648-1.735-3.544-4.122-5.918-7.124
		c0,0-0.751-0.96-0.973-1.23c2.916-2.461,4.196-4.627,4.196-7.309c0.001-1.805-0.853-3.502-2.301-4.577
		c-1.864-1.08-4.002-1.594-6.152-1.477h-9.634v1.145h0.541c0.813,0,2.264,0.233,2.264,1.734v19.367c0,1.427-0.652,1.636-2.215,1.636
		h-0.603v1.145h11.073v-1.145h-1.07c-1.23,0-2.461-0.172-2.461-1.673v-7.346h2.941l3.285,4.614c1.919,2.62,3.138,4.097,4.54,4.848
		c1.113,0.551,2.355,0.785,3.593,0.677h3.322v-1.107C520.465,447.329,520.194,447.293,520.194,447.293z M507.891,435.813
		c-0.634,0.433-1.406,0.612-2.166,0.505h-2.301v-10.815h1.575c1.734,0,4.7,1.145,4.7,5.647c-0.037,2.892-1.156,4.159-1.833,4.7
		L507.891,435.813z"/>
	<path display="inline" d="M475.629,424.592v-1.145h-8.354v1.145h0.947c0.306-0.021,0.581,0.182,0.652,0.479
		c0.023,0.566-0.069,1.132-0.271,1.661c0,0-5.611,14.347-5.906,15.061c-0.246-0.615-5.979-15.849-5.979-15.849
		s-0.271-0.614-0.16-0.897c0.118-0.283,0.395-0.467,0.701-0.468h0.947v-1.132h-9.462v1.132c0.682-0.016,1.356,0.132,1.969,0.431
		c0.706,0.594,1.223,1.381,1.489,2.264l8.97,21.471h1.046l9.843-22.271c0,0,0.886-1.932,2.597-1.907L475.629,424.592z"/>
	<path display="inline" d="M687.224,375.461c-4.61-6.099-7.01-13.583-6.805-21.225c-0.217-7.66,2.188-15.166,6.816-21.273
		c4.545-5.857,9.991-8.785,16.34-8.785c6.35,0,11.824,2.928,16.427,8.785c4.628,6.107,7.032,13.613,6.816,21.273
		c0.202,7.644-2.202,15.128-6.816,21.225c-4.545,5.881-10.021,8.822-16.427,8.822S691.719,381.342,687.224,375.461z
		 M695.959,339.164c-2.216,4.708-3.295,9.871-3.149,15.072c-0.141,5.174,0.938,10.308,3.149,14.986
		c2.101,4.167,4.635,6.251,7.604,6.251c2.969,0,5.508-2.088,7.616-6.264c2.237-4.671,3.329-9.809,3.187-14.986
		c0.146-5.201-0.946-10.363-3.187-15.06c-2.125-4.159-4.672-6.242-7.642-6.251C700.569,332.905,698.043,334.988,695.959,339.164z
		 M739.897,399.663V329.16c0.028-1.231-0.256-2.45-0.824-3.543c-0.346-0.854-1.139-1.441-2.055-1.526v-1.747h15.195v77.319H739.897z
		"/>
	<path display="inline" d="M819.837,374.846v9.609h-53.289v-9.609h11.8v-19.047c0.029-1.233-0.305-2.448-0.96-3.494
		c-0.64-0.993-1.279-1.489-1.919-1.489v-1.734h15.023v25.765h9.695v-40.801h-30.059v-9.609h42.461v50.447L819.837,374.846z
		 M837.31,353.412v46.387h-12.305V329.16c0.028-1.231-0.255-2.45-0.824-3.543c-0.346-0.854-1.139-1.441-2.055-1.526v-1.747h15.195
		v21.225h12.145v9.844H837.31z"/>
	<path display="inline" d="M857.833,384.283V331.08c0.028-1.232-0.255-2.451-0.825-3.544c-0.558-1.017-1.214-1.525-1.968-1.525
		v-1.661h34.857v9.609h-19.687v40.715h29.468v-45.525c0.027-1.238-0.274-2.461-0.873-3.544c-0.583-1.018-1.223-1.525-1.92-1.525
		v-1.735h14.322v21.225h5.586v-21.225h12.305v77.221h-12.305v-46.473h-5.586v46.473h-11.529v-15.281H857.833z"/>
	<path display="inline" d="M941.611,334.488v-9.696h18.456v-0.431c-0.09-1.075-0.418-2.117-0.959-3.051
		c-0.525-0.878-1.107-1.316-1.748-1.316h-0.098v-1.674h15.195v6.46h17.287v9.695h-10.139c2.308,1.597,4.219,3.701,5.586,6.152
		c1.328,2.407,2.019,5.113,2.006,7.862c0.001,5.183-2.381,10.078-6.46,13.276c-9.038,7.337-21.98,7.337-31.019,0
		c-4.08-3.197-6.462-8.093-6.459-13.276c-0.014-2.749,0.677-5.456,2.005-7.862c1.337-2.419,3.185-4.519,5.414-6.152L941.611,334.488
		z M1012.028,373.185v26.294h-12.402v-16.537h-51.678v-9.757H1012.028z M958.345,339.877c-3.766,4.667-3.766,11.329,0,15.996
		c2.979,3.812,8.485,4.487,12.298,1.508c0.562-0.439,1.068-0.946,1.508-1.508c3.766-4.667,3.766-11.329,0-15.996
		c-3.045-3.812-8.604-4.434-12.416-1.389C959.221,338.898,958.755,339.364,958.345,339.877z M1011.855,322.319v21.163H1024v9.523
		h-12.145v13.633h-12.402v-37.564c0.028-1.231-0.255-2.451-0.824-3.544c-0.558-1.017-1.214-1.525-1.969-1.525v-1.661
		L1011.855,322.319z"/>
	<path display="inline" d="M626.563,449.667c-4.971,0-8.875-1.23-11.713-3.691c-2.875-2.555-4.439-6.272-4.258-10.113
		c-0.11-3.556,1.348-6.979,3.987-9.364c2.657-2.46,6.267-3.69,10.827-3.69c1.646,0.008,3.29,0.123,4.922,0.344
		c0.82,0.156,1.96,0.349,3.421,0.579c0.344,0,0.517,0.135,0.517,0.405c0,0.066-0.025,0.259-0.074,0.579
		c-0.049,0.319-0.082,0.754-0.099,1.304c0,1.001-0.032,2.231-0.099,3.691c-0.049,0.524-0.184,0.787-0.405,0.787
		s-0.337-0.25-0.345-0.75c-0.02-1.183-0.496-2.312-1.329-3.15c-0.767-0.713-1.696-1.229-2.707-1.501
		c-1.375-0.421-2.807-0.629-4.245-0.615c-2.336-0.14-4.638,0.617-6.435,2.116c-2.1,1.92-3.15,4.873-3.15,8.859
		c-0.126,3.43,1.217,6.751,3.691,9.13c1.868,1.925,4.429,3.023,7.112,3.051c1.134,0.029,2.269-0.061,3.384-0.271
		c1.112-0.216,2.124-0.79,2.879-1.637c0.591-0.632,0.995-1.415,1.169-2.264c0.09-0.459,0.237-0.688,0.442-0.688
		s0.308,0.172,0.308,0.517c0,0.254-0.077,0.914-0.233,1.98c-0.114,0.854-0.278,1.7-0.492,2.535c-0.122,0.467-0.46,0.847-0.91,1.021
		C630.739,449.472,628.652,449.755,626.563,449.667z"/>
	<path display="inline" d="M651.751,449.667c-7.474,0.146-13.651-5.793-13.798-13.267c-0.064-3.307,1.084-6.522,3.228-9.041
		c2.576-3.01,6.214-4.516,10.914-4.516c3.684-0.195,7.301,1.044,10.09,3.458c2.522,2.433,3.869,5.839,3.691,9.339
		c0.279,7.47-5.549,13.752-13.019,14.032c-0.381,0.014-0.763,0.013-1.144-0.006H651.751z M653.19,447.957
		c1.793,0.048,3.534-0.601,4.859-1.809c2.051-1.846,3.076-4.926,3.076-9.24c0.152-3.285-0.878-6.516-2.903-9.105
		c-1.729-2.146-4.355-3.373-7.112-3.322c-2.11-0.095-4.166,0.685-5.685,2.153c-1.829,1.829-2.739,4.7-2.731,8.613
		c-0.136,3.244,0.855,6.435,2.806,9.031c1.813,2.397,4.674,3.769,7.678,3.679H653.19z"/>
	<path display="inline" d="M677.675,433.254v6.017c0,2.575,0.033,4.273,0.099,5.094c-0.046,0.802,0.17,1.596,0.615,2.264
		c0.574,0.501,1.952,0.751,4.135,0.751c2.182,0,3.515-0.32,3.999-0.96c0.51-0.571,0.82-1.292,0.886-2.055
		c0.041-0.345,0.168-0.517,0.381-0.517c0.214,0,0.304,0.192,0.271,0.578c0.004,1.329-0.169,2.653-0.517,3.938
		c-0.081,0.424-0.403,0.762-0.824,0.861c-0.439,0.065-0.885,0.091-1.329,0.073c-1.829,0-3.757-0.032-5.782-0.099
		c-2.026-0.065-3.417-0.098-4.172-0.098h-1.932h-2.374c-0.46,0-0.689-0.115-0.689-0.345s0.25-0.332,0.75-0.308l1.021-0.099
		c0.525-0.115,0.857-0.742,0.997-1.883c0.114-0.886,0.172-3.313,0.172-7.284v-6.017c0-4.101-0.024-6.517-0.073-7.247
		c0.042-0.658-0.237-1.296-0.751-1.71c-0.575-0.272-1.211-0.391-1.846-0.345c-0.394,0-0.578-0.099-0.578-0.308
		s0.246-0.308,0.751-0.308h2.596h2.092h2.141h2.461c0.476,0,0.714,0.103,0.714,0.308c0,0.209-0.209,0.308-0.615,0.308
		c-0.445-0.006-0.89,0.027-1.329,0.099c-0.779,0.14-1.189,0.792-1.23,1.956C677.688,426.749,677.675,429.193,677.675,433.254z"/>
	<path display="inline" d="M698.383,433.254v6.017c0,2.575,0.033,4.273,0.099,5.094c-0.047,0.802,0.17,1.596,0.615,2.264
		c0.574,0.501,1.952,0.751,4.135,0.751c2.182,0,3.515-0.32,3.998-0.96c0.511-0.571,0.821-1.292,0.887-2.055
		c0.049-0.345,0.176-0.517,0.381-0.517c0.185,0,0.271,0.196,0.271,0.578c0.005,1.329-0.169,2.653-0.517,3.938
		c-0.078,0.426-0.402,0.765-0.824,0.861c-0.439,0.065-0.885,0.091-1.329,0.073c-1.829,0-3.757-0.032-5.783-0.099
		c-2.025-0.065-3.416-0.098-4.171-0.098h-1.932h-2.375c-0.455,0-0.688-0.111-0.688-0.345c0-0.234,0.246-0.259,0.75-0.308
		l1.021-0.099c0.525-0.115,0.857-0.742,0.997-1.883c0.114-0.886,0.172-3.313,0.172-7.284v-6.017c0-4.101-0.024-6.517-0.074-7.247
		c0.043-0.658-0.237-1.296-0.75-1.71c-0.575-0.272-1.211-0.391-1.846-0.345c-0.382,0-0.578-0.099-0.578-0.308
		s0.246-0.308,0.75-0.308h2.597h2.092h2.141h2.461c0.476,0,0.714,0.103,0.714,0.308c0,0.209-0.209,0.308-0.615,0.308
		c-0.445-0.006-0.89,0.027-1.329,0.099c-0.779,0.14-1.189,0.792-1.23,1.956C698.396,426.749,698.383,429.193,698.383,433.254z"/>
	<path display="inline" d="M714.81,439.271v-6.017c0-4.102-0.025-6.518-0.074-7.248c0.063-0.928-0.566-1.762-1.477-1.956
		c-0.438-0.077-0.884-0.109-1.329-0.099c-0.394,0-0.578-0.098-0.578-0.308c0-0.209,0.246-0.308,0.751-0.308c0.504,0,1.611,0,2.793,0
		h2.141c5.406,0,8.276,0,8.613,0c0.496-0.032,0.99-0.103,1.477-0.209l0.541-0.135c0.136,0,0.209,0.098,0.209,0.308
		c0,0.209,0,0.233-0.099,0.615c-0.098,0.381-0.122,0.996-0.147,1.611c-0.024,0.615-0.099,1.366-0.185,2.264
		c0,0.246-0.16,0.382-0.345,0.382s-0.258-0.123-0.295-0.382c-0.037-0.258-0.062-0.492-0.086-0.713
		c-0.019-0.21-0.064-0.417-0.136-0.615c-0.271-0.665-1.033-1.075-2.288-1.23c-0.779-0.091-2.399-0.136-4.86-0.136
		c-0.16,0-0.246,0.111-0.246,0.345v8.613c0,0.245,0.086,0.381,0.246,0.381c3.101,0,4.926-0.024,5.476-0.073
		c0.297-0.011,0.594-0.044,0.886-0.099c0.284-0.059,0.546-0.2,0.75-0.406c0.271-0.295,0.456-0.443,0.542-0.443
		s0.233,0.087,0.233,0.271s0,0.246-0.099,0.688c-0.098,0.443-0.123,1.132-0.172,1.809c-0.09,1.296-0.136,2.06-0.136,2.289
		c0,0.431-0.099,0.651-0.308,0.651s-0.308-0.123-0.308-0.356c-0.014-0.413-0.06-0.824-0.135-1.23
		c-0.181-0.771-0.82-1.214-1.92-1.329c-0.64-0.065-2.26-0.098-4.86-0.098c-0.135,0-0.209,0.11-0.209,0.344v8.011
		c-0.088,0.858,0.205,1.713,0.8,2.338c1.035,0.459,2.171,0.642,3.298,0.528c1.087,0.069,2.176-0.068,3.211-0.405
		c0.908-0.531,1.486-1.484,1.538-2.535c0.074-0.345,0.197-0.517,0.382-0.517s0.271,0.209,0.271,0.615
		c0.015,1.281-0.135,2.559-0.442,3.802c-0.045,0.308-0.22,0.581-0.48,0.751c-0.444,0.119-0.906,0.165-1.365,0.135
		c-1.985,0-3.958-0.032-5.919-0.099l-3.556-0.098h-1.932h-2.375c-0.459,0-0.688-0.115-0.688-0.345s0.25-0.332,0.75-0.308
		l1.021-0.099c0.525-0.115,0.857-0.742,0.997-1.883C714.76,445.599,714.801,443.24,714.81,439.271z"/>
	<path display="inline" d="M757.197,443.134v3.79c0,0.664-0.147,1.074-0.443,1.229c-6.329,2.53-13.48,1.924-19.293-1.636
		c-3.19-2.403-4.976-6.236-4.762-10.225c-0.04-2.438,0.586-4.842,1.809-6.952c0.992-1.746,2.416-3.207,4.135-4.245
		c2.806-1.57,5.989-2.341,9.203-2.227c2.03-0.015,4.058,0.167,6.054,0.541c0.894,0.183,1.798,0.311,2.707,0.382
		c0.32,0,0.479,0.159,0.479,0.405c-0.08,0.438-0.121,0.884-0.123,1.329c-0.082,1.091-0.123,2.519-0.123,4.282
		c0,0.476-0.127,0.713-0.381,0.713c-0.255,0-0.369-0.147-0.345-0.442c-0.082-1.047-0.491-2.041-1.169-2.843
		c-0.777-0.768-1.708-1.362-2.731-1.747c-1.563-0.628-3.236-0.942-4.922-0.923c-2.44-0.128-4.846,0.623-6.779,2.116
		c-2.1,1.756-3.15,4.549-3.15,8.38c-0.128,3.387,1.048,6.694,3.285,9.24c2.195,2.422,5.348,3.75,8.613,3.63
		c1.895,0,3.002-0.238,3.322-0.714c0.176-0.274,0.258-0.598,0.233-0.923v-3.211c0-1.961,0-3.307,0-4.036
		c0.104-0.94-0.543-1.799-1.477-1.956c-0.438-0.077-0.884-0.109-1.328-0.099c-0.345,0-0.517-0.091-0.517-0.271
		c0-0.234,0.233-0.345,0.713-0.345h2.769h2.19h1.969h2.03c0.455,0,0.688,0.11,0.688,0.345c0,0.233-0.135,0.271-0.394,0.271
		c-0.326,0.006-0.651,0.038-0.972,0.099c-0.82,0.164-1.255,0.815-1.305,1.956C757.193,439.787,757.197,441.148,757.197,443.134z"/>
	<path display="inline" d="M766.745,439.271v-6.017c0-4.102-0.024-6.518-0.074-7.248c0.063-0.928-0.566-1.762-1.477-1.956
		c-0.438-0.077-0.884-0.109-1.328-0.099c-0.395,0-0.579-0.098-0.579-0.308c0-0.209,0.246-0.308,0.751-0.308c0.504,0,1.611,0,2.793,0
		h2.141c5.406,0,8.277,0,8.613,0c0.496-0.032,0.99-0.103,1.477-0.209l0.541-0.135c0.136,0,0.209,0.098,0.209,0.308
		c0,0.209,0,0.233-0.098,0.615c-0.099,0.381-0.123,0.996-0.148,1.611c-0.024,0.615-0.098,1.366-0.185,2.264
		c0,0.246-0.159,0.382-0.344,0.382s-0.259-0.123-0.296-0.382c-0.037-0.258-0.062-0.492-0.086-0.713
		c-0.019-0.21-0.064-0.417-0.136-0.615c-0.271-0.665-1.033-1.075-2.288-1.23c-0.779-0.091-2.399-0.136-4.86-0.136
		c-0.16,0-0.246,0.111-0.246,0.345v8.613c0,0.245,0.086,0.381,0.246,0.381c3.101,0,4.926-0.024,5.476-0.073
		c0.297-0.011,0.594-0.044,0.886-0.099c0.285-0.059,0.546-0.2,0.751-0.406c0.271-0.295,0.455-0.443,0.541-0.443
		s0.233,0.087,0.233,0.271s0,0.246-0.099,0.688c-0.098,0.443-0.122,1.132-0.172,1.809c-0.09,1.296-0.135,2.06-0.135,2.289
		c0,0.431-0.099,0.651-0.308,0.651c-0.21,0-0.308-0.123-0.308-0.356c-0.015-0.413-0.06-0.824-0.136-1.23
		c-0.181-0.771-0.82-1.214-1.919-1.329c-0.641-0.065-2.261-0.098-4.86-0.098c-0.136,0-0.21,0.11-0.21,0.344v8.011
		c-0.087,0.858,0.205,1.713,0.801,2.338c1.034,0.459,2.171,0.642,3.297,0.528c1.087,0.069,2.177-0.068,3.212-0.405
		c0.907-0.531,1.486-1.484,1.538-2.535c0.073-0.345,0.196-0.517,0.381-0.517s0.271,0.209,0.271,0.615
		c0.015,1.281-0.134,2.559-0.442,3.802c-0.045,0.308-0.22,0.581-0.48,0.751c-0.444,0.119-0.906,0.165-1.365,0.135
		c-1.985,0-3.958-0.032-5.918-0.099l-3.557-0.098h-1.932h-2.375c-0.459,0-0.688-0.115-0.688-0.345s0.25-0.332,0.75-0.308
		l1.021-0.099c0.525-0.115,0.857-0.742,0.997-1.883C766.704,445.599,766.745,443.24,766.745,439.271z"/>
	<path display="inline" d="M807.065,449.667c-7.474,0.146-13.65-5.793-13.797-13.267c-0.064-3.307,1.084-6.522,3.228-9.041
		c2.576-3.01,6.214-4.516,10.914-4.516c3.684-0.195,7.3,1.044,10.089,3.458c2.524,2.432,3.871,5.838,3.691,9.339
		c0.28,7.47-5.548,13.752-13.018,14.032c-0.381,0.014-0.763,0.013-1.145-0.006H807.065z M808.505,447.957
		c1.793,0.048,3.535-0.601,4.86-1.809c2.051-1.846,3.076-4.926,3.076-9.24c0.151-3.285-0.879-6.515-2.903-9.105
		c-1.73-2.146-4.355-3.373-7.112-3.322c-2.11-0.095-4.167,0.685-5.685,2.153c-1.829,1.829-2.739,4.7-2.731,8.613
		c-0.137,3.244,0.854,6.435,2.806,9.031C802.63,446.679,805.497,448.051,808.505,447.957z"/>
	<path display="inline" d="M832.99,436.502v2.769c0,3.854,0.058,6.283,0.173,7.284c0.139,1.14,0.582,1.768,1.328,1.882
		c0.566,0.084,1.139,0.129,1.711,0.136c0.385,0,0.578,0.09,0.578,0.271s-0.25,0.295-0.751,0.345c-0.819,0-1.845,0-3.075,0h-2.117
		h-2.005h-2.351c-0.476,0-0.713-0.115-0.713-0.345s0.25-0.332,0.75-0.308c0.32-0.049,0.652-0.082,0.997-0.099
		c0.524-0.114,0.856-0.742,0.996-1.882c0.115-0.887,0.173-3.314,0.173-7.284v-6.017c0-4.102-0.025-6.518-0.074-7.248
		c0.063-0.928-0.566-1.762-1.477-1.956c-0.438-0.077-0.884-0.109-1.329-0.099c-0.394,0-0.578-0.086-0.578-0.271
		s0.259-0.345,0.788-0.345c0.528,0,1.574,0,2.756,0h2.178c5.545,0,8.556,0,9.031,0c0.471-0.009,0.939-0.054,1.402-0.135
		c0.436-0.14,0.615-0.209,0.542-0.209c0.159,0,0.246,0.098,0.246,0.308c-0.019,0.175-0.051,0.348-0.099,0.517
		c-0.074,0.345-0.123,0.688-0.173,1.021c-0.049,0.779-0.106,1.701-0.172,2.768c-0.05,0.32-0.164,0.48-0.345,0.48
		c-0.209,0-0.319-0.185-0.345-0.542c0.021-0.444-0.05-0.888-0.209-1.304c-0.295-0.664-1.05-1.009-2.264-1.033l-5.267-0.099
		c-0.205,0-0.308,0.159-0.308,0.479v8.613c0,0.209,0.074,0.308,0.234,0.308h4.38c0.96,0,1.497,0,1.612,0
		c0.531-0.008,1.037-0.229,1.402-0.615c0.181-0.229,0.328-0.345,0.442-0.345c0.136,0,0.21,0.099,0.21,0.308s0,0.295-0.099,0.751
		c-0.099,0.455-0.123,0.983-0.173,1.365c-0.09,0.936-0.135,1.756-0.135,2.461c0,0.431-0.111,0.652-0.345,0.652
		s-0.233-0.222-0.308-0.652c-0.073-0.431-0.123-0.591-0.172-0.886c-0.276-0.729-0.969-1.216-1.747-1.23
		c-0.55-0.065-2.24-0.099-5.069-0.099C833.113,436.194,832.99,436.293,832.99,436.502z"/>
	<path display="inline" d="M865.19,449.667c-1.708,0.053-3.409-0.249-4.995-0.886c-0.452-0.202-0.718-0.678-0.652-1.169
		c0-1.23,0.058-2.724,0.172-4.479c0-0.591,0.185-0.886,0.406-0.886s0.345,0.196,0.345,0.578c0.019,0.594,0.122,1.183,0.308,1.747
		c0.547,2.22,2.647,3.696,4.922,3.457c1.271,0.07,2.516-0.373,3.457-1.229c0.726-0.684,1.135-1.637,1.132-2.634
		c0-1.895-1.115-3.72-3.347-5.476l-1.575-1.229c-3.379-2.65-5.069-5.353-5.069-8.108c-0.038-1.809,0.772-3.53,2.19-4.651
		c1.626-1.267,3.651-1.908,5.709-1.809c1.536,0.006,3.064,0.2,4.553,0.578c0.32,0.09,0.48,0.226,0.48,0.406
		c0,0.271,0,0.356-0.074,1.23c-0.074,0.873-0.074,1.82-0.074,2.892c0,0.688-0.127,1.029-0.381,1.021
		c-0.255-0.008-0.369-0.213-0.345-0.615c-0.021-0.835-0.334-1.637-0.886-2.264c-0.896-1.111-2.266-1.732-3.691-1.673
		c-1.079-0.061-2.142,0.286-2.978,0.972c-0.728,0.643-1.129,1.577-1.095,2.547c0.009,0.822,0.28,1.62,0.774,2.276
		c0.822,1.016,1.783,1.91,2.854,2.657l0.96,0.714c1.68,1.176,3.148,2.628,4.344,4.294c0.833,1.325,1.261,2.865,1.23,4.43
		c0.085,2.42-1.143,4.697-3.212,5.955C869.003,449.287,867.104,449.758,865.19,449.667z"/>
	<path display="inline" d="M894.24,449.667c-4.971,0-8.875-1.23-11.713-3.691c-2.875-2.555-4.44-6.272-4.258-10.113
		c-0.11-3.556,1.347-6.979,3.986-9.364c2.658-2.46,6.268-3.69,10.828-3.69c1.646,0.008,3.29,0.123,4.922,0.344
		c0.82,0.156,1.96,0.349,3.42,0.579c0.345,0,0.517,0.135,0.517,0.405c0,0.066-0.024,0.259-0.073,0.579
		c-0.05,0.319-0.082,0.754-0.099,1.304c0,1.001-0.033,2.231-0.099,3.691c0,0.529-0.185,0.787-0.405,0.787
		c-0.222,0-0.345-0.246-0.345-0.75c-0.02-1.183-0.496-2.312-1.329-3.15c-0.767-0.713-1.696-1.229-2.707-1.501
		c-1.375-0.422-2.807-0.629-4.245-0.615c-2.336-0.14-4.638,0.617-6.435,2.116c-2.101,1.92-3.15,4.873-3.15,8.859
		c-0.126,3.43,1.217,6.751,3.691,9.13c1.868,1.925,4.429,3.023,7.112,3.051c1.134,0.029,2.269-0.061,3.383-0.271
		c1.113-0.215,2.125-0.79,2.88-1.637c0.591-0.632,0.995-1.415,1.169-2.264c0.086-0.455,0.246-0.688,0.442-0.688
		c0.197,0,0.308,0.172,0.308,0.517c0,0.344-0.086,0.91-0.233,1.98c-0.114,0.854-0.278,1.7-0.492,2.535
		c-0.122,0.467-0.461,0.847-0.91,1.021C898.416,449.472,896.329,449.755,894.24,449.667z"/>
	<path display="inline" d="M909.362,439.271v-6.017c0-4.102-0.024-6.518-0.074-7.248c-0.065-1.099-0.455-1.738-1.168-1.919
		c-0.403-0.095-0.816-0.141-1.23-0.136c-0.369,0-0.542-0.11-0.542-0.344c0-0.234,0.271-0.271,0.824-0.271h2.351h2.104h1.92h2.264
		c0.48,0,0.714,0.087,0.714,0.271s-0.16,0.344-0.492,0.344c-0.363,0.001-0.726,0.034-1.083,0.099
		c-0.779,0.14-1.189,0.792-1.23,1.956c-0.049,0.779-0.073,3.195-0.073,7.248v6.017c0,4.101,0.045,6.599,0.135,7.493
		c0.091,0.894,0.546,1.451,1.366,1.673c0.578,0.085,1.162,0.13,1.747,0.136c0.369,0,0.554,0.09,0.554,0.271
		s-0.218,0.295-0.652,0.345c-0.869,0-1.924,0-3.162,0h-2.178h-1.932h-2.375c-0.455,0-0.689-0.111-0.689-0.345
		s0.246-0.259,0.751-0.308l1.021-0.099c0.549-0.114,0.882-0.681,0.996-1.697C909.342,445.722,909.387,443.232,909.362,439.271z"/>
	<path display="inline" d="M924.829,439.271v-6.017c0-4.102-0.025-6.518-0.074-7.248c0.063-0.928-0.566-1.762-1.477-1.956
		c-0.438-0.077-0.884-0.109-1.329-0.099c-0.394,0-0.578-0.098-0.578-0.308c0-0.209,0.246-0.308,0.751-0.308c0.504,0,1.611,0,2.793,0
		h2.141c5.405,0,8.276,0,8.613,0c0.496-0.032,0.99-0.102,1.477-0.209l0.541-0.135c0.135,0,0.209,0.098,0.209,0.308
		c0,0.209,0,0.233-0.099,0.615c-0.099,0.381-0.123,0.996-0.159,1.611c-0.037,0.615-0.099,1.366-0.186,2.264
		c-0.049,0.255-0.164,0.382-0.344,0.382c-0.16,0-0.259-0.123-0.296-0.382c-0.036-0.258-0.062-0.492-0.086-0.713
		c-0.019-0.21-0.063-0.417-0.136-0.615c-0.271-0.665-1.033-1.075-2.288-1.23c-0.779-0.091-2.399-0.136-4.86-0.136
		c-0.16,0-0.233,0.111-0.233,0.345v8.613c0,0.245,0.073,0.381,0.233,0.381c3.101,0,4.926-0.024,5.476-0.073
		c0.298-0.011,0.594-0.044,0.886-0.099c0.285-0.059,0.546-0.2,0.751-0.406c0.271-0.295,0.451-0.443,0.541-0.443
		c0.16,0,0.246,0.087,0.246,0.271s0,0.246-0.099,0.688c-0.099,0.443-0.123,1.132-0.172,1.809c-0.09,1.296-0.136,2.06-0.136,2.289
		c0,0.431-0.099,0.651-0.308,0.651s-0.308-0.123-0.308-0.356c-0.014-0.413-0.06-0.824-0.135-1.23
		c-0.181-0.771-0.82-1.214-1.92-1.329c-0.64-0.065-2.26-0.098-4.86-0.098c-0.135,0-0.209,0.11-0.209,0.344v8.011
		c-0.088,0.858,0.205,1.713,0.8,2.338c1.035,0.459,2.171,0.642,3.298,0.528c1.086,0.069,2.176-0.068,3.211-0.405
		c0.908-0.531,1.486-1.484,1.538-2.535c0.074-0.345,0.197-0.517,0.382-0.517s0.271,0.209,0.271,0.615
		c0.015,1.281-0.135,2.559-0.443,3.802c-0.044,0.308-0.22,0.581-0.479,0.751c-0.445,0.119-0.906,0.165-1.365,0.135
		c-1.985,0-3.958-0.032-5.919-0.099l-3.556-0.098h-1.932h-2.375c-0.455,0-0.689-0.111-0.689-0.345c0-0.234,0.246-0.259,0.751-0.308
		l1.021-0.099c0.524-0.115,0.857-0.742,0.996-1.883C924.788,445.599,924.829,443.24,924.829,439.271z"/>
	<path display="inline" d="M947.997,430.165l0.382,14.371c0.065,2.28,0.476,3.548,1.23,3.802c0.065,0,0.509,0.058,1.329,0.173
		c0.681,0.09,1.021,0.205,1.021,0.345c0,0.139-0.263,0.254-0.787,0.344c-0.87,0-1.771,0-2.707,0h-1.538h-1.305
		c-0.886,0-1.686,0-2.398,0c-0.501,0-0.751-0.114-0.751-0.344c0-0.23,0.296-0.333,0.886-0.308l1.23-0.136
		c0.469-0.176,0.802-0.598,0.861-1.095c0.154-1.043,0.225-2.097,0.209-3.15l0.308-20.252c0-0.775,0.173-1.169,0.443-1.169
		s0.603,0.356,1.23,1.058c1.87,2.01,5.405,5.673,10.606,10.987l7.529,7.802h0.099l-0.295-15.356
		c0.001-0.585-0.045-1.169-0.136-1.747c-0.105-0.581-0.486-1.076-1.021-1.328c-0.587-0.17-1.198-0.241-1.809-0.21
		c-0.369,0-0.541-0.098-0.541-0.308c0-0.209,0.295-0.308,0.886-0.308s1.501,0,2.461,0h1.674h1.229c0.771,0,1.489,0,2.153,0
		c0.525,0,0.788,0.103,0.788,0.308c0,0.21-0.209,0.308-0.615,0.308c-1.141,0-1.838,0.378-2.092,1.133
		c-0.141,0.617-0.211,1.249-0.209,1.882l-0.382,21.594c0,0.706-0.147,1.059-0.442,1.059c-0.296,0-0.686-0.25-1.169-0.751
		c-2.19-2.165-5.554-5.521-10.09-10.064c-1.55-1.525-3.298-3.339-5.241-5.438l-2.904-3.187L947.997,430.165z"/>
	<path display="inline" d="M991.099,449.667c-4.971,0-8.875-1.23-11.714-3.691c-2.874-2.555-4.439-6.272-4.257-10.113
		c-0.111-3.556,1.347-6.979,3.986-9.364c2.658-2.46,6.268-3.69,10.828-3.69c1.646,0.008,3.29,0.123,4.922,0.344
		c0.819,0.156,1.96,0.349,3.42,0.579c0.345,0,0.517,0.159,0.517,0.405s0,0.259-0.073,0.579c-0.074,0.319-0.086,0.849-0.099,1.304
		c0,1.001-0.033,2.231-0.099,3.691c-0.049,0.524-0.185,0.787-0.406,0.787s-0.336-0.25-0.345-0.75
		c-0.02-1.183-0.495-2.312-1.328-3.15c-0.767-0.713-1.696-1.229-2.707-1.501c-1.375-0.422-2.807-0.629-4.245-0.615
		c-2.336-0.14-4.638,0.617-6.436,2.116c-2.1,1.92-3.149,4.873-3.149,8.859c-0.127,3.43,1.216,6.751,3.691,9.13
		c1.868,1.925,4.429,3.023,7.111,3.051c1.135,0.03,2.269-0.061,3.384-0.271c1.113-0.215,2.125-0.79,2.879-1.637
		c0.592-0.632,0.996-1.415,1.17-2.264c0.09-0.459,0.237-0.688,0.442-0.688s0.308,0.172,0.308,0.517c0,0.254-0.078,0.914-0.233,1.98
		c-0.114,0.854-0.278,1.7-0.492,2.535c-0.12,0.468-0.46,0.849-0.911,1.021C995.274,449.472,993.187,449.755,991.099,449.667z"/>
	<path display="inline" d="M1006.221,439.271v-6.017c0-4.102-0.024-6.518-0.074-7.248c0.063-0.928-0.565-1.762-1.477-1.956
		c-0.438-0.077-0.884-0.109-1.329-0.099c-0.381,0-0.578-0.098-0.578-0.308c0-0.209,0.246-0.308,0.751-0.308c0.504,0,1.611,0,2.793,0
		h2.141c5.406,0,8.276,0,8.613,0c0.497-0.032,0.99-0.102,1.477-0.209l0.541-0.135c0.136,0,0.209,0.098,0.209,0.308
		c0,0.209,0,0.233-0.098,0.615c-0.099,0.381-0.123,0.996-0.148,1.611c-0.024,0.615-0.099,1.366-0.185,2.264
		c-0.049,0.255-0.164,0.382-0.344,0.382c-0.181,0-0.279-0.127-0.296-0.382c0-0.246-0.062-0.492-0.086-0.713
		c-0.019-0.21-0.064-0.417-0.136-0.615c-0.271-0.665-1.033-1.075-2.288-1.23c-0.779-0.091-2.399-0.136-4.86-0.136
		c-0.16,0-0.233,0.111-0.233,0.345v8.613c0,0.245,0.073,0.381,0.233,0.381c3.101,0,4.926-0.024,5.476-0.073
		c0.297-0.011,0.594-0.044,0.886-0.099c0.285-0.059,0.546-0.2,0.75-0.406c0.271-0.295,0.452-0.443,0.542-0.443
		c0.16,0,0.246,0.087,0.246,0.271s0,0.246-0.099,0.688c-0.099,0.443-0.123,1.132-0.172,1.809c-0.091,1.296-0.136,2.06-0.136,2.289
		c0,0.431-0.099,0.651-0.308,0.651s-0.308-0.123-0.308-0.356c-0.015-0.413-0.06-0.824-0.135-1.23
		c-0.181-0.771-0.82-1.214-1.92-1.329c-0.64-0.065-2.26-0.098-4.86-0.098c-0.135,0-0.209,0.11-0.209,0.344v8.011
		c-0.126,0.899,0.169,1.807,0.8,2.461c1.035,0.459,2.171,0.642,3.298,0.528c1.086,0.069,2.176-0.068,3.211-0.405
		c0.903-0.553,1.465-1.526,1.489-2.584c0.073-0.345,0.196-0.518,0.381-0.518s0.271,0.21,0.271,0.615
		c0.015,1.281-0.134,2.559-0.442,3.803c-0.045,0.307-0.22,0.58-0.479,0.75c-0.445,0.12-0.906,0.166-1.366,0.136
		c-1.985,0-3.958-0.033-5.918-0.099l-3.556-0.099h-1.933h-2.374c-0.46,0-0.689-0.114-0.689-0.345c0-0.229,0.25-0.332,0.751-0.308
		l1.021-0.098c0.525-0.115,0.857-0.743,0.997-1.883C1006.167,445.623,1006.221,443.24,1006.221,439.271z"/>
</g>
<g id="Layer_2">
	<g>
		<g>
			<circle fill="#222065" cx="106.031" cy="382.711" r="100.031"/>
			<circle fill="#FFFFFF" cx="106.031" cy="382.711" r="83.528"/>
		</g>
		<g>
			<polygon fill="#FFFFFF" points="31.125,405.703 21.778,388.666 51.405,388.666 57.484,421.403 25.775,421.405 			"/>
			<polygon fill="#222065" points="53.837,418.455 48.853,391.617 26.849,391.617 34.429,405.433 29.992,418.458 			"/>
			<path fill="#FFFFFF" d="M180.937,405.707l5.35,15.698h-30.081l0.263-3.181c0.484-5.847,1.024-11.732,1.824-17.547
				c0.434-3.151,0.965-7.002,2.027-10.015l0.704-1.995h29.259L180.937,405.707z"/>
			<path fill="#222065" d="M159.512,418.458c1.175-14.241,2.408-23.188,3.697-26.841h22.006l-7.583,13.815l4.438,13.025H159.512z"/>
			<path fill="#222065" d="M45.231,403.376l-0.959-74.866l6.279-1.872c3.872-1.156,7.692-2.483,11.497-3.838
				c4.876-1.74,9.723-3.564,14.544-5.454c4.823-1.891,9.623-3.847,14.373-5.918c3.629-1.582,7.263-3.203,10.749-5.083l4.317-2.326
				l4.318,2.326c3.489,1.878,7.122,3.501,10.751,5.083c4.751,2.069,9.55,4.026,14.374,5.917c4.821,1.89,9.666,3.716,14.544,5.455
				c3.805,1.356,7.626,2.683,11.497,3.838l6.278,1.872l-0.958,74.867c-0.14,10.81-3.412,20.638-10,29.234
				c-11.509,15.019-30.055,22.775-46.886,30.149l-3.917,1.713l-3.917-1.713c-7.129-3.126-14.288-6.188-21.168-9.843
				C60.895,442.265,45.538,427.48,45.231,403.376"/>
			<path fill="#FFFFFF" d="M49.954,403.315l-0.915-71.299l2.861-0.856c3.94-1.175,7.861-2.533,11.735-3.915
				c4.921-1.755,9.816-3.596,14.68-5.504c4.877-1.913,9.734-3.891,14.537-5.985c3.722-1.624,7.525-3.327,11.103-5.253l2.077-1.12
				l2.078,1.12c3.578,1.927,7.379,3.629,11.104,5.253c4.801,2.092,9.66,4.073,14.535,5.985c4.865,1.908,9.759,3.749,14.682,5.504
				c3.873,1.382,7.792,2.739,11.732,3.915l2.862,0.856l-0.915,71.299c-0.125,9.799-3.058,18.636-9.023,26.422
				c-10.857,14.17-29.135,21.73-45.034,28.695l-2.021,0.886l-2.02-0.886c-7.025-3.079-14.068-6.083-20.848-9.688
				C64.757,438.969,50.238,425.627,49.954,403.315"/>
			<path fill="#222065" d="M53.906,403.265l-0.875-68.314c12.672-3.78,41.165-14.735,52.798-20.967l0.201-0.108l0.203,0.108
				c11.633,6.232,40.126,17.187,52.797,20.967l-0.876,68.314c-0.387,30.188-29.488,41.823-51.69,51.546l-0.434,0.188l-0.434-0.188
				C83.396,445.088,54.294,433.453,53.906,403.265"/>
			<path fill="#EFEEEE" d="M106.031,395.69c1.776,0,3.218,1.441,3.218,3.219c0,1.778-1.442,3.22-3.218,3.22s-3.217-1.441-3.217-3.22
				C102.814,397.132,104.253,395.69,106.031,395.69"/>
			<path fill="#EFEEEE" d="M71.078,377.134c-0.94-0.536-1.772-1.32-2.299-2.162c0.92,0.229,1.846,0.757,2.837,1.443
				c-0.453-4.622-5.055-3.716-6.57-3.936C64.925,375.587,69.131,378.2,71.078,377.134"/>
			<path fill="#EFEEEE" d="M68.639,369.069c-0.708-0.851-1.233-1.891-1.457-2.871c0.786,0.555,1.482,1.39,2.187,2.399
				c1.052-4.481-3.532-5.343-4.877-6.11C63.391,365.343,66.483,369.342,68.639,369.069"/>
			<path fill="#EFEEEE" d="M68.922,361.148c-0.577-0.89-0.965-1.937-1.072-2.891c0.683,0.621,1.251,1.496,1.812,2.534
				c1.464-4.103-2.772-5.478-3.962-6.368C64.359,356.987,66.859,361.141,68.922,361.148"/>
			<path fill="#EFEEEE" d="M70.234,353.065c-0.358-0.936-0.512-1.973-0.431-2.865c0.505,0.715,0.858,1.634,1.171,2.704
				c2.106-3.412-1.492-5.593-2.405-6.663C66.865,348.278,68.357,352.607,70.234,353.065"/>
			<path fill="#EFEEEE" d="M72.333,346.011c0.027-0.936,0.262-1.876,0.647-2.596c0.173,0.811,0.147,1.732,0.036,2.764
				c2.982-2.021,0.711-5.337,0.317-6.615C71.176,340.587,70.91,344.855,72.333,346.011"/>
			<path fill="#EFEEEE" d="M75.885,340.443c0.199-0.823,0.583-1.6,1.055-2.154c0.002,0.754-0.191,1.562-0.482,2.449
				c3.01-1.139,1.623-4.56,1.512-5.774C75.872,335.401,74.844,339.113,75.885,340.443"/>
			<path fill="#EFEEEE" d="M80.655,335.005c0.311-0.662,0.77-1.25,1.269-1.628c-0.127,0.645-0.432,1.295-0.832,1.992
				c2.761-0.372,2.164-3.564,2.277-4.623C81.507,330.702,79.995,333.664,80.655,335.005"/>
			<path fill="#EFEEEE" d="M85.443,332.033c0.626-0.305,1.325-0.452,1.933-0.408c-0.473,0.415-1.088,0.716-1.806,0.989
				c2.366,1.581,3.759-1.31,4.463-2.057C88.611,329.261,85.71,330.541,85.443,332.033"/>
			<path fill="#EFEEEE" d="M82.395,337.083c0.679-0.119,1.338-0.41,1.823-0.806c-0.607-0.066-1.274,0.049-2.012,0.246
				c1.169-2.724,3.806-1.134,4.775-0.928C86.454,337.52,83.379,338.17,82.395,337.083"/>
			<path fill="#EFEEEE" d="M77.765,341.852c0.753-0.097,1.49-0.385,2.04-0.797c-0.665-0.102-1.404-0.009-2.225,0.171
				c1.4-2.939,4.238-1.064,5.296-0.791C82.214,342.528,78.803,343.097,77.765,341.852"/>
			<path fill="#EFEEEE" d="M74.218,347.409c0.744-0.249,1.439-0.69,1.923-1.218c-0.689,0.031-1.421,0.275-2.219,0.623
				c0.906-3.253,4.097-1.929,5.214-1.866C78.832,347.197,75.482,348.458,74.218,347.409"/>
			<path fill="#EFEEEE" d="M72.138,353.743c0.764-0.384,1.452-0.967,1.899-1.609c-0.735,0.142-1.486,0.518-2.298,1.017
				c0.533-3.637,4.139-2.718,5.346-2.827C77.062,352.789,73.637,354.671,72.138,353.743"/>
			<path fill="#EFEEEE" d="M70.64,361.236c0.801-0.5,1.499-1.208,1.932-1.957c-0.792,0.231-1.579,0.72-2.419,1.351
				c0.256-4.027,4.275-3.398,5.584-3.643C75.934,359.681,72.359,362.093,70.64,361.236"/>
			<path fill="#EFEEEE" d="M70.805,368.657c0.723-0.746,1.289-1.685,1.565-2.59c-0.777,0.461-1.489,1.193-2.223,2.088
				c-0.686-4.305,3.69-4.754,5.009-5.371C76.002,365.561,72.818,369.083,70.805,368.657"/>
			<path fill="#EFEEEE" d="M73.062,375.989c0.453-1.001,0.691-2.125,0.659-3.111c-0.6,0.747-1.047,1.728-1.459,2.877
				c-2.09-3.902,1.995-6.023,3.07-7.129C77.067,370.99,75.152,375.625,73.062,375.989"/>
			<path fill="#EFEEEE" d="M75.912,385.244c-1.112-0.35-2.159-0.987-2.892-1.757c1.027,0.025,2.121,0.368,3.318,0.865
				c-1.427-4.82-6.148-2.762-7.809-2.638C69.037,385.055,74.055,386.84,75.912,385.244"/>
			<path fill="#EFEEEE" d="M77.869,382.469c0.082-1.156-0.09-2.349-0.472-3.287c-0.315,0.971-0.398,2.109-0.388,3.395
				c-3.418-2.918-0.213-6.667,0.431-8.184C79.967,375.962,79.765,381.251,77.869,382.469"/>
			<path fill="#EFEEEE" d="M81.868,392.009c-1.264-0.119-2.513-0.565-3.452-1.229c1.108-0.207,2.351-0.09,3.733,0.171
				c-2.482-4.846-7.143-1.557-8.899-1.039C74.452,393.382,80.189,394.15,81.868,392.009"/>
			<path fill="#EFEEEE" d="M83.408,389.371c-0.164-1.245-0.602-2.456-1.209-3.352c-0.122,1.104,0.037,2.325,0.324,3.681
				c-4.239-2.222-1.666-6.986-1.313-8.749C84.219,381.973,85.146,387.608,83.408,389.371"/>
			<path fill="#EFEEEE" d="M89.538,397.178c-1.333,0.099-2.7-0.146-3.778-0.668c1.124-0.409,2.433-0.505,3.912-0.479
				c-3.314-4.609-7.67-0.365-9.423,0.479C82.025,399.91,88.113,399.703,89.538,397.178"/>
			<path fill="#EFEEEE" d="M91.333,393.943c-0.541-1.223-1.356-2.317-2.249-3.025c0.206,1.18,0.735,2.379,1.439,3.672
				c-5.024-0.801-3.811-6.603-3.978-8.536C89.944,386.055,92.592,391.523,91.333,393.943"/>
			<path fill="#EFEEEE" d="M98.92,400.166c-1.29,0.378-2.674,0.424-3.827,0.141c1.027-0.639,2.293-1.011,3.747-1.299
				c-4.088-3.815-7.586,1.268-9.151,2.467C92.05,404.433,97.983,402.938,98.92,400.166"/>
			<path fill="#EFEEEE" d="M100.092,396.611c-0.752-1.081-1.75-1.984-2.756-2.492c0.416,1.118,1.154,2.182,2.079,3.299
				c-5.071,0.276-4.938-5.667-5.452-7.529C97.295,389.17,100.885,393.974,100.092,396.611"/>
			<path fill="#EFEEEE" d="M140.985,377.134c0.94-0.536,1.771-1.32,2.299-2.162c-0.92,0.231-1.846,0.757-2.837,1.443
				c0.454-4.622,5.053-3.716,6.57-3.936C147.139,375.587,142.932,378.2,140.985,377.134"/>
			<path fill="#EFEEEE" d="M143.424,369.069c0.708-0.851,1.232-1.891,1.457-2.871c-0.786,0.555-1.482,1.39-2.187,2.399
				c-1.051-4.481,3.533-5.343,4.877-6.11C148.672,365.343,145.58,369.342,143.424,369.069"/>
			<path fill="#EFEEEE" d="M143.141,361.148c0.575-0.89,0.962-1.937,1.071-2.891c-0.683,0.621-1.253,1.496-1.812,2.534
				c-1.464-4.103,2.772-5.478,3.961-6.368C147.703,356.987,145.204,361.141,143.141,361.148"/>
			<path fill="#EFEEEE" d="M141.828,353.065c0.359-0.936,0.513-1.973,0.432-2.865c-0.505,0.715-0.86,1.634-1.173,2.704
				c-2.104-3.412,1.492-5.593,2.407-6.663C145.197,348.278,143.705,352.607,141.828,353.065"/>
			<path fill="#EFEEEE" d="M139.729,346.011c-0.027-0.936-0.262-1.876-0.645-2.596c-0.174,0.811-0.149,1.732-0.037,2.764
				c-2.982-2.021-0.712-5.337-0.316-6.615C140.888,340.587,141.154,344.855,139.729,346.011"/>
			<path fill="#EFEEEE" d="M136.178,340.444c-0.2-0.822-0.582-1.601-1.054-2.154c-0.003,0.754,0.192,1.563,0.481,2.449
				c-3.009-1.138-1.62-4.558-1.511-5.773C136.19,335.401,137.22,339.113,136.178,340.444"/>
			<path fill="#EFEEEE" d="M131.408,335.005c-0.311-0.662-0.769-1.25-1.267-1.626c0.125,0.643,0.43,1.293,0.831,1.991
				c-2.761-0.373-2.165-3.565-2.277-4.622C130.556,330.702,132.068,333.664,131.408,335.005"/>
			<path fill="#EFEEEE" d="M126.62,332.033c-0.628-0.305-1.326-0.452-1.934-0.408c0.472,0.416,1.088,0.716,1.806,0.989
				c-2.366,1.581-3.759-1.31-4.463-2.057C123.453,329.261,126.352,330.541,126.62,332.033"/>
			<path fill="#EFEEEE" d="M129.668,337.083c-0.679-0.119-1.339-0.41-1.823-0.806c0.606-0.066,1.274,0.049,2.012,0.246
				c-1.169-2.724-3.807-1.134-4.775-0.928C125.61,337.52,128.685,338.17,129.668,337.083"/>
			<path fill="#EFEEEE" d="M134.297,341.852c-0.752-0.095-1.491-0.385-2.041-0.797c0.667-0.102,1.405-0.009,2.227,0.171
				c-1.402-2.939-4.237-1.064-5.296-0.791C129.849,342.528,133.26,343.097,134.297,341.852"/>
			<path fill="#EFEEEE" d="M137.844,347.409c-0.743-0.249-1.438-0.69-1.922-1.218c0.689,0.031,1.42,0.275,2.219,0.623
				c-0.907-3.253-4.099-1.929-5.214-1.867C133.231,347.197,136.58,348.458,137.844,347.409"/>
			<path fill="#EFEEEE" d="M139.927,353.743c-0.766-0.384-1.452-0.967-1.901-1.609c0.737,0.142,1.487,0.518,2.298,1.017
				c-0.532-3.637-4.138-2.718-5.345-2.827C135,352.789,138.424,354.671,139.927,353.743"/>
			<path fill="#EFEEEE" d="M141.421,361.236c-0.799-0.5-1.497-1.208-1.929-1.957c0.792,0.231,1.58,0.72,2.418,1.351
				c-0.257-4.027-4.275-3.398-5.585-3.643C136.129,359.681,139.702,362.093,141.421,361.236"/>
			<path fill="#EFEEEE" d="M141.257,368.657c-0.723-0.746-1.288-1.685-1.565-2.59c0.778,0.461,1.488,1.193,2.222,2.088
				c0.688-4.305-3.69-4.754-5.007-5.371C136.063,365.561,139.245,369.083,141.257,368.657"/>
			<path fill="#EFEEEE" d="M139.001,375.989c-0.453-1.001-0.689-2.125-0.658-3.111c0.6,0.747,1.046,1.728,1.461,2.877
				c2.09-3.902-1.997-6.023-3.07-7.129C134.995,370.99,136.911,375.625,139.001,375.989"/>
			<path fill="#EFEEEE" d="M136.15,385.244c1.113-0.35,2.16-0.987,2.892-1.757c-1.026,0.025-2.121,0.368-3.317,0.865
				c1.427-4.82,6.147-2.762,7.809-2.638C143.025,385.055,138.008,386.84,136.15,385.244"/>
			<path fill="#EFEEEE" d="M134.195,382.469c-0.082-1.156,0.09-2.349,0.471-3.287c0.315,0.971,0.397,2.109,0.388,3.395
				c3.418-2.918,0.213-6.667-0.431-8.184C132.095,375.962,132.3,381.251,134.195,382.469"/>
			<path fill="#EFEEEE" d="M130.195,392.009c1.263-0.119,2.511-0.565,3.452-1.229c-1.108-0.207-2.351-0.09-3.734,0.171
				c2.481-4.846,7.143-1.557,8.899-1.039C137.611,393.382,131.874,394.15,130.195,392.009"/>
			<path fill="#EFEEEE" d="M128.655,389.371c0.164-1.245,0.601-2.456,1.208-3.352c0.123,1.104-0.035,2.325-0.322,3.681
				c4.238-2.222,1.663-6.986,1.312-8.749C127.845,381.973,126.916,387.608,128.655,389.371"/>
			<path fill="#EFEEEE" d="M122.525,397.182c1.334,0.095,2.7-0.149,3.777-0.672c-1.121-0.409-2.433-0.505-3.91-0.479
				c3.314-4.609,7.67-0.365,9.422,0.479C130.037,399.91,123.951,399.703,122.525,397.182"/>
			<path fill="#EFEEEE" d="M120.729,393.943c0.541-1.223,1.356-2.317,2.25-3.025c-0.206,1.18-0.737,2.379-1.438,3.672
				c5.024-0.801,3.81-6.603,3.976-8.536C122.119,386.055,119.473,391.523,120.729,393.943"/>
			<path fill="#EFEEEE" d="M113.143,400.166c1.291,0.378,2.674,0.424,3.828,0.141c-1.026-0.639-2.293-1.011-3.75-1.299
				c4.09-3.815,7.588,1.268,9.154,2.467C120.011,404.433,114.08,402.938,113.143,400.166"/>
			<path fill="#EFEEEE" d="M111.971,396.611c0.753-1.081,1.75-1.981,2.755-2.492c-0.416,1.118-1.154,2.182-2.078,3.299
				c5.072,0.276,4.938-5.667,5.454-7.529C114.769,389.17,111.178,393.974,111.971,396.611"/>
			<polygon fill="#EFEEEE" points="106.031,319.632 107.294,323.541 111.4,323.533 108.073,325.942 109.352,329.845 
				106.031,327.424 102.712,329.845 103.99,325.942 100.661,323.533 104.771,323.541 			"/>
			<path fill="#EFEEEE" d="M106.42,335.658c14.531,0,26.309,11.779,26.309,26.309c0,14.53-11.778,26.309-26.309,26.309
				c-14.53,0-26.309-11.779-26.309-26.309C80.111,347.437,91.891,335.658,106.42,335.658"/>
			<rect x="38.676" y="381.641" fill="#FFFFFF" width="134.71" height="32.083"/>
			<path fill="#222065" d="M118.831,375.611c-5.124,0.624-10.25,1.719-12.259,3.542c2.781-1.542,8.28-2.354,13.288-2.52
				c0,0,2.227-6.588,6.682-19.764c-3.697,0.359-7.734,1.777-12.114,4.252c3.73-1.299,7.033-2.086,9.913-2.362
				C120.667,369.994,118.831,375.611,118.831,375.611"/>
			<path fill="#222065" d="M120.947,376.934c-4.374,0.482-9.765,0.401-12.646,2.108c2.839-1.16,8.659-1.114,13.645-1.182
				c0,0,2.405-5.646,7.212-16.939c-1.218,0.059-2.474,0.217-3.773,0.472l-0.435,1.245c0.674-0.072,1.325-0.122,1.957-0.152
				C122.936,372.119,120.947,376.934,120.947,376.934"/>
			<path fill="#222065" d="M122.421,378.823c-2.771-0.343-7.886-1.172-12.657,0.289c4.291-0.818,9.654,0.233,13.589,0.717
				c0,0,2.79-5.438,8.373-16.315c-1.05-0.034-2.134,0.003-3.253,0.11l-0.549,1.254c0.495-0.007,0.976,0,1.445,0.015
				C124.737,374.181,122.421,378.823,122.421,378.823"/>
			<path fill="#222065" d="M94.415,375.611c5.125,0.624,10.25,1.719,12.259,3.542c-2.779-1.542-8.281-2.354-13.287-2.52
				c0,0-2.227-6.588-6.681-19.764c3.697,0.359,7.735,1.777,12.114,4.252c-3.729-1.299-7.033-2.086-9.912-2.362
				C92.578,369.994,94.415,375.611,94.415,375.611"/>
			<path fill="#222065" d="M92.298,376.934c4.373,0.482,9.766,0.401,12.646,2.108c-2.838-1.16-8.66-1.114-13.645-1.182
				c0,0-2.404-5.646-7.212-16.939c1.219,0.059,2.475,0.217,3.773,0.472l0.436,1.245c-0.673-0.072-1.325-0.122-1.957-0.152
				C90.311,372.119,92.298,376.934,92.298,376.934"/>
			<path fill="#222065" d="M90.824,378.823c2.771-0.343,7.887-1.172,12.657,0.289c-4.292-0.818-9.654,0.233-13.588,0.717
				c0,0-2.792-5.438-8.375-16.315c1.05-0.034,2.134,0.003,3.252,0.11l0.548,1.254c-0.493-0.007-0.976,0-1.445,0.015
				C88.508,374.181,90.824,378.823,90.824,378.823"/>
			<rect x="42.005" y="384.969" fill="#222065" width="128.053" height="25.427"/>
			<rect x="76.153" y="429.481" fill="#EFEEEE" width="59.757" height="0.987"/>
			<g>
				<path fill="#222065" d="M103.685,358.333l-3.416-2.47l-2.256,0.004l4.109,2.974l-2.861,8.747l1.841-1.343
					C101.958,363.581,102.817,360.981,103.685,358.333L103.685,358.333z M102.602,365.15l0.69-2.146l3.404-2.483l2.939,2.144
					l-0.005,0.008l3.818,2.83l0.683,2.086l-7.435-5.423L102.602,365.15L102.602,365.15z M112.858,363.703l-1.589-4.862l7.456-5.396
					l-2.278,0.005c-2.263,1.668-4.466,3.237-6.742,4.883l1.311,4.005L112.858,363.703L112.858,363.703z M114.599,353.454
					l-1.805,1.332l-4.236,0.008l-1.861-5.765l-0.002,0.007L106,346.862l0.696-2.155l2.827,8.757L114.599,353.454L114.599,353.454z
					 M105.421,348.651l-1.554,4.812l-9.202-0.019l1.839,1.331c2.8-0.006,5.539,0.012,8.33,0.017l1.281-3.967L105.421,348.651z"/>
			</g>
			<g>
				<path fill="#FFFFFF" d="M49.212,400.284c0.15,1.305,0.573,2.291,1.27,2.967c0.696,0.67,1.561,1.01,2.594,1.01
					c0.763,0,1.366-0.211,1.807-0.629c0.442-0.42,0.664-0.978,0.664-1.662c0-1.049-0.712-1.85-2.134-2.404l-2.2-0.921
					c-1.707-0.705-2.562-1.862-2.562-3.481c0-0.72,0.173-1.376,0.518-1.975c0.345-0.6,0.862-1.08,1.549-1.438
					c0.689-0.359,1.528-0.539,2.515-0.539c0.494,0,0.914,0.035,1.258,0.11c0.344,0.075,0.69,0.174,1.034,0.295
					c0.343,0.12,0.592,0.199,0.741,0.245c0.254,0.089,0.479,0.135,0.673,0.135c0.254,0,0.463-0.03,0.628-0.09
					c-0.045,0.36-0.068,0.931-0.068,1.706c0,0.435,0.007,0.749,0.022,0.943c0.016,0.196,0.052,0.375,0.113,0.541h-0.764
					c0-0.931-0.319-1.684-0.955-2.258c-0.636-0.576-1.412-0.866-2.325-0.866c-0.719,0-1.309,0.188-1.774,0.563
					c-0.465,0.373-0.696,0.858-0.696,1.46c0,0.42,0.153,0.798,0.46,1.133s0.798,0.64,1.471,0.909l1.908,0.809
					c1.17,0.51,2.003,1.053,2.505,1.628c0.502,0.575,0.752,1.338,0.752,2.278c0,0.81-0.188,1.54-0.561,2.191
					c-0.375,0.649-0.929,1.167-1.664,1.549c-0.733,0.383-1.624,0.575-2.672,0.575c-0.66,0-1.37-0.1-2.134-0.294
					c-0.854-0.225-1.439-0.336-1.752-0.336c-0.134,0-0.295,0.01-0.482,0.031c-0.187,0.023-0.312,0.049-0.371,0.079
					c0.06-0.315,0.09-0.892,0.09-1.728c0-0.601-0.015-1.154-0.045-1.664c-0.03-0.507-0.075-0.776-0.135-0.81L49.212,400.284z"/>
				<path fill="#FFFFFF" d="M72.975,404.012v0.833h-6.738v-0.833l1.033,0.048c0.448,0.041,0.673-0.139,0.673-0.54
					c0-0.256-0.075-0.546-0.225-0.875l-0.831-1.98h-4.941l-0.764,1.842c-0.209,0.468-0.314,0.839-0.314,1.126
					c0,0.313,0.166,0.463,0.493,0.45l1.01-0.07v0.833h-4.064v-0.833l0.652,0.048h0.09c0.298,0,0.546-0.144,0.741-0.428
					c0.224-0.331,0.449-0.762,0.674-1.303l4.626-11.117h1.102l4.671,11.162c0.209,0.537,0.426,0.967,0.651,1.28
					c0.209,0.266,0.47,0.405,0.785,0.405h0.112L72.975,404.012z M62.261,399.88h4.312l-2.179-5.164L62.261,399.88z"/>
				<path fill="#FFFFFF" d="M73.401,404.012l0.786,0.048h0.045c0.255,0,0.382-0.168,0.382-0.495v-10.872
					c0-0.136-0.038-0.249-0.113-0.349c-0.075-0.095-0.179-0.138-0.314-0.121l-0.786,0.045v-0.832h5.548v0.832l-0.786-0.045h-0.046
					c-0.12,0-0.217,0.045-0.292,0.134c-0.074,0.089-0.113,0.2-0.113,0.336v10.872c0,0.356,0.15,0.523,0.451,0.495l0.786-0.048v0.833
					h-5.548V404.012z"/>
				<path fill="#FFFFFF" d="M94.266,391.437v0.672l-0.877-0.042h-0.043c-0.255,0-0.384,0.158-0.384,0.472v12.439h-1.347
					l-8.782-11.923v10.688c0,0.33,0.143,0.494,0.428,0.494l1.101-0.044v0.653h-3.775v-0.653l0.876,0.044
					c0.299,0,0.448-0.164,0.448-0.494v-11.204c0-0.136-0.041-0.252-0.123-0.35c-0.082-0.099-0.191-0.138-0.326-0.121l-0.876,0.041
					v-0.671h4.627l6.829,9.297v-8.222c0-0.297-0.126-0.447-0.382-0.447h-0.067l-1.101,0.042v-0.672H94.266z"/>
				<path fill="#FFFFFF" d="M95.366,391.368c0.27,0.028,0.628,0.044,1.078,0.044h9.411c0.554,0,0.906-0.016,1.056-0.044v3.505
					h-0.742c0-0.916-0.214-1.586-0.641-2.021c-0.427-0.435-1.133-0.653-2.122-0.653h-0.449c-0.149,0-0.24,0.084-0.269,0.25v11.117
					c0,0.327,0.149,0.495,0.45,0.495l1.189-0.048v0.834H97.95v-0.834l1.213,0.048c0.135,0,0.239-0.059,0.314-0.17
					c0.075-0.111,0.113-0.244,0.113-0.394v-11.028c0-0.18-0.09-0.27-0.27-0.27h-0.404c-0.988,0-1.7,0.219-2.134,0.654
					c-0.434,0.435-0.65,1.105-0.65,2.021h-0.764v-3.506H95.366z"/>
				<path fill="#FFFFFF" d="M113.489,400.284c0.15,1.305,0.575,2.291,1.27,2.967c0.695,0.67,1.561,1.01,2.594,1.01
					c0.764,0,1.367-0.211,1.808-0.629c0.442-0.42,0.664-0.978,0.664-1.662c0-1.049-0.71-1.85-2.134-2.404l-2.2-0.921
					c-1.708-0.705-2.561-1.862-2.561-3.481c0-0.72,0.172-1.376,0.517-1.975c0.343-0.6,0.86-1.08,1.549-1.438
					c0.688-0.359,1.528-0.539,2.516-0.539c0.495,0,0.912,0.035,1.258,0.11c0.345,0.075,0.688,0.174,1.033,0.295
					c0.345,0.12,0.592,0.199,0.742,0.245c0.253,0.089,0.479,0.135,0.673,0.135c0.253,0,0.462-0.03,0.627-0.09
					c-0.043,0.36-0.066,0.931-0.066,1.706c0,0.435,0.006,0.749,0.023,0.943c0.014,0.196,0.05,0.375,0.113,0.541h-0.765
					c0-0.931-0.317-1.684-0.955-2.258c-0.635-0.576-1.411-0.866-2.324-0.866c-0.719,0-1.311,0.188-1.773,0.563
					c-0.464,0.373-0.696,0.858-0.696,1.46c0,0.42,0.153,0.798,0.459,1.133c0.307,0.335,0.797,0.64,1.471,0.909l1.909,0.809
					c1.168,0.51,2.001,1.053,2.505,1.628c0.502,0.575,0.752,1.338,0.752,2.278c0,0.81-0.188,1.54-0.562,2.191
					c-0.374,0.649-0.928,1.167-1.662,1.549c-0.735,0.383-1.625,0.575-2.673,0.575c-0.658,0-1.371-0.1-2.133-0.294
					c-0.856-0.225-1.438-0.336-1.753-0.336c-0.135,0-0.296,0.01-0.482,0.031c-0.188,0.023-0.311,0.049-0.371,0.079
					c0.06-0.315,0.09-0.892,0.09-1.728c0-0.601-0.015-1.154-0.045-1.664c-0.029-0.507-0.075-0.776-0.135-0.81L113.489,400.284z"/>
				<path fill="#FFFFFF" d="M123.372,391.368c0.27,0.028,0.629,0.044,1.079,0.044h9.41c0.555,0,0.906-0.016,1.057-0.044v3.505
					h-0.742c0-0.916-0.213-1.586-0.641-2.021c-0.425-0.435-1.133-0.653-2.123-0.653h-0.448c-0.149,0-0.239,0.084-0.27,0.25v11.117
					c0,0.327,0.149,0.495,0.45,0.495l1.19-0.048v0.834h-6.378v-0.834l1.213,0.048c0.135,0,0.239-0.059,0.313-0.17
					c0.075-0.111,0.113-0.244,0.113-0.394v-11.028c0-0.18-0.09-0.27-0.27-0.27h-0.405c-0.988,0-1.699,0.219-2.134,0.654
					c-0.434,0.435-0.65,1.105-0.65,2.021h-0.765V391.368z"/>
				<path fill="#FFFFFF" d="M148.212,404.012v0.833h-6.737v-0.833l1.032,0.048c0.447,0.041,0.674-0.139,0.674-0.54
					c0-0.256-0.075-0.546-0.227-0.875l-0.83-1.98h-4.941l-0.764,1.842c-0.21,0.468-0.315,0.839-0.315,1.126
					c0,0.313,0.166,0.463,0.495,0.45l1.01-0.07v0.833h-4.066v-0.833l0.651,0.048h0.09c0.298,0,0.545-0.144,0.741-0.428
					c0.225-0.331,0.45-0.762,0.675-1.303l4.625-11.117h1.101l4.674,11.162c0.208,0.537,0.425,0.967,0.65,1.28
					c0.21,0.266,0.472,0.405,0.786,0.405h0.113L148.212,404.012z M137.5,399.88h4.311l-2.179-5.164L137.5,399.88z"/>
				<path fill="#FFFFFF" d="M148.638,404.012l0.787,0.048h0.045c0.253,0,0.382-0.168,0.382-0.495v-10.872
					c0-0.136-0.042-0.249-0.124-0.349c-0.083-0.095-0.207-0.138-0.372-0.121l-0.719,0.045v-0.832h5.816
					c1.618,0,2.812,0.272,3.583,0.818c0.771,0.55,1.157,1.397,1.157,2.551c0,0.913-0.289,1.679-0.864,2.29
					c-0.577,0.614-1.376,1.028-2.393,1.234c0.539,0,1.085,0.149,1.64,0.45c0.553,0.3,1.013,0.737,1.382,1.314
					c0.366,0.577,0.55,1.246,0.55,2.012c0,0.419,0.064,0.863,0.192,1.334c0.125,0.473,0.28,0.731,0.46,0.777
					c0.09,0.027,0.186,0.044,0.291,0.044c0.135,0,0.254-0.029,0.36-0.09v0.674h-3.974c-0.18-0.374-0.285-0.87-0.315-1.483
					c-0.03-0.387-0.045-0.675-0.045-0.854v-0.741c0-1.016-0.286-1.771-0.853-2.268c-0.57-0.495-1.258-0.741-2.066-0.741h-0.606
					v4.808c0,0.327,0.15,0.494,0.45,0.494l1.1-0.047v0.833h-5.864v-0.833H148.638z M154.366,397.972
					c0.539,0,0.968-0.261,1.291-0.776c0.323-0.514,0.482-1.214,0.482-2.098c0-1.005-0.18-1.733-0.539-2.191
					c-0.36-0.455-0.914-0.684-1.662-0.684h-0.718c-0.18,0-0.27,0.072-0.27,0.223v5.526H154.366L154.366,397.972z"/>
			</g>
			<g>
				<g>
					<path fill="#FFFFFF" d="M82.857,419.274c0.359-0.612,0.843-1.09,1.459-1.435c0.613-0.341,1.287-0.513,2.02-0.513
						c0.838,0,1.582,0.205,2.234,0.615c0.651,0.41,1.126,0.995,1.419,1.749h-1.55c-0.203-0.414-0.487-0.724-0.848-0.928
						c-0.361-0.203-0.78-0.306-1.255-0.306c-0.521,0-0.984,0.117-1.392,0.351c-0.408,0.234-0.726,0.57-0.956,1.008
						c-0.23,0.438-0.346,0.945-0.346,1.526c0,0.582,0.115,1.091,0.346,1.525c0.23,0.438,0.548,0.776,0.956,1.014
						c0.407,0.237,0.871,0.356,1.392,0.356c0.475,0,0.893-0.102,1.255-0.306c0.361-0.202,0.645-0.513,0.848-0.927h1.55
						c-0.293,0.753-0.769,1.335-1.419,1.743c-0.652,0.407-1.396,0.611-2.234,0.611c-0.741,0-1.415-0.175-2.026-0.517
						c-0.611-0.344-1.096-0.82-1.453-1.429c-0.359-0.611-0.539-1.303-0.539-2.072C82.319,420.572,82.499,419.881,82.857,419.274z"/>
					<path fill="#FFFFFF" d="M93.061,424.856c-0.615-0.344-1.102-0.825-1.458-1.439c-0.358-0.613-0.538-1.305-0.538-2.074
						c0-0.771,0.179-1.462,0.538-2.068c0.359-0.612,0.843-1.09,1.458-1.435c0.615-0.341,1.289-0.513,2.02-0.513
						c0.739,0,1.415,0.172,2.031,0.513c0.615,0.345,1.099,0.822,1.454,1.435c0.355,0.606,0.532,1.298,0.532,2.068
						c0,0.77-0.177,1.461-0.532,2.074c-0.354,0.614-0.839,1.096-1.454,1.439c-0.615,0.342-1.292,0.513-2.031,0.513
						C94.349,425.369,93.675,425.198,93.061,424.856z M96.472,423.895c0.408-0.237,0.725-0.578,0.956-1.02
						c0.229-0.441,0.345-0.95,0.345-1.532c0-0.581-0.116-1.088-0.345-1.526c-0.23-0.438-0.549-0.773-0.956-1.008
						c-0.406-0.233-0.871-0.351-1.392-0.351c-0.52,0-0.983,0.117-1.391,0.351c-0.408,0.234-0.727,0.57-0.956,1.008
						c-0.231,0.438-0.345,0.945-0.345,1.526c0,0.582,0.115,1.091,0.345,1.532s0.548,0.782,0.956,1.02s0.871,0.357,1.391,0.357
						C95.601,424.252,96.066,424.132,96.472,423.895z"/>
					<path fill="#FFFFFF" d="M101.653,424.251h2.659v1.04h-3.949v-7.862h1.29V424.251L101.653,424.251z"/>
					<path fill="#FFFFFF" d="M106.676,424.251h2.659v1.04h-3.948v-7.862h1.289V424.251z"/>
					<path fill="#FFFFFF" d="M111.698,418.471v2.305h2.715v1.053h-2.715v2.41h3.056v1.054h-4.345v-7.874h4.345v1.053H111.698z"/>
					<path fill="#FFFFFF" d="M122.029,419.69c-0.204-0.394-0.488-0.688-0.849-0.889c-0.363-0.201-0.781-0.3-1.257-0.3
						c-0.52,0-0.982,0.117-1.392,0.351c-0.407,0.234-0.725,0.566-0.955,0.996c-0.232,0.428-0.347,0.927-0.347,1.492
						c0,0.566,0.115,1.065,0.347,1.5c0.229,0.435,0.548,0.767,0.955,1.002c0.408,0.232,0.872,0.351,1.392,0.351
						c0.702,0,1.271-0.199,1.709-0.588c0.437-0.393,0.705-0.925,0.804-1.596h-2.954v-1.032h4.334v1.008
						c-0.083,0.611-0.3,1.173-0.65,1.686c-0.351,0.512-0.808,0.923-1.369,1.229c-0.562,0.304-1.186,0.457-1.873,0.457
						c-0.739,0-1.415-0.174-2.025-0.516c-0.611-0.343-1.095-0.821-1.453-1.429c-0.359-0.612-0.537-1.302-0.537-2.073
						c0-0.77,0.178-1.461,0.537-2.067c0.358-0.613,0.843-1.09,1.458-1.435c0.614-0.343,1.287-0.513,2.02-0.513
						c0.838,0,1.582,0.205,2.235,0.615c0.65,0.409,1.124,0.996,1.418,1.748h-1.55V419.69z"/>
					<path fill="#FFFFFF" d="M126.374,418.471v2.305h2.715v1.053h-2.715v2.41h3.053v1.054h-4.345v-7.874h4.345v1.053H126.374z"/>
				</g>
			</g>
			<g>
				<g>
					<path fill="#FFFFFF" d="M97.405,438.986c0.498-0.433,0.891-0.787,1.179-1.065c0.288-0.276,0.528-0.567,0.721-0.866
						c0.192-0.305,0.288-0.604,0.288-0.906c0-0.31-0.074-0.556-0.222-0.732c-0.148-0.173-0.381-0.264-0.697-0.264
						c-0.306,0-0.544,0.098-0.712,0.291c-0.168,0.195-0.259,0.457-0.269,0.787h-0.856c0.015-0.594,0.193-1.046,0.533-1.362
						c0.341-0.313,0.772-0.471,1.297-0.471c0.567,0,1.008,0.158,1.327,0.468c0.319,0.313,0.48,0.727,0.48,1.248
						c0,0.372-0.096,0.731-0.284,1.076c-0.19,0.345-0.416,0.653-0.679,0.928c-0.262,0.274-0.596,0.587-1.001,0.947l-0.351,0.312
						h2.47v0.737h-3.786v-0.645L97.405,438.986z"/>
					<path fill="#FFFFFF" d="M101.863,435.175c0.304-0.506,0.827-0.761,1.569-0.761c0.744,0,1.265,0.255,1.568,0.761
						c0.305,0.504,0.456,1.209,0.456,2.104c0,0.907-0.151,1.619-0.456,2.13c-0.303,0.512-0.826,0.768-1.568,0.768
						s-1.266-0.256-1.569-0.768c-0.305-0.51-0.456-1.223-0.456-2.13C101.407,436.383,101.558,435.678,101.863,435.175z
						 M104.503,436.212c-0.056-0.292-0.166-0.529-0.332-0.711c-0.167-0.187-0.413-0.276-0.74-0.276c-0.327,0-0.574,0.09-0.74,0.276
						c-0.167,0.182-0.275,0.419-0.331,0.711c-0.054,0.29-0.082,0.648-0.082,1.067c0,0.434,0.026,0.804,0.078,1.097
						c0.051,0.298,0.163,0.537,0.332,0.717c0.169,0.183,0.417,0.272,0.743,0.272c0.327,0,0.575-0.09,0.744-0.272
						c0.168-0.18,0.278-0.419,0.332-0.717c0.051-0.293,0.077-0.663,0.077-1.097C104.585,436.859,104.558,436.502,104.503,436.212z"
						/>
					<path fill="#FFFFFF" d="M106.889,438.986c0.499-0.433,0.891-0.787,1.18-1.065c0.289-0.276,0.528-0.567,0.721-0.866
						c0.192-0.305,0.288-0.604,0.288-0.906c0-0.31-0.073-0.556-0.222-0.732c-0.149-0.173-0.382-0.264-0.697-0.264
						c-0.307,0-0.543,0.098-0.712,0.291c-0.169,0.195-0.258,0.457-0.268,0.787h-0.856c0.017-0.594,0.194-1.046,0.533-1.362
						c0.341-0.313,0.772-0.471,1.297-0.471c0.565,0,1.008,0.158,1.328,0.468c0.32,0.313,0.479,0.727,0.479,1.248
						c0,0.372-0.094,0.731-0.283,1.076c-0.191,0.345-0.415,0.653-0.678,0.928c-0.262,0.274-0.596,0.587-1.001,0.947l-0.351,0.312
						h2.47v0.737h-3.786v-0.645L106.889,438.986z"/>
					<path fill="#FFFFFF" d="M111.382,438.986c0.498-0.433,0.891-0.787,1.18-1.065c0.287-0.276,0.527-0.567,0.719-0.866
						c0.192-0.305,0.288-0.604,0.288-0.906c0-0.31-0.074-0.556-0.223-0.732c-0.147-0.173-0.379-0.264-0.698-0.264
						c-0.305,0-0.542,0.098-0.712,0.291c-0.167,0.195-0.258,0.457-0.268,0.787h-0.856c0.014-0.594,0.193-1.046,0.532-1.362
						c0.34-0.313,0.772-0.471,1.297-0.471c0.566,0,1.009,0.158,1.328,0.468c0.319,0.313,0.479,0.727,0.479,1.248
						c0,0.372-0.095,0.731-0.283,1.076c-0.191,0.345-0.416,0.653-0.678,0.928c-0.263,0.274-0.597,0.587-1.001,0.947l-0.351,0.312
						h2.47v0.737h-3.784v-0.645L111.382,438.986z"/>
				</g>
			</g>
		</g>
	</g>
	<g>
		<g>
			<path fill="#FFFFFF" stroke="#FFFFFF" stroke-miterlimit="10" d="M271.222,384.725l-8.723,5.515
				c-2.674-3.409-5.063-7.436-7.169-12.083c-2.106-4.645-3.66-9.408-4.663-14.288c-1.404,4.612-3.509,9.493-6.317,14.639
				c-2.542,4.68-4.848,8.189-6.918,10.528l-8.122-5.515c5.415-6.35,9.626-13.87,12.634-22.561
				c3.475-10.027,5.214-21.323,5.214-33.891h5.815c1.537,0,2.59,0.135,3.158,0.401c0.567,0.268,0.853,0.636,0.853,1.103
				c0,0.201-0.084,0.669-0.251,1.404c-0.167,0.736-0.25,1.238-0.25,1.504c0,14.105,1.437,25.669,4.312,34.693
				C263.133,373.529,266.609,379.711,271.222,384.725z M287.265,397.459h-9.225V360.66h-15.341v-9.024h15.341v-27.173h9.225V397.459
				z M305.112,405.18h-9.325V319.55h9.325V405.18z"/>
			<path fill="#FFFFFF" stroke="#FFFFFF" stroke-miterlimit="10" d="M378.609,347.124c0,5.815-1.939,10.796-5.815,14.94
				c-4.211,4.546-9.826,6.818-16.845,6.818c-7.019,0-12.668-2.272-16.945-6.818c-3.945-4.211-5.916-9.225-5.916-15.04
				c0-5.681,1.971-10.594,5.916-14.74c4.277-4.478,9.927-6.718,16.945-6.718c6.952,0,12.566,2.24,16.845,6.718
				C376.669,336.362,378.609,341.309,378.609,347.124z M369.284,347.124c0-3.743-1.17-6.784-3.51-9.125
				c-2.34-2.339-5.582-3.509-9.726-3.509c-4.279,0-7.57,1.12-9.876,3.359c-2.306,2.24-3.459,5.298-3.459,9.175
				c0,3.877,1.153,7.003,3.459,9.375c2.306,2.374,5.598,3.56,9.876,3.56c4.076,0,7.302-1.186,9.676-3.56
				C368.097,354.027,369.284,350.934,369.284,347.124z M409.792,400.968h-66.779v-24.265h9.525v15.341h57.253V400.968z
				 M406.083,382.017h-9.927V319.55h9.927V382.017z"/>
			<path fill="#FFFFFF" stroke="#FFFFFF" stroke-miterlimit="10" d="M515.174,397.158h-86.03v-8.924h86.03V397.158z
				 M503.142,372.392h-62.668v-42.915h62.668V338h-53.243v8.623h52.039v8.021h-52.039v9.024h53.243V372.392z"/>
			<path fill="#FFFFFF" stroke="#FFFFFF" stroke-miterlimit="10" d="M616.244,395.553h-86.131v-8.822h86.131V395.553z
				 M612.133,357.351l-6.016,8.322c-5.08-1.203-10.695-3.81-16.846-7.821c-7.219-4.746-12.467-9.892-15.741-15.441
				c-3.409,5.214-8.623,10.127-15.642,14.74c-6.017,3.945-11.899,6.785-17.647,8.522l-6.618-8.021
				c8.557-2.071,16.209-5.715,22.962-10.93c8.021-6.216,12.032-12.834,12.032-19.853h6.016c1.738,0,2.857,0.101,3.359,0.301
				c0.501,0.201,0.752,0.602,0.752,1.204c0,0.2-0.085,0.669-0.251,1.403c-0.167,0.737-0.251,1.238-0.251,1.504
				c0,4.813,4.012,10.094,12.033,15.842C597.627,352.405,604.914,355.814,612.133,357.351z"/>
			<path fill="#FFFFFF" stroke="#FFFFFF" stroke-miterlimit="10" d="M687.936,380.012c-6.952,1.873-15.626,3.51-26.02,4.913
				c-10.395,1.403-19.369,2.106-26.922,2.106v-58.457h41.311v9.225h-31.584v13.135h30.682v8.724h-30.682v18.048
				c5.146,0,11.847-0.567,20.104-1.705c8.255-1.136,15.758-2.572,22.51-4.312L687.936,380.012z M717.916,367.679h-13.837v38.002
				h-9.927v-85.629h9.927v38.603h13.837V367.679z"/>
			<path fill="#FFFFFF" stroke="#FFFFFF" stroke-miterlimit="10" d="M743.485,368.381l-2.006,0.802
				c-0.802-1.204-1.704-2.339-2.707-3.409c-1.271-1.336-2.842-2.808-4.713-4.412c4.478-1.203,9.19-3.324,14.138-6.367
				c4.946-3.041,8.824-6.167,11.632-9.375l-21.057,2.005c-0.401,0.135-1.037,0.451-1.905,0.952
				c-0.869,0.501-1.504,0.752-1.905,0.752c-0.802,0-1.571-0.968-2.306-2.908l-2.607-7.921c3.542,0,9.426-0.233,17.647-0.702
				c8.222-0.467,13.938-0.702,17.146-0.702c0.467-0.735,0.868-1.57,1.203-2.507c0.134-0.467,0.401-1.504,0.803-3.108h-29.579v-8.723
				h40.408c0,8.156-1.772,15.441-5.314,21.858c-3.008,5.482-7.287,10.362-12.835,14.639c-4.346,3.343-9.425,6.284-15.24,8.824
				h60.061v21.057h-51.337v5.916h54.245v7.619h-63.972v-20.956h51.137V375.6h-50.936V368.381z M818.485,349.631h-14.138v15.04
				h-9.927v-44.92h9.927v20.855h14.138V349.631z"/>
			<path fill="#FFFFFF" stroke="#FFFFFF" stroke-miterlimit="10" d="M885.966,386.229c-5.35,1.271-13.471,2.424-24.365,3.459
				c-10.896,1.037-18.918,1.555-24.064,1.555v-38.804h30.882V338.3h-30.682v-9.225h40.308v32.086h-30.782v20.755
				c4.612,0,10.494-0.367,17.647-1.103c7.151-0.735,13.87-1.67,20.153-2.808L885.966,386.229z M907.423,405.18h-9.927V319.55h9.927
				V405.18z"/>
			<path fill="#FFFFFF" stroke="#FFFFFF" stroke-miterlimit="10" d="M988.139,383.922c-1.203,0.87-2.373,1.822-3.509,2.857
				c-1.138,1.038-2.574,2.457-4.312,4.262c-4.078-3.542-7.871-8.037-11.381-13.486c-3.509-5.447-6.134-10.912-7.871-16.394
				c-4.411,11.365-11.898,21.291-22.46,29.78c-1.403-1.604-2.541-2.808-3.409-3.609c-1.271-1.137-2.842-2.172-4.713-3.109
				c7.687-4.878,13.988-11.514,18.901-19.903c4.913-8.388,7.369-16.86,7.369-25.418h-20.254v-9.125h47.427v9.125H966.08
				c0,8.623,2.038,16.98,6.116,25.067C976.072,371.724,981.387,378.375,988.139,383.922z M1007.691,405.681h-9.927v-85.629h9.927
				V405.681z"/>
		</g>
		<g>
			<path fill="#FFFFFF" stroke="#FFFFFF" stroke-miterlimit="10" d="M241.894,443.532c1.908,2.915,4.896,6.3,9.971,6.3
				c3.636,0,6.407-1.477,6.407-5.652c0-3.527-2.16-4.68-7.739-6.299c-3.995-1.188-8.315-2.988-8.315-7.667
				c0-3.024,1.908-6.552,7.703-6.552c2.592,0,4.14,0.973,5.076,0.973c0.18,0,0.324,0,0.432-0.072l1.764-0.648l2.34,6.479l-0.54,0.36
				c-2.124-3.564-5.039-6.191-9.215-6.191c-2.916,0-5.615,1.332-5.615,5.039c0,3.816,3.528,5.256,7.343,6.299
				c4.859,1.332,8.819,2.988,8.819,7.596c0,5.075-3.744,7.235-8.351,7.235c-2.556,0-4.823-1.152-5.651-1.152
				c-0.792,0-1.835,0.505-2.627,1.08l-2.52-6.839L241.894,443.532z"/>
			<path fill="#FFFFFF" stroke="#FFFFFF" stroke-miterlimit="10" d="M277.532,423.627l8.891,23.001
				c0.648,1.979,1.692,2.628,3.6,2.628v0.899h-9.143v-0.899c2.375,0,3.456-0.289,3.456-1.404c0-0.288-0.072-0.648-0.216-1.08
				l-2.339-6.047h-10.835L269,445.943c-0.216,0.685-0.36,1.225-0.36,1.656c0,1.296,1.044,1.656,3.42,1.656v0.899h-7.847v-0.899
				c1.979,0,2.7-0.469,3.815-3.744l7.523-21.057L277.532,423.627z M276.236,426.074l-4.932,13.606h10.079L276.236,426.074z"/>
			<path fill="#FFFFFF" stroke="#FFFFFF" stroke-miterlimit="10" d="M293.265,424.274h9.719v0.899c-2.808,0-3.743,0.541-3.743,2.34
				v19.618c0,1.439,0.936,2.124,3.743,2.124v0.899h-9.719v-0.899c2.808,0,3.744-0.685,3.744-2.124v-19.618
				c0-1.799-0.936-2.34-3.744-2.34V424.274z"/>
			<path fill="#FFFFFF" stroke="#FFFFFF" stroke-miterlimit="10" d="M306.225,450.155v-0.899c2.556,0,3.419-0.685,3.419-2.484
				v-19.113c0-1.8-0.864-2.484-3.419-2.484v-0.899h4.859l16.414,21.669v-18.789c0-1.404-0.936-1.98-3.743-1.98v-0.899h8.243v0.899
				c-2.375,0-3.456,0.612-3.456,1.98v23.182h-0.576l-17.242-22.966v19.401c0,1.8,0.792,2.484,3.744,2.484v0.899H306.225z"/>
			<path fill="#FFFFFF" stroke="#FFFFFF" stroke-miterlimit="10" d="M342.475,450.191v-0.9c2.231,0,4.067-0.18,4.067-1.979v-20.013
				c0-1.513-0.72-2.088-3.023-2.088c-4.644,0-6.515,2.771-8.099,5.326l-0.504-0.287l2.088-5.939h21.345l2.124,6.191l-0.612,0.252
				c-1.728-2.88-2.988-5.543-7.451-5.543c-2.483,0-3.635,0.575-3.635,2.088v20.013c0,1.8,1.439,1.979,4.067,1.979v0.9H342.475z"/>
			<path fill="#FFFFFF" stroke="#FFFFFF" stroke-miterlimit="10" d="M376.783,443.532c1.908,2.915,4.896,6.3,9.971,6.3
				c3.636,0,6.407-1.477,6.407-5.652c0-3.527-2.16-4.68-7.739-6.299c-3.995-1.188-8.315-2.988-8.315-7.667
				c0-3.024,1.908-6.552,7.703-6.552c2.592,0,4.14,0.973,5.076,0.973c0.18,0,0.324,0,0.432-0.072l1.764-0.648l2.34,6.479l-0.54,0.36
				c-2.124-3.564-5.039-6.191-9.215-6.191c-2.916,0-5.615,1.332-5.615,5.039c0,3.816,3.528,5.256,7.343,6.299
				c4.859,1.332,8.819,2.988,8.819,7.596c0,5.075-3.744,7.235-8.351,7.235c-2.556,0-4.823-1.152-5.651-1.152
				c-0.792,0-1.835,0.505-2.627,1.08l-2.52-6.839L376.783,443.532z"/>
			<path fill="#FFFFFF" stroke="#FFFFFF" stroke-miterlimit="10" d="M406.914,450.191v-0.9c2.231,0,4.067-0.18,4.067-1.979v-20.013
				c0-1.513-0.72-2.088-3.023-2.088c-4.644,0-6.515,2.771-8.099,5.326l-0.504-0.287l2.088-5.939h21.345l2.124,6.191l-0.612,0.252
				c-1.728-2.88-2.988-5.543-7.451-5.543c-2.483,0-3.635,0.575-3.635,2.088v20.013c0,1.8,1.439,1.979,4.067,1.979v0.9H406.914z"/>
			<path fill="#FFFFFF" stroke="#FFFFFF" stroke-miterlimit="10" d="M440.896,423.627l8.891,23.001
				c0.648,1.979,1.692,2.628,3.6,2.628v0.899h-9.143v-0.899c2.375,0,3.456-0.289,3.456-1.404c0-0.288-0.072-0.648-0.216-1.08
				l-2.339-6.047h-10.835l-1.944,5.219c-0.216,0.685-0.36,1.225-0.36,1.656c0,1.296,1.044,1.656,3.42,1.656v0.899h-7.847v-0.899
				c1.979,0,2.7-0.469,3.815-3.744l7.523-21.057L440.896,423.627z M439.601,426.074l-4.932,13.606h10.079L439.601,426.074z"/>
			<path fill="#FFFFFF" stroke="#FFFFFF" stroke-miterlimit="10" d="M456.09,450.155v-0.899c2.7,0,3.419-0.828,3.419-2.557v-19.365
				c0-1.584-0.72-2.16-3.419-2.16v-0.899h11.699c5.579,0,8.459,2.7,8.459,6.371c0,3.384-2.196,6.335-7.02,6.587l5.867,10.367
				c0.756,1.332,1.764,1.656,3.672,1.656v0.899h-4.859l-7.127-12.886h-5.004v9.43c0,1.729,0.936,2.557,3.456,2.557v0.899H456.09z
				 M461.777,436.369h6.659c3.995,0,5.327-2.844,5.327-5.724c0-3.419-2.268-5.472-6.155-5.472h-3.203
				c-1.692,0-2.628,0.576-2.628,2.16V436.369z"/>
			<path fill="#FFFFFF" stroke="#FFFFFF" stroke-miterlimit="10" d="M515.773,443.172c-1.656,4.068-4.607,7.56-10.15,7.56
				c-6.264,0-11.375-4.86-11.375-13.679c0-7.271,4.14-13.391,10.763-13.391c2.376,0,3.384,0.433,5.075,0.973l2.556-0.828
				l2.484,6.587l-0.576,0.288c-1.621-2.375-4.716-6.119-9.467-6.119c-5.075,0-8.387,5.363-8.387,12.49
				c0,6.84,3.995,11.879,9.754,11.879c3.672,0,6.444-1.764,8.676-6.047L515.773,443.172z"/>
			<path fill="#FFFFFF" stroke="#FFFFFF" stroke-miterlimit="10" d="M542.379,437.232c0,6.768-3.744,13.499-11.52,13.499
				c-7.451,0-11.158-6.731-11.158-13.499c0-6.803,3.707-13.57,11.158-13.57C538.635,423.662,542.379,430.43,542.379,437.232z
				 M522.113,437.232c0,6.3,2.914,12.6,8.746,12.6c6.119,0,9.035-6.3,9.035-12.6c0-6.299-2.916-12.634-9.035-12.634
				C525.027,424.599,522.113,430.934,522.113,437.232z"/>
			<path fill="#FFFFFF" stroke="#FFFFFF" stroke-miterlimit="10" d="M546.053,450.155v-0.899c2.736,0,3.42-0.828,3.42-2.305v-19.545
				c0-1.691-0.684-2.232-3.42-2.232v-0.899h9.432v0.899c-3.096,0-3.744,0.541-3.744,2.232v19.545c0,1.477,0.648,2.305,2.664,2.305
				h3.707c3.455,0,6.479-2.196,8.459-5.724l0.684,0.36l-2.627,6.263H546.053z"/>
			<path fill="#FFFFFF" stroke="#FFFFFF" stroke-miterlimit="10" d="M570.029,450.155v-0.899c2.734,0,3.418-0.828,3.418-2.305
				v-19.545c0-1.691-0.684-2.232-3.418-2.232v-0.899h9.43v0.899c-3.096,0-3.742,0.541-3.742,2.232v19.545
				c0,1.477,0.646,2.305,2.662,2.305h3.709c3.455,0,6.479-2.196,8.459-5.724l0.684,0.36l-2.629,6.263H570.029z"/>
			<path fill="#FFFFFF" stroke="#FFFFFF" stroke-miterlimit="10" d="M594.004,450.155v-0.899c2.447,0,3.42-0.756,3.42-2.484v-19.293
				c0-1.656-0.973-2.305-3.42-2.305v-0.899h18.898l2.52,6.119l-0.541,0.36c-1.799-2.195-3.238-5.58-8.818-5.58h-3.527
				c-1.871,0-2.844,0.648-2.844,2.305v8.674h5.471c2.52,0,3.889-1.079,3.889-4.498h0.863v10.078h-0.863
				c0-3.203-1.369-4.607-3.889-4.607h-5.471v9.646c0,1.729,0.973,2.484,2.879,2.484h3.385c4.176,0,6.73-1.729,9.611-5.724
				l0.646,0.288l-2.447,6.335H594.004z"/>
			<path fill="#FFFFFF" stroke="#FFFFFF" stroke-miterlimit="10" d="M643.752,438.457v0.936c-2.268,0-2.986,0.863-2.986,2.556v8.207
				h-1.621l-0.611-1.872c-1.549,1.008-3.6,2.448-7.02,2.448c-6.838,0-11.338-4.68-11.338-13.499c0-7.918,4.715-13.57,11.482-13.57
				c2.195,0,3.996,0.433,4.822,0.756l2.916-0.719l2.484,6.442l-0.576,0.252c-1.908-2.447-4.752-5.831-9.467-5.831
				c-5.184,0-9.215,5.256-9.215,12.49c0,8.639,4.391,12.779,8.891,12.779c3.889,0,7.02-2.881,7.02-5.076v-2.808
				c0-1.692-0.756-2.556-3.996-2.556v-0.936H643.752z"/>
			<path fill="#FFFFFF" stroke="#FFFFFF" stroke-miterlimit="10" d="M646.492,450.155v-0.899c2.447,0,3.418-0.756,3.418-2.484
				v-19.293c0-1.656-0.971-2.305-3.418-2.305v-0.899h18.896l2.52,6.119l-0.539,0.36c-1.801-2.195-3.24-5.58-8.818-5.58h-3.529
				c-1.871,0-2.842,0.648-2.842,2.305v8.674h5.471c2.52,0,3.887-1.079,3.887-4.498h0.865v10.078h-0.865
				c0-3.203-1.367-4.607-3.887-4.607h-5.471v9.646c0,1.729,0.971,2.484,2.879,2.484h3.383c4.176,0,6.732-1.729,9.611-5.724
				l0.648,0.288l-2.447,6.335H646.492z"/>
			<path fill="#FFFFFF" stroke="#FFFFFF" stroke-miterlimit="10" d="M684.146,450.155v-0.899c2.701,0,3.42-0.685,3.42-2.34v-19.689
				c0-1.404-0.611-2.053-3.42-2.053v-0.899h9.143v0.899c-2.627,0-3.455,0.648-3.455,2.053v9.106h14.074v-9.106
				c0-1.404-0.971-2.053-3.455-2.053v-0.899h9.143v0.899c-2.592,0-3.455,0.648-3.455,2.053v19.689c0,1.655,0.863,2.34,3.455,2.34
				v0.899h-9.143v-0.899c2.484,0,3.455-0.685,3.455-2.34v-9.684h-14.074v9.684c0,1.655,0.793,2.34,3.455,2.34v0.899H684.146z"/>
			<path fill="#FFFFFF" stroke="#FFFFFF" stroke-miterlimit="10" d="M712.443,424.274h9.143v0.899c-2.557,0-3.455,0.648-3.455,2.16
				v14.795c0,4.391,3.311,7.414,7.99,7.414c3.42,0,7.596-1.584,7.596-7.559v-14.65c0-1.512-0.756-2.16-3.457-2.16v-0.899h7.92v0.899
				c-2.699,0-3.455,0.648-3.455,2.16V442.2c0,5.796-3.924,8.531-9.719,8.531c-4.789,0-9.145-2.7-9.145-8.999v-14.398
				c0-1.512-0.646-2.16-3.418-2.16V424.274z"/>
			<path fill="#FFFFFF" stroke="#FFFFFF" stroke-miterlimit="10" d="M741.025,450.155v-0.899c2.664,0,3.42-0.721,3.42-2.484v-19.617
				c0-1.439-0.828-1.98-3.42-1.98v-0.899h6.48l8.459,22.569l8.422-22.569h6.695v0.899c-2.879,0-3.455,0.576-3.455,1.98v19.617
				c0,1.584,0.756,2.484,3.455,2.484v0.899h-9.105v-0.899c2.627,0,3.418-0.9,3.418-2.484v-21.273H765l-9.324,24.909H755.1
				l-9.215-24.405h-0.432v20.77c0,1.764,0.793,2.484,3.457,2.484v0.899H741.025z"/>
			<path fill="#FFFFFF" stroke="#FFFFFF" stroke-miterlimit="10" d="M787.176,423.627l8.891,23.001
				c0.648,1.979,1.693,2.628,3.6,2.628v0.899h-9.143v-0.899c2.377,0,3.455-0.289,3.455-1.404c0-0.288-0.07-0.648-0.215-1.08
				l-2.34-6.047H780.59l-1.945,5.219c-0.215,0.685-0.359,1.225-0.359,1.656c0,1.296,1.045,1.656,3.42,1.656v0.899h-7.848v-0.899
				c1.98,0,2.699-0.469,3.816-3.744l7.523-21.057L787.176,423.627z M785.881,426.074l-4.932,13.606h10.078L785.881,426.074z"/>
			<path fill="#FFFFFF" stroke="#FFFFFF" stroke-miterlimit="10" d="M802.369,450.155v-0.899c2.555,0,3.418-0.685,3.418-2.484
				v-19.113c0-1.8-0.863-2.484-3.418-2.484v-0.899h4.859l16.414,21.669v-18.789c0-1.404-0.938-1.98-3.744-1.98v-0.899h8.242v0.899
				c-2.375,0-3.455,0.612-3.455,1.98v23.182h-0.576l-17.242-22.966v19.401c0,1.8,0.793,2.484,3.744,2.484v0.899H802.369z"/>
			<path fill="#FFFFFF" stroke="#FFFFFF" stroke-miterlimit="10" d="M844.451,443.532c1.908,2.915,4.896,6.3,9.973,6.3
				c3.635,0,6.406-1.477,6.406-5.652c0-3.527-2.16-4.68-7.738-6.299c-3.996-1.188-8.316-2.988-8.316-7.667
				c0-3.024,1.908-6.552,7.703-6.552c2.592,0,4.141,0.973,5.076,0.973c0.18,0,0.324,0,0.432-0.072l1.764-0.648l2.34,6.479
				l-0.539,0.36c-2.125-3.564-5.041-6.191-9.215-6.191c-2.916,0-5.615,1.332-5.615,5.039c0,3.816,3.527,5.256,7.342,6.299
				c4.859,1.332,8.818,2.988,8.818,7.596c0,5.075-3.742,7.235-8.35,7.235c-2.557,0-4.824-1.152-5.652-1.152
				c-0.791,0-1.836,0.505-2.627,1.08l-2.52-6.839L844.451,443.532z"/>
			<path fill="#FFFFFF" stroke="#FFFFFF" stroke-miterlimit="10" d="M889.018,443.172c-1.656,4.068-4.607,7.56-10.15,7.56
				c-6.264,0-11.375-4.86-11.375-13.679c0-7.271,4.139-13.391,10.762-13.391c2.377,0,3.385,0.433,5.076,0.973l2.555-0.828
				l2.484,6.587l-0.576,0.288c-1.619-2.375-4.715-6.119-9.467-6.119c-5.074,0-8.387,5.363-8.387,12.49
				c0,6.84,3.996,11.879,9.754,11.879c3.672,0,6.443-1.764,8.676-6.047L889.018,443.172z"/>
			<path fill="#FFFFFF" stroke="#FFFFFF" stroke-miterlimit="10" d="M892.836,424.274h9.719v0.899c-2.809,0-3.744,0.541-3.744,2.34
				v19.618c0,1.439,0.936,2.124,3.744,2.124v0.899h-9.719v-0.899c2.807,0,3.742-0.685,3.742-2.124v-19.618
				c0-1.799-0.936-2.34-3.742-2.34V424.274z"/>
			<path fill="#FFFFFF" stroke="#FFFFFF" stroke-miterlimit="10" d="M905.795,450.155v-0.899c2.447,0,3.42-0.756,3.42-2.484v-19.293
				c0-1.656-0.973-2.305-3.42-2.305v-0.899h18.898l2.52,6.119l-0.541,0.36c-1.799-2.195-3.238-5.58-8.818-5.58h-3.527
				c-1.871,0-2.844,0.648-2.844,2.305v8.674h5.471c2.52,0,3.889-1.079,3.889-4.498h0.863v10.078h-0.863
				c0-3.203-1.369-4.607-3.889-4.607h-5.471v9.646c0,1.729,0.973,2.484,2.879,2.484h3.385c4.176,0,6.73-1.729,9.611-5.724
				l0.646,0.288l-2.447,6.335H905.795z"/>
			<path fill="#FFFFFF" stroke="#FFFFFF" stroke-miterlimit="10" d="M931.283,450.155v-0.899c2.557,0,3.42-0.685,3.42-2.484v-19.113
				c0-1.8-0.863-2.484-3.42-2.484v-0.899h4.859l16.414,21.669v-18.789c0-1.404-0.936-1.98-3.744-1.98v-0.899h8.244v0.899
				c-2.377,0-3.455,0.612-3.455,1.98v23.182h-0.576l-17.242-22.966v19.401c0,1.8,0.791,2.484,3.744,2.484v0.899H931.283z"/>
			<path fill="#FFFFFF" stroke="#FFFFFF" stroke-miterlimit="10" d="M981.967,443.172c-1.656,4.068-4.607,7.56-10.15,7.56
				c-6.264,0-11.375-4.86-11.375-13.679c0-7.271,4.141-13.391,10.764-13.391c2.375,0,3.383,0.433,5.074,0.973l2.557-0.828
				l2.484,6.587l-0.576,0.288c-1.621-2.375-4.717-6.119-9.467-6.119c-5.076,0-8.387,5.363-8.387,12.49
				c0,6.84,3.994,11.879,9.754,11.879c3.672,0,6.443-1.764,8.676-6.047L981.967,443.172z"/>
			<path fill="#FFFFFF" stroke="#FFFFFF" stroke-miterlimit="10" d="M985.246,450.155v-0.899c2.447,0,3.42-0.756,3.42-2.484v-19.293
				c0-1.656-0.973-2.305-3.42-2.305v-0.899h18.898l2.52,6.119l-0.541,0.36c-1.799-2.195-3.238-5.58-8.818-5.58h-3.527
				c-1.871,0-2.844,0.648-2.844,2.305v8.674h5.471c2.52,0,3.889-1.079,3.889-4.498h0.863v10.078h-0.863
				c0-3.203-1.369-4.607-3.889-4.607h-5.471v9.646c0,1.729,0.973,2.484,2.879,2.484h3.385c4.176,0,6.73-1.729,9.611-5.724
				l0.646,0.288l-2.447,6.335H985.246z"/>
		</g>
	</g>
</g>
<g id="Layer_3" display="none">
	<rect x="2.5" y="141.5" display="inline" fill="#191160" width="1021.5" height="487"/>
</g>
</svg>
