<?xml version="1.0" encoding="utf-8"?>
<!-- Generator: Adobe Illustrator 16.0.0, SVG Export Plug-In . SVG Version: 6.00 Build 0)  -->
<!DOCTYPE svg PUBLIC "-//W3C//DTD SVG 1.1//EN" "http://www.w3.org/Graphics/SVG/1.1/DTD/svg11.dtd">
<svg version="1.1" id="Layer_1" xmlns="http://www.w3.org/2000/svg" xmlns:xlink="http://www.w3.org/1999/xlink" x="0px" y="0px"
	 width="595.28px" height="841.89px" viewBox="0 0 595.28 841.89" enable-background="new 0 0 595.28 841.89" xml:space="preserve">
<g>
	<polygon fill-rule="evenodd" clip-rule="evenodd" fill="#F0EFEF" points="88.839,431.705 82.75,420.608 102.049,420.608 
		106.008,441.932 85.354,441.934 	"/>
	<polygon fill-rule="evenodd" clip-rule="evenodd" fill="#333366" points="103.633,440.012 100.386,422.529 86.053,422.529 
		90.991,431.529 88.101,440.014 	"/>
	<path fill-rule="evenodd" clip-rule="evenodd" fill="#F0EFEF" d="M186.425,431.707l3.484,10.227h-19.594l0.171-2.072
		c0.315-3.809,0.667-7.643,1.188-11.43c0.283-2.053,0.629-4.561,1.32-6.523l0.459-1.3h19.06L186.425,431.707z"/>
	<path fill-rule="evenodd" clip-rule="evenodd" fill="#333366" d="M172.468,440.014c0.767-9.277,1.569-15.105,2.409-17.484h14.334
		l-4.939,9l2.892,8.484H172.468z"/>
	<path fill-rule="evenodd" clip-rule="evenodd" fill="#333366" d="M98.026,430.189l-0.625-48.767l4.09-1.22
		c2.522-0.753,5.011-1.617,7.489-2.5c3.177-1.133,6.333-2.321,9.474-3.552c3.142-1.232,6.268-2.506,9.362-3.855
		c2.365-1.03,4.731-2.086,7.002-3.311l2.812-1.515l2.813,1.515c2.272,1.224,4.639,2.28,7.003,3.311
		c3.095,1.348,6.221,2.622,9.362,3.854c3.141,1.231,6.297,2.419,9.474,3.553c2.479,0.884,4.968,1.748,7.489,2.5l4.09,1.22
		l-0.624,48.767c-0.091,7.041-2.223,13.443-6.514,19.043c-7.497,9.783-19.577,14.836-30.541,19.639l-2.551,1.117l-2.551-1.117
		c-4.645-2.035-9.307-4.029-13.789-6.41C108.23,455.521,98.227,445.891,98.026,430.189"/>
	<path fill-rule="evenodd" clip-rule="evenodd" fill="#F0EFEF" d="M101.103,430.15l-0.595-46.443l1.864-0.557
		c2.567-0.766,5.121-1.651,7.644-2.55c3.206-1.144,6.394-2.343,9.563-3.586c3.176-1.246,6.34-2.535,9.468-3.898
		c2.426-1.058,4.902-2.167,7.232-3.423l1.353-0.729l1.354,0.729c2.331,1.255,4.806,2.365,7.233,3.422
		c3.127,1.363,6.292,2.653,9.468,3.898c3.169,1.243,6.357,2.442,9.563,3.586c2.522,0.9,5.076,1.785,7.643,2.551l1.864,0.557
		l-0.596,46.443c-0.081,6.383-1.992,12.139-5.878,17.211c-7.072,9.229-18.979,14.154-29.334,18.691l-1.316,0.576l-1.316-0.576
		c-4.577-2.006-9.164-3.963-13.581-6.311C110.746,453.375,101.289,444.684,101.103,430.15"/>
	<path fill-rule="evenodd" clip-rule="evenodd" fill="#333366" d="M103.678,430.117l-0.57-44.499
		c8.254-2.463,26.814-9.599,34.392-13.658l0.131-0.071l0.132,0.071c7.578,4.059,26.138,11.195,34.392,13.658l-0.57,44.499
		c-0.252,19.664-19.208,27.242-33.67,33.576l-0.283,0.123l-0.283-0.123C122.887,457.359,103.93,449.781,103.678,430.117"/>
	<path fill-rule="evenodd" clip-rule="evenodd" fill="#F0EFEF" d="M137.631,425.184c1.158,0,2.096,0.938,2.096,2.096
		s-0.938,2.098-2.096,2.098s-2.096-0.939-2.096-2.098S136.474,425.184,137.631,425.184"/>
	<path fill-rule="evenodd" clip-rule="evenodd" fill="#F0EFEF" d="M114.863,413.097c-0.613-0.351-1.154-0.861-1.498-1.409
		c0.6,0.149,1.202,0.493,1.848,0.941c-0.295-3.011-3.292-2.421-4.28-2.564C110.855,412.088,113.596,413.791,114.863,413.097"/>
	<path fill-rule="evenodd" clip-rule="evenodd" fill="#F0EFEF" d="M113.274,407.843c-0.46-0.554-0.803-1.231-0.948-1.871
		c0.512,0.362,0.965,0.906,1.425,1.563c0.685-2.919-2.301-3.48-3.177-3.981C109.855,405.416,111.87,408.021,113.274,407.843"/>
	<path fill-rule="evenodd" clip-rule="evenodd" fill="#F0EFEF" d="M113.459,402.683c-0.376-0.58-0.628-1.261-0.698-1.882
		c0.445,0.404,0.815,0.974,1.18,1.651c0.954-2.673-1.806-3.568-2.58-4.148C110.487,399.972,112.115,402.678,113.459,402.683"/>
	<path fill-rule="evenodd" clip-rule="evenodd" fill="#F0EFEF" d="M114.313,397.418c-0.233-0.61-0.333-1.285-0.281-1.866
		c0.329,0.466,0.559,1.065,0.763,1.761c1.372-2.223-0.972-3.643-1.567-4.34C112.119,394.3,113.091,397.119,114.313,397.418"/>
	<path fill-rule="evenodd" clip-rule="evenodd" fill="#F0EFEF" d="M115.681,392.824c0.018-0.611,0.171-1.223,0.421-1.691
		c0.113,0.528,0.096,1.128,0.024,1.8c1.942-1.316,0.463-3.476,0.207-4.309C114.927,389.29,114.754,392.07,115.681,392.824"/>
	<path fill-rule="evenodd" clip-rule="evenodd" fill="#F0EFEF" d="M117.995,389.196c0.13-0.536,0.379-1.043,0.687-1.403
		c0.002,0.491-0.125,1.018-0.314,1.595c1.961-0.741,1.057-2.97,0.985-3.761C117.986,385.911,117.316,388.33,117.995,389.196"/>
	<path fill-rule="evenodd" clip-rule="evenodd" fill="#F0EFEF" d="M121.102,385.654c0.202-0.431,0.501-0.814,0.826-1.06
		c-0.083,0.419-0.281,0.843-0.541,1.298c1.799-0.242,1.409-2.322,1.482-3.011C121.657,382.851,120.672,384.78,121.102,385.654"/>
	<path fill-rule="evenodd" clip-rule="evenodd" fill="#F0EFEF" d="M124.221,383.718c0.408-0.198,0.864-0.294,1.259-0.266
		c-0.308,0.27-0.709,0.466-1.177,0.644c1.541,1.029,2.449-0.853,2.908-1.34C126.284,381.912,124.395,382.746,124.221,383.718"/>
	<path fill-rule="evenodd" clip-rule="evenodd" fill="#F0EFEF" d="M122.235,387.007c0.442-0.077,0.872-0.267,1.188-0.525
		c-0.395-0.043-0.83,0.031-1.311,0.16c0.762-1.773,2.479-0.739,3.111-0.605C124.879,387.292,122.875,387.715,122.235,387.007"/>
	<path fill-rule="evenodd" clip-rule="evenodd" fill="#F0EFEF" d="M119.219,390.114c0.49-0.063,0.97-0.251,1.329-0.52
		c-0.433-0.067-0.915-0.006-1.449,0.112c0.913-1.915,2.76-0.694,3.449-0.516C122.117,390.555,119.895,390.925,119.219,390.114"/>
	<path fill-rule="evenodd" clip-rule="evenodd" fill="#F0EFEF" d="M116.909,393.733c0.484-0.162,0.938-0.45,1.253-0.793
		c-0.449,0.02-0.926,0.178-1.445,0.405c0.59-2.119,2.669-1.257,3.396-1.216C119.915,393.595,117.732,394.417,116.909,393.733"/>
	<path fill-rule="evenodd" clip-rule="evenodd" fill="#F0EFEF" d="M115.553,397.86c0.498-0.25,0.946-0.63,1.238-1.049
		c-0.479,0.092-0.969,0.337-1.497,0.663c0.347-2.369,2.696-1.771,3.482-1.841C118.762,397.238,116.53,398.464,115.553,397.86"/>
	<path fill-rule="evenodd" clip-rule="evenodd" fill="#F0EFEF" d="M114.578,402.74c0.521-0.325,0.976-0.787,1.258-1.274
		c-0.516,0.15-1.029,0.469-1.576,0.88c0.167-2.623,2.785-2.214,3.638-2.373C118.026,401.727,115.699,403.298,114.578,402.74"/>
	<path fill-rule="evenodd" clip-rule="evenodd" fill="#F0EFEF" d="M114.686,407.574c0.471-0.486,0.84-1.097,1.02-1.687
		c-0.506,0.3-0.97,0.777-1.447,1.36c-0.447-2.804,2.403-3.097,3.262-3.499C118.071,405.558,115.997,407.852,114.686,407.574"/>
	<path fill-rule="evenodd" clip-rule="evenodd" fill="#F0EFEF" d="M116.156,412.35c0.295-0.652,0.45-1.385,0.429-2.026
		c-0.391,0.486-0.682,1.126-0.951,1.875c-1.362-2.542,1.3-3.924,1.999-4.645C118.765,409.093,117.517,412.114,116.156,412.35"/>
	<path fill-rule="evenodd" clip-rule="evenodd" fill="#F0EFEF" d="M118.012,418.379c-0.725-0.229-1.406-0.644-1.884-1.147
		c0.669,0.018,1.382,0.24,2.162,0.564c-0.93-3.14-4.005-1.799-5.087-1.717C113.534,418.256,116.803,419.419,118.012,418.379"/>
	<path fill-rule="evenodd" clip-rule="evenodd" fill="#F0EFEF" d="M119.287,416.57c0.053-0.754-0.059-1.529-0.307-2.141
		c-0.206,0.633-0.259,1.374-0.253,2.211c-2.226-1.899-0.139-4.342,0.281-5.33C120.654,412.333,120.521,415.777,119.287,416.57"/>
	<path fill-rule="evenodd" clip-rule="evenodd" fill="#F0EFEF" d="M121.892,422.785c-0.823-0.078-1.636-0.369-2.249-0.799
		c0.722-0.135,1.531-0.06,2.432,0.11c-1.617-3.156-4.652-1.012-5.797-0.676C117.061,423.68,120.798,424.18,121.892,422.785"/>
	<path fill-rule="evenodd" clip-rule="evenodd" fill="#F0EFEF" d="M122.895,421.068c-0.106-0.811-0.392-1.601-0.787-2.185
		c-0.08,0.72,0.023,1.517,0.21,2.398c-2.761-1.446-1.085-4.551-0.854-5.699C123.423,416.249,124.027,419.919,122.895,421.068"/>
	<path fill-rule="evenodd" clip-rule="evenodd" fill="#F0EFEF" d="M126.888,426.152c-0.869,0.064-1.759-0.096-2.461-0.436
		c0.731-0.268,1.585-0.33,2.548-0.313c-2.159-3.002-4.996-0.238-6.138,0.313C121.994,427.932,125.96,427.797,126.888,426.152"/>
	<path fill-rule="evenodd" clip-rule="evenodd" fill="#F0EFEF" d="M128.058,424.045c-0.353-0.795-0.883-1.508-1.465-1.971
		c0.134,0.77,0.479,1.551,0.937,2.393c-3.272-0.521-2.482-4.299-2.59-5.561C127.153,418.907,128.877,422.469,128.058,424.045"/>
	<path fill-rule="evenodd" clip-rule="evenodd" fill="#F0EFEF" d="M133,428.098c-0.84,0.246-1.742,0.277-2.493,0.092
		c0.668-0.416,1.494-0.658,2.441-0.846c-2.663-2.486-4.942,0.826-5.961,1.605C128.524,430.877,132.389,429.904,133,428.098"/>
	<path fill-rule="evenodd" clip-rule="evenodd" fill="#F0EFEF" d="M133.763,425.783c-0.491-0.705-1.141-1.293-1.795-1.623
		c0.271,0.727,0.752,1.42,1.354,2.148c-3.303,0.18-3.216-3.691-3.551-4.904C131.94,420.936,134.279,424.064,133.763,425.783"/>
	<path fill-rule="evenodd" clip-rule="evenodd" fill="#F0EFEF" d="M160.4,413.097c0.612-0.351,1.153-0.861,1.497-1.409
		c-0.6,0.15-1.202,0.493-1.848,0.941c0.295-3.011,3.292-2.421,4.28-2.564C164.408,412.088,161.668,413.791,160.4,413.097"/>
	<path fill-rule="evenodd" clip-rule="evenodd" fill="#F0EFEF" d="M161.988,407.843c0.461-0.554,0.803-1.231,0.948-1.871
		c-0.512,0.362-0.965,0.906-1.424,1.563c-0.685-2.919,2.301-3.48,3.177-3.981C165.407,405.416,163.393,408.021,161.988,407.843"/>
	<path fill-rule="evenodd" clip-rule="evenodd" fill="#F0EFEF" d="M161.805,402.683c0.375-0.58,0.627-1.261,0.697-1.882
		c-0.444,0.404-0.815,0.974-1.18,1.651c-0.954-2.673,1.806-3.568,2.58-4.148C164.776,399.972,163.148,402.678,161.805,402.683"/>
	<path fill-rule="evenodd" clip-rule="evenodd" fill="#F0EFEF" d="M160.949,397.418c0.233-0.61,0.334-1.285,0.281-1.866
		c-0.329,0.466-0.56,1.065-0.764,1.761c-1.371-2.223,0.972-3.643,1.567-4.34C163.144,394.3,162.172,397.119,160.949,397.418"/>
	<path fill-rule="evenodd" clip-rule="evenodd" fill="#F0EFEF" d="M159.582,392.824c-0.019-0.611-0.171-1.223-0.421-1.691
		c-0.113,0.528-0.097,1.128-0.023,1.8c-1.942-1.316-0.464-3.476-0.206-4.309C160.337,389.29,160.51,392.07,159.582,392.824"/>
	<path fill-rule="evenodd" clip-rule="evenodd" fill="#F0EFEF" d="M157.269,389.197c-0.13-0.536-0.379-1.043-0.687-1.403
		c-0.002,0.491,0.125,1.018,0.313,1.595c-1.96-0.741-1.056-2.97-0.984-3.761C157.277,385.911,157.947,388.33,157.269,389.197"/>
	<path fill-rule="evenodd" clip-rule="evenodd" fill="#F0EFEF" d="M154.161,385.654c-0.202-0.431-0.501-0.814-0.825-1.06
		c0.082,0.419,0.28,0.843,0.541,1.298c-1.799-0.243-1.409-2.322-1.483-3.012C153.606,382.851,154.592,384.78,154.161,385.654"/>
	<path fill-rule="evenodd" clip-rule="evenodd" fill="#F0EFEF" d="M151.043,383.718c-0.409-0.198-0.864-0.294-1.26-0.266
		c0.308,0.271,0.709,0.466,1.177,0.644c-1.541,1.029-2.448-0.853-2.907-1.34C148.979,381.912,150.868,382.746,151.043,383.718"/>
	<path fill-rule="evenodd" clip-rule="evenodd" fill="#F0EFEF" d="M153.028,387.007c-0.442-0.077-0.872-0.267-1.188-0.525
		c0.396-0.043,0.83,0.031,1.311,0.16c-0.762-1.773-2.479-0.739-3.11-0.605C150.385,387.292,152.388,387.715,153.028,387.007"/>
	<path fill-rule="evenodd" clip-rule="evenodd" fill="#F0EFEF" d="M156.044,390.114c-0.49-0.063-0.971-0.251-1.329-0.52
		c0.434-0.067,0.915-0.006,1.45,0.112c-0.913-1.915-2.76-0.694-3.449-0.516C153.146,390.555,155.368,390.925,156.044,390.114"/>
	<path fill-rule="evenodd" clip-rule="evenodd" fill="#F0EFEF" d="M158.354,393.733c-0.483-0.162-0.937-0.45-1.252-0.793
		c0.449,0.02,0.925,0.178,1.445,0.406c-0.591-2.12-2.67-1.257-3.396-1.216C155.349,393.595,157.53,394.417,158.354,393.733"/>
	<path fill-rule="evenodd" clip-rule="evenodd" fill="#F0EFEF" d="M159.71,397.86c-0.498-0.25-0.945-0.63-1.238-1.049
		c0.48,0.092,0.97,0.337,1.497,0.663c-0.347-2.369-2.695-1.771-3.481-1.841C156.502,397.238,158.732,398.464,159.71,397.86"/>
	<path fill-rule="evenodd" clip-rule="evenodd" fill="#F0EFEF" d="M160.685,402.74c-0.521-0.325-0.976-0.787-1.257-1.274
		c0.516,0.15,1.028,0.469,1.575,0.88c-0.167-2.623-2.785-2.214-3.638-2.373C157.237,401.727,159.564,403.298,160.685,402.74"/>
	<path fill-rule="evenodd" clip-rule="evenodd" fill="#F0EFEF" d="M160.577,407.574c-0.471-0.486-0.839-1.097-1.02-1.687
		c0.507,0.3,0.97,0.777,1.447,1.36c0.447-2.804-2.403-3.097-3.262-3.499C157.193,405.558,159.267,407.852,160.577,407.574"/>
	<path fill-rule="evenodd" clip-rule="evenodd" fill="#F0EFEF" d="M159.107,412.35c-0.295-0.652-0.449-1.385-0.429-2.026
		c0.391,0.486,0.682,1.126,0.951,1.875c1.361-2.542-1.301-3.924-1.999-4.645C156.498,409.093,157.746,412.114,159.107,412.35"/>
	<path fill-rule="evenodd" clip-rule="evenodd" fill="#F0EFEF" d="M157.251,418.379c0.725-0.228,1.406-0.644,1.884-1.146
		c-0.669,0.017-1.382,0.24-2.161,0.564c0.93-3.14,4.004-1.799,5.087-1.717C161.729,418.256,158.461,419.419,157.251,418.379"/>
	<path fill-rule="evenodd" clip-rule="evenodd" fill="#F0EFEF" d="M155.977,416.57c-0.054-0.754,0.059-1.529,0.307-2.141
		c0.206,0.633,0.26,1.374,0.253,2.211c2.227-1.899,0.139-4.342-0.28-5.33C154.609,412.333,154.742,415.777,155.977,416.57"/>
	<path fill-rule="evenodd" clip-rule="evenodd" fill="#F0EFEF" d="M153.372,422.785c0.822-0.078,1.636-0.369,2.248-0.799
		c-0.722-0.135-1.531-0.06-2.432,0.11c1.616-3.156,4.652-1.012,5.797-0.676C158.202,423.68,154.465,424.18,153.372,422.785"/>
	<path fill-rule="evenodd" clip-rule="evenodd" fill="#F0EFEF" d="M152.368,421.068c0.106-0.811,0.392-1.601,0.787-2.185
		c0.08,0.72-0.022,1.517-0.21,2.398c2.761-1.446,1.084-4.551,0.854-5.699C151.841,416.249,151.235,419.919,152.368,421.068"/>
	<path fill-rule="evenodd" clip-rule="evenodd" fill="#F0EFEF" d="M148.375,426.154c0.869,0.063,1.759-0.098,2.461-0.438
		c-0.73-0.268-1.585-0.33-2.548-0.313c2.159-3.002,4.996-0.238,6.138,0.313C153.269,427.932,149.304,427.797,148.375,426.154"/>
	<path fill-rule="evenodd" clip-rule="evenodd" fill="#F0EFEF" d="M147.206,424.045c0.353-0.795,0.883-1.508,1.465-1.971
		c-0.134,0.77-0.479,1.551-0.937,2.393c3.272-0.521,2.481-4.299,2.59-5.561C148.11,418.907,146.387,422.469,147.206,424.045"/>
	<path fill-rule="evenodd" clip-rule="evenodd" fill="#F0EFEF" d="M142.264,428.098c0.84,0.246,1.742,0.277,2.493,0.092
		c-0.669-0.416-1.494-0.658-2.442-0.846c2.664-2.486,4.942,0.826,5.962,1.605C146.738,430.877,142.874,429.904,142.264,428.098"/>
	<path fill-rule="evenodd" clip-rule="evenodd" fill="#F0EFEF" d="M141.501,425.783c0.49-0.705,1.14-1.291,1.795-1.623
		c-0.271,0.727-0.752,1.42-1.354,2.148c3.304,0.18,3.216-3.691,3.552-4.904C143.323,420.936,140.984,424.064,141.501,425.783"/>
	<polygon fill-rule="evenodd" clip-rule="evenodd" fill="#F0EFEF" points="137.631,375.64 138.454,378.186 141.129,378.181 
		138.961,379.75 139.794,382.292 137.631,380.716 135.47,382.292 136.302,379.75 134.134,378.181 136.81,378.186 	"/>
	<path fill-rule="evenodd" clip-rule="evenodd" fill="#F0EFEF" d="M137.885,386.079c9.465,0,17.137,7.672,17.137,17.137
		s-7.672,17.138-17.137,17.138s-17.138-7.673-17.138-17.138S128.42,386.079,137.885,386.079"/>
	<rect x="93.757" y="416.032" fill-rule="evenodd" clip-rule="evenodd" fill="#F0EFEF" width="87.749" height="20.898"/>
	<path fill-rule="evenodd" clip-rule="evenodd" fill="#2A3A64" d="M145.969,412.104c-3.338,0.407-6.677,1.121-7.986,2.308
		c1.811-1.005,5.394-1.533,8.656-1.642c0,0,1.45-4.291,4.352-12.874c-2.408,0.234-5.038,1.157-7.891,2.77
		c2.43-0.847,4.581-1.359,6.457-1.539C147.165,408.445,145.969,412.104,145.969,412.104"/>
	<path fill-rule="evenodd" clip-rule="evenodd" fill="#2A3A64" d="M147.348,412.965c-2.849,0.315-6.361,0.262-8.237,1.373
		c1.85-0.755,5.641-0.725,8.889-0.769c0,0,1.566-3.678,4.698-11.034c-0.793,0.039-1.612,0.141-2.458,0.307l-0.283,0.81
		c0.438-0.046,0.863-0.079,1.274-0.099C148.643,409.828,147.348,412.965,147.348,412.965"/>
	<path fill-rule="evenodd" clip-rule="evenodd" fill="#2A3A64" d="M148.308,414.197c-1.805-0.224-5.137-0.764-8.244,0.189
		c2.795-0.534,6.288,0.151,8.852,0.465c0,0,1.817-3.542,5.454-10.626c-0.684-0.022-1.39,0.002-2.118,0.072l-0.357,0.816
		c0.322-0.004,0.636,0,0.941,0.01C149.816,411.172,148.308,414.197,148.308,414.197"/>
	<path fill-rule="evenodd" clip-rule="evenodd" fill="#2A3A64" d="M130.064,412.104c3.338,0.407,6.677,1.121,7.986,2.308
		c-1.811-1.005-5.394-1.533-8.655-1.642c0,0-1.451-4.291-4.352-12.874c2.408,0.234,5.039,1.157,7.891,2.77
		c-2.429-0.847-4.582-1.359-6.456-1.539C128.869,408.445,130.064,412.104,130.064,412.104"/>
	<path fill-rule="evenodd" clip-rule="evenodd" fill="#2A3A64" d="M128.686,412.965c2.849,0.315,6.362,0.262,8.237,1.373
		c-1.849-0.755-5.641-0.725-8.889-0.769c0,0-1.566-3.678-4.698-11.034c0.793,0.039,1.613,0.141,2.458,0.307l0.283,0.81
		c-0.438-0.046-0.863-0.079-1.274-0.099C127.392,409.828,128.686,412.965,128.686,412.965"/>
	<path fill-rule="evenodd" clip-rule="evenodd" fill="#2A3A64" d="M127.726,414.197c1.805-0.224,5.137-0.764,8.245,0.189
		c-2.795-0.534-6.288,0.151-8.852,0.465c0,0-1.818-3.542-5.455-10.626c0.684-0.022,1.39,0.002,2.118,0.072l0.357,0.816
		c-0.322-0.004-0.636,0-0.941,0.01C126.217,411.172,127.726,414.197,127.726,414.197"/>
	<rect x="95.926" y="418.2" fill-rule="evenodd" clip-rule="evenodd" fill="#333366" width="83.412" height="16.562"/>
	<rect x="118.169" y="447.193" fill-rule="evenodd" clip-rule="evenodd" fill="#F0EFEF" width="38.925" height="0.645"/>
	<g>
		<path fill-rule="evenodd" clip-rule="evenodd" fill="#2A3A64" d="M136.103,400.85l-2.225-1.61l-1.471,0.003l2.677,1.937
			l-1.864,5.698l1.199-0.875C134.978,404.268,135.539,402.575,136.103,400.85L136.103,400.85z M135.398,405.29l0.449-1.398
			l2.218-1.618l1.915,1.397l-0.003,0.005l2.486,1.842l0.444,1.359l-4.843-3.533L135.398,405.29L135.398,405.29z M142.079,404.348
			l-1.035-3.167l4.856-3.514l-1.483,0.003c-1.474,1.086-2.909,2.108-4.392,3.181l0.854,2.608L142.079,404.348L142.079,404.348z
			 M143.212,397.671l-1.176,0.867l-2.76,0.005l-1.212-3.755l-0.002,0.005l-0.452-1.416l0.454-1.404l1.841,5.705L143.212,397.671
			L143.212,397.671z M137.234,394.543l-1.012,3.134l-5.995-0.012l1.198,0.867c1.824-0.004,3.608,0.008,5.426,0.011l0.834-2.584
			L137.234,394.543z"/>
	</g>
	<g>
		<path fill="#FFFFFF" d="M100.62,428.176c0.097,0.85,0.373,1.492,0.827,1.932c0.454,0.438,1.017,0.658,1.69,0.658
			c0.497,0,0.89-0.137,1.177-0.41s0.432-0.635,0.432-1.082c0-0.684-0.464-1.205-1.39-1.566l-1.434-0.6
			c-1.112-0.459-1.668-1.213-1.668-2.268c0-0.469,0.112-0.896,0.336-1.287c0.225-0.391,0.561-0.703,1.01-0.936
			c0.448-0.234,0.995-0.352,1.638-0.352c0.322,0,0.595,0.023,0.819,0.072s0.449,0.113,0.673,0.191
			c0.224,0.078,0.385,0.131,0.482,0.16c0.166,0.059,0.312,0.088,0.439,0.088c0.166,0,0.302-0.02,0.41-0.059
			c-0.029,0.234-0.044,0.605-0.044,1.111c0,0.283,0.005,0.488,0.015,0.615s0.034,0.244,0.073,0.352h-0.498
			c0-0.605-0.208-1.096-0.622-1.471c-0.415-0.375-0.919-0.564-1.514-0.564c-0.468,0-0.854,0.123-1.156,0.367
			c-0.303,0.244-0.454,0.561-0.454,0.951c0,0.273,0.1,0.52,0.3,0.738c0.2,0.219,0.52,0.416,0.958,0.592l1.243,0.527
			c0.761,0.332,1.304,0.686,1.631,1.061c0.327,0.375,0.49,0.871,0.49,1.484c0,0.527-0.122,1.002-0.366,1.428
			c-0.244,0.424-0.605,0.76-1.083,1.008c-0.478,0.25-1.058,0.375-1.741,0.375c-0.429,0-0.893-0.064-1.39-0.191
			c-0.556-0.146-0.937-0.219-1.141-0.219c-0.088,0-0.193,0.006-0.315,0.021c-0.122,0.014-0.202,0.031-0.241,0.051
			c0.039-0.205,0.059-0.58,0.059-1.125c0-0.391-0.01-0.752-0.029-1.084c-0.02-0.33-0.049-0.506-0.088-0.527L100.62,428.176z"/>
		<path fill="#FFFFFF" d="M116.099,430.604v0.543h-4.389v-0.543l0.673,0.031c0.292,0.027,0.439-0.09,0.439-0.352
			c0-0.166-0.049-0.355-0.146-0.57l-0.541-1.289h-3.219l-0.498,1.199c-0.137,0.305-0.205,0.547-0.205,0.732
			c0,0.205,0.107,0.303,0.322,0.293l0.658-0.045v0.543h-2.648v-0.543l0.424,0.031h0.059c0.195,0,0.356-0.094,0.482-0.279
			c0.146-0.215,0.293-0.496,0.439-0.848l3.013-7.242h0.717l3.043,7.271c0.136,0.35,0.278,0.629,0.424,0.834
			c0.136,0.174,0.307,0.264,0.512,0.264h0.073L116.099,430.604z M109.12,427.912h2.809l-1.419-3.365L109.12,427.912z"/>
		<path fill="#FFFFFF" d="M116.376,430.604l0.512,0.031h0.029c0.166,0,0.249-0.109,0.249-0.322v-7.082
			c0-0.088-0.024-0.162-0.073-0.227c-0.049-0.063-0.117-0.09-0.205-0.08l-0.512,0.029v-0.541h3.613v0.541l-0.512-0.029h-0.03
			c-0.078,0-0.141,0.029-0.19,0.088s-0.073,0.131-0.073,0.219v7.082c0,0.232,0.098,0.342,0.293,0.322l0.512-0.031v0.543h-3.613
			V430.604z"/>
		<path fill="#FFFFFF" d="M129.967,422.412v0.438l-0.571-0.027h-0.029c-0.166,0-0.249,0.102-0.249,0.307v8.104h-0.877l-5.721-7.768
			v6.963c0,0.215,0.093,0.322,0.278,0.322l0.717-0.029v0.426h-2.458v-0.426l0.571,0.029c0.195,0,0.292-0.107,0.292-0.322v-7.299
			c0-0.088-0.027-0.164-0.081-0.227c-0.054-0.064-0.125-0.09-0.212-0.08l-0.571,0.027v-0.438h3.014l4.448,6.057v-5.355
			c0-0.193-0.083-0.291-0.249-0.291h-0.043l-0.717,0.027v-0.438H129.967z"/>
		<path fill="#FFFFFF" d="M130.684,422.367c0.175,0.02,0.41,0.029,0.702,0.029h6.13c0.361,0,0.59-0.01,0.688-0.029v2.283h-0.483
			c0-0.596-0.139-1.033-0.417-1.316c-0.278-0.283-0.738-0.426-1.382-0.426h-0.292c-0.098,0-0.156,0.055-0.176,0.162v7.242
			c0,0.213,0.098,0.322,0.293,0.322l0.775-0.031v0.543h-4.155v-0.543l0.79,0.031c0.087,0,0.156-0.037,0.205-0.111
			c0.049-0.072,0.073-0.158,0.073-0.256v-7.184c0-0.117-0.059-0.176-0.176-0.176h-0.263c-0.644,0-1.107,0.143-1.39,0.426
			c-0.283,0.283-0.424,0.721-0.424,1.316h-0.498V422.367z"/>
		<path fill="#FFFFFF" d="M142.489,428.176c0.098,0.85,0.374,1.492,0.827,1.932c0.453,0.438,1.017,0.658,1.689,0.658
			c0.498,0,0.891-0.137,1.178-0.41c0.288-0.273,0.432-0.635,0.432-1.082c0-0.684-0.463-1.205-1.39-1.566l-1.434-0.6
			c-1.112-0.459-1.668-1.213-1.668-2.268c0-0.469,0.112-0.896,0.337-1.287c0.224-0.391,0.561-0.703,1.009-0.936
			c0.448-0.234,0.995-0.352,1.639-0.352c0.322,0,0.595,0.023,0.819,0.072s0.448,0.113,0.673,0.191s0.386,0.131,0.483,0.16
			c0.165,0.059,0.312,0.088,0.438,0.088c0.166,0,0.302-0.02,0.409-0.059c-0.028,0.234-0.043,0.605-0.043,1.111
			c0,0.283,0.004,0.488,0.015,0.615c0.009,0.127,0.033,0.244,0.073,0.352h-0.498c0-0.605-0.207-1.096-0.622-1.471
			c-0.414-0.375-0.919-0.564-1.514-0.564c-0.469,0-0.854,0.123-1.155,0.367c-0.303,0.244-0.454,0.561-0.454,0.951
			c0,0.273,0.1,0.52,0.3,0.738s0.52,0.416,0.958,0.592l1.244,0.527c0.761,0.332,1.304,0.686,1.631,1.061s0.49,0.871,0.49,1.484
			c0,0.527-0.122,1.002-0.366,1.428c-0.243,0.424-0.604,0.76-1.082,1.008c-0.479,0.25-1.059,0.375-1.741,0.375
			c-0.429,0-0.893-0.064-1.39-0.191c-0.557-0.146-0.937-0.219-1.142-0.219c-0.088,0-0.192,0.006-0.314,0.021
			c-0.122,0.014-0.202,0.031-0.241,0.051c0.039-0.205,0.059-0.58,0.059-1.125c0-0.391-0.01-0.752-0.029-1.084
			c-0.02-0.33-0.049-0.506-0.088-0.527L142.489,428.176z"/>
		<path fill="#FFFFFF" d="M148.927,422.367c0.176,0.02,0.41,0.029,0.702,0.029h6.13c0.361,0,0.59-0.01,0.688-0.029v2.283h-0.483
			c0-0.596-0.139-1.033-0.417-1.316c-0.277-0.283-0.738-0.426-1.383-0.426h-0.292c-0.098,0-0.156,0.055-0.176,0.162v7.242
			c0,0.213,0.098,0.322,0.293,0.322l0.775-0.031v0.543h-4.155v-0.543l0.79,0.031c0.088,0,0.156-0.037,0.205-0.111
			c0.049-0.072,0.073-0.158,0.073-0.256v-7.184c0-0.117-0.059-0.176-0.176-0.176h-0.264c-0.644,0-1.106,0.143-1.39,0.426
			s-0.424,0.721-0.424,1.316h-0.498V422.367z"/>
		<path fill="#FFFFFF" d="M165.107,430.604v0.543h-4.389v-0.543l0.673,0.031c0.292,0.027,0.438-0.09,0.438-0.352
			c0-0.166-0.049-0.355-0.146-0.57l-0.541-1.289h-3.219l-0.497,1.199c-0.137,0.305-0.205,0.547-0.205,0.732
			c0,0.205,0.107,0.303,0.322,0.293l0.658-0.045v0.543h-2.648v-0.543l0.425,0.031h0.059c0.194,0,0.355-0.094,0.482-0.279
			c0.146-0.215,0.293-0.496,0.439-0.848l3.013-7.242h0.717l3.044,7.271c0.136,0.35,0.277,0.629,0.424,0.834
			c0.137,0.174,0.308,0.264,0.512,0.264h0.073L165.107,430.604z M158.129,427.912h2.809l-1.419-3.365L158.129,427.912z"/>
		<path fill="#FFFFFF" d="M165.385,430.604l0.513,0.031h0.029c0.165,0,0.249-0.109,0.249-0.322v-7.082
			c0-0.088-0.027-0.162-0.081-0.227c-0.054-0.063-0.134-0.09-0.241-0.08l-0.469,0.029v-0.541h3.789c1.054,0,1.831,0.178,2.334,0.533
			c0.502,0.357,0.754,0.91,0.754,1.66c0,0.596-0.188,1.094-0.563,1.492c-0.376,0.4-0.896,0.67-1.559,0.805
			c0.352,0,0.707,0.098,1.068,0.293c0.36,0.195,0.66,0.48,0.899,0.855c0.239,0.377,0.358,0.813,0.358,1.311
			c0,0.273,0.042,0.563,0.125,0.869c0.082,0.309,0.183,0.477,0.3,0.506c0.059,0.02,0.121,0.029,0.189,0.029
			c0.088,0,0.166-0.02,0.234-0.059v0.439h-2.589c-0.117-0.244-0.186-0.566-0.205-0.967c-0.02-0.252-0.029-0.439-0.029-0.557v-0.482
			c0-0.662-0.186-1.154-0.556-1.477c-0.371-0.322-0.819-0.482-1.347-0.482h-0.395v3.131c0,0.213,0.098,0.322,0.293,0.322
			l0.717-0.031v0.543h-3.819V430.604z M169.116,426.67c0.351,0,0.631-0.17,0.841-0.506s0.314-0.791,0.314-1.367
			c0-0.654-0.117-1.129-0.351-1.428c-0.234-0.297-0.596-0.445-1.083-0.445h-0.468c-0.117,0-0.176,0.049-0.176,0.146v3.6H169.116z"/>
	</g>
	<g>
		<g>
			<path fill="#FFFFFF" d="M122.536,440.545c0.233-0.398,0.55-0.709,0.951-0.934c0.4-0.223,0.839-0.334,1.315-0.334
				c0.545,0,1.03,0.133,1.455,0.4s0.733,0.648,0.925,1.139h-1.01c-0.133-0.27-0.317-0.471-0.553-0.604s-0.508-0.199-0.818-0.199
				c-0.339,0-0.641,0.076-0.907,0.229c-0.265,0.152-0.473,0.371-0.623,0.656s-0.225,0.615-0.225,0.994s0.075,0.711,0.225,0.994
				c0.15,0.285,0.357,0.506,0.623,0.66c0.266,0.154,0.568,0.232,0.907,0.232c0.31,0,0.582-0.066,0.818-0.199s0.42-0.334,0.553-0.604
				h1.01c-0.192,0.49-0.5,0.869-0.925,1.135s-0.91,0.398-1.455,0.398c-0.482,0-0.921-0.113-1.319-0.336
				c-0.398-0.225-0.713-0.535-0.947-0.932c-0.233-0.398-0.35-0.848-0.35-1.35S122.303,440.941,122.536,440.545z"/>
			<path fill="#FFFFFF" d="M129.183,444.182c-0.401-0.225-0.717-0.537-0.951-0.938s-0.35-0.85-0.35-1.352s0.117-0.951,0.35-1.348
				c0.233-0.398,0.55-0.709,0.951-0.934c0.4-0.223,0.839-0.334,1.315-0.334c0.481,0,0.922,0.111,1.323,0.334
				c0.4,0.225,0.716,0.535,0.947,0.934c0.231,0.396,0.346,0.846,0.346,1.348s-0.115,0.951-0.346,1.352s-0.546,0.713-0.947,0.938
				c-0.401,0.223-0.841,0.334-1.323,0.334C130.022,444.516,129.583,444.404,129.183,444.182z M131.405,443.555
				c0.265-0.154,0.473-0.377,0.623-0.664s0.225-0.619,0.225-0.998s-0.075-0.709-0.225-0.994s-0.357-0.504-0.623-0.656
				s-0.567-0.229-0.906-0.229s-0.641,0.076-0.906,0.229c-0.266,0.152-0.473,0.371-0.623,0.656s-0.225,0.615-0.225,0.994
				s0.075,0.711,0.225,0.998s0.357,0.51,0.623,0.664c0.265,0.154,0.567,0.232,0.906,0.232S131.14,443.709,131.405,443.555z"/>
			<path fill="#FFFFFF" d="M134.78,443.787h1.732v0.678h-2.572v-5.121h0.84V443.787z"/>
			<path fill="#FFFFFF" d="M138.052,443.787h1.731v0.678h-2.571v-5.121h0.84V443.787z"/>
			<path fill="#FFFFFF" d="M141.323,440.021v1.502h1.769v0.686h-1.769v1.57h1.99v0.686h-2.83v-5.129h2.83v0.686H141.323z"/>
			<path fill="#FFFFFF" d="M148.052,440.816c-0.133-0.256-0.317-0.447-0.553-0.578c-0.236-0.131-0.509-0.195-0.818-0.195
				c-0.339,0-0.641,0.076-0.906,0.229s-0.473,0.369-0.622,0.648c-0.15,0.279-0.226,0.604-0.226,0.973s0.075,0.693,0.226,0.977
				c0.149,0.283,0.356,0.5,0.622,0.652s0.567,0.229,0.906,0.229c0.457,0,0.828-0.129,1.113-0.383
				c0.285-0.256,0.459-0.602,0.523-1.039h-1.924v-0.672h2.822v0.656c-0.054,0.398-0.195,0.764-0.424,1.098
				c-0.228,0.334-0.525,0.602-0.892,0.801s-0.772,0.299-1.22,0.299c-0.481,0-0.921-0.113-1.318-0.336
				c-0.398-0.225-0.714-0.535-0.947-0.932c-0.233-0.398-0.35-0.848-0.35-1.35s0.116-0.951,0.35-1.348
				c0.233-0.398,0.55-0.709,0.95-0.934c0.4-0.223,0.839-0.334,1.315-0.334c0.546,0,1.03,0.133,1.456,0.4
				c0.425,0.268,0.732,0.648,0.925,1.139H148.052z"/>
			<path fill="#FFFFFF" d="M150.882,440.021v1.502h1.769v0.686h-1.769v1.57h1.989v0.686h-2.83v-5.129h2.83v0.686H150.882z"/>
		</g>
	</g>
	<g>
		<g>
			<path fill="#FFFFFF" d="M132.012,453.385c0.325-0.281,0.581-0.512,0.769-0.693c0.188-0.18,0.344-0.369,0.469-0.564
				c0.125-0.197,0.188-0.393,0.188-0.59c0-0.201-0.048-0.361-0.145-0.477c-0.096-0.113-0.248-0.172-0.454-0.172
				c-0.2,0-0.354,0.063-0.464,0.189s-0.168,0.297-0.175,0.512h-0.558c0.01-0.387,0.126-0.682,0.347-0.887
				c0.222-0.205,0.503-0.307,0.845-0.307c0.369,0,0.657,0.102,0.865,0.305s0.312,0.473,0.312,0.813c0,0.242-0.062,0.477-0.185,0.701
				s-0.271,0.426-0.441,0.604s-0.388,0.383-0.652,0.617l-0.229,0.203h1.608v0.48h-2.465v-0.42L132.012,453.385z"/>
			<path fill="#FFFFFF" d="M134.916,450.902c0.198-0.33,0.539-0.496,1.022-0.496c0.484,0,0.824,0.166,1.022,0.496
				c0.198,0.328,0.297,0.787,0.297,1.371c0,0.592-0.099,1.055-0.297,1.387c-0.198,0.334-0.538,0.5-1.022,0.5
				c-0.483,0-0.824-0.166-1.022-0.5c-0.198-0.332-0.297-0.795-0.297-1.387C134.619,451.689,134.718,451.23,134.916,450.902z
				 M136.636,451.578c-0.036-0.189-0.108-0.344-0.216-0.463c-0.108-0.121-0.269-0.18-0.482-0.18s-0.374,0.059-0.482,0.18
				c-0.108,0.119-0.18,0.273-0.216,0.463c-0.035,0.189-0.053,0.422-0.053,0.695c0,0.283,0.017,0.523,0.051,0.715
				c0.034,0.193,0.106,0.35,0.216,0.467c0.11,0.119,0.271,0.178,0.484,0.178s0.375-0.059,0.484-0.178
				c0.11-0.117,0.182-0.273,0.216-0.467c0.034-0.191,0.051-0.432,0.051-0.715C136.689,452,136.671,451.768,136.636,451.578z"/>
			<path fill="#FFFFFF" d="M138.19,453.385c0.325-0.281,0.581-0.512,0.769-0.693c0.188-0.18,0.344-0.369,0.469-0.564
				c0.125-0.197,0.188-0.393,0.188-0.59c0-0.201-0.048-0.361-0.145-0.477c-0.097-0.113-0.248-0.172-0.454-0.172
				c-0.199,0-0.354,0.063-0.464,0.189s-0.168,0.297-0.175,0.512h-0.558c0.01-0.387,0.126-0.682,0.347-0.887
				c0.222-0.205,0.503-0.307,0.845-0.307c0.368,0,0.657,0.102,0.865,0.305s0.312,0.473,0.312,0.813c0,0.242-0.062,0.477-0.185,0.701
				c-0.124,0.225-0.271,0.426-0.441,0.604s-0.389,0.383-0.652,0.617l-0.229,0.203h1.608v0.48h-2.465v-0.42L138.19,453.385z"/>
			<path fill="#FFFFFF" d="M141.117,453.385c0.324-0.281,0.58-0.512,0.769-0.693c0.188-0.18,0.344-0.369,0.469-0.564
				c0.125-0.197,0.188-0.393,0.188-0.59c0-0.201-0.048-0.361-0.145-0.477c-0.096-0.113-0.247-0.172-0.454-0.172
				c-0.199,0-0.354,0.063-0.464,0.189c-0.109,0.127-0.168,0.297-0.175,0.512h-0.558c0.01-0.387,0.126-0.682,0.347-0.887
				c0.222-0.205,0.503-0.307,0.845-0.307c0.369,0,0.657,0.102,0.865,0.305s0.312,0.473,0.312,0.813c0,0.242-0.062,0.477-0.185,0.701
				c-0.124,0.225-0.271,0.426-0.441,0.604s-0.389,0.383-0.652,0.617l-0.229,0.203h1.608v0.48h-2.465v-0.42L141.117,453.385z"/>
		</g>
	</g>
</g>
<g>
	<g>
		<path fill="#FFFFFF" d="M212.979,390.001c1.811,0,2.323,0.157,2.323,0.551c0,0.394-0.669,1.103-0.787,2.166
			c-0.079,1.496-0.158,3.149-0.158,4.645c0,8.268,3.386,13.779,7.716,16.495c-1.103,1.063-2.559,2.795-3.543,4.212
			c-3.543-2.401-5.787-6.968-6.614-10.196c-0.748,3.307-3.583,8.622-7.007,11.338c-0.788-1.063-2.48-2.755-3.779-3.74
			c4.921-3.661,8.7-10.157,8.503-25.471H212.979z M227.23,388.072c2.166,0,2.677,0.197,2.677,0.708c0,0.473-0.394,1.221-0.394,2.323
			v32.872h-5.394v-18.621h-4.803v-4.803h4.803v-12.479H227.23z M235.104,387.717c2.047,0,2.559,0.158,2.559,0.591
			s-0.472,1.102-0.472,2.125v34.172h-5.59v-36.888H235.104z"/>
		<path fill="#FFFFFF" d="M262.944,398.622c0,5.315-3.189,10-10,10c-7.047,0-10.275-4.685-10.275-10c0-5.314,3.228-9.96,10.275-9.96
			C259.755,388.662,262.944,393.308,262.944,398.622z M249.323,411.85c2.244,0,2.795,0.197,2.795,0.669
			c0,0.433-0.472,1.063-0.472,2.008v4.331h24.093v4.803h-29.762V411.85H249.323z M248.378,398.622c0,3.149,1.417,5.354,4.566,5.354
			c2.953,0,4.37-2.205,4.37-5.354c0-3.07-1.417-5.275-4.37-5.275C249.795,393.347,248.378,395.552,248.378,398.622z
			 M273.062,387.717c2.205,0,2.756,0.158,2.756,0.551s-0.473,1.023-0.473,2.008v24.644h-5.708v-27.203H273.062z"/>
		<path fill="#FFFFFF" d="M280.863,415.354h36.927v4.803h-36.927V415.354z M284.879,390.198h29.054v4.763h-23.345v3.11h23.345v4.646
			h-23.345v3.543h23.7v4.724h-29.408V390.198z"/>
		<path fill="#FFFFFF" d="M320.436,415.354h36.927v4.803h-36.927V415.354z M339.686,389.213c1.732,0,2.52,0.276,2.52,0.906
			c0,0.314-0.157,0.708-0.512,1.22c0,2.638,5.787,10.118,15.039,11.535c-1.142,1.142-2.599,3.071-3.701,4.646
			c-5.983-1.417-12.479-6.102-14.369-10.157c-1.496,4.173-8.109,8.976-13.503,10.629c-1.103-1.457-2.638-3.11-4.134-4.448
			c7.953-1.575,14.566-8.464,14.566-14.33H339.686z"/>
		<path fill="#FFFFFF" d="M362.803,390.473h19.645v4.803h-13.937v5.708h13.503v4.764h-13.503v6.614h1.378
			c2.441,0,9.016-0.197,13.937-1.142c0.314,1.378,0.708,3.347,0.905,4.725c-5.669,1.063-12.913,1.377-18.148,1.377h-3.779V390.473z
			 M389.849,387.717c2.52,0,3.149,0.158,3.149,0.63c0,0.473-0.67,1.299-0.67,2.599v12.913h4.921v5h-4.921v15.748h-5.669v-36.888
			H389.849z"/>
		<path fill="#FFFFFF" d="M402.611,389.253h18.975c0,7.283-3.7,16.495-17.833,19.369c-0.748-1.417-2.087-3.228-3.465-4.527
			c4.409,0,9.448-2.047,11.89-4.448c-2.244,0.157-4.409,0.157-6.574,0.236c-1.26,0.04-1.891,0.394-2.244,0.394
			c-0.315,0-0.473-0.197-0.709-0.984l-0.551-3.503c2.322,0,7.834-0.04,12.912-0.158c0.354-0.708,0.591-1.535,0.63-2.047h-13.03
			V389.253z M404.422,408.897H431.9v9.369h-21.81v2.047h22.597v3.858h-28.266v-9.685h21.81v-1.732h-21.81V408.897z M428.869,387.717
			c2.913,0,3.622,0.158,3.622,0.709c0,0.472-0.591,1.26-0.591,2.52v5.472h4.921v5H431.9v5.314h-5.669v-19.015H428.869z"/>
		<path fill="#FFFFFF" d="M441.395,390.591h18.109v15.354h-12.322v6.535h1.3c3.582,0,9.724-0.197,14.999-1.299
			c0.275,1.417,0.512,3.071,0.748,4.606c-6.221,1.142-12.598,1.496-17.716,1.496h-5.039v-16.141h12.204v-5.708h-12.283V390.591z
			 M470.921,387.717c2.244,0,2.756,0.118,2.756,0.512c0,0.354-0.473,1.023-0.473,2.086v34.29h-5.708v-36.888H470.921z"/>
		<path fill="#FFFFFF" d="M481.203,390.906h21.731v4.764h-8.031v1.417c0,7.086,3.031,14.92,8.897,17.637
			c-1.457,1.063-2.913,2.677-3.938,4.134c-3.818-2.599-7.086-6.89-8.03-12.283c-1.3,5.354-4.685,9.881-8.74,12.794
			c-1.181-1.338-2.873-3.031-4.409-4.055c6.378-3.11,10.473-11.968,10.473-18.188v-1.457h-7.953V390.906z M510.493,387.717
			c2.244,0,2.756,0.118,2.756,0.512c0,0.354-0.473,1.023-0.473,2.086v34.29h-5.708v-36.888H510.493z"/>
	</g>
	<g>
		<path fill="#FFFFFF" d="M204.908,449.081c0.858,0.527,2.112,0.968,3.433,0.968c1.958,0,3.103-1.034,3.103-2.53
			c0-1.387-0.792-2.179-2.794-2.948c-2.42-0.858-3.917-2.112-3.917-4.203c0-2.31,1.915-4.026,4.797-4.026
			c1.518,0,2.619,0.353,3.278,0.727l-0.528,1.562c-0.484-0.264-1.474-0.704-2.816-0.704c-2.024,0-2.794,1.211-2.794,2.223
			c0,1.386,0.902,2.068,2.948,2.86c2.509,0.968,3.785,2.179,3.785,4.356c0,2.289-1.694,4.269-5.193,4.269
			c-1.43,0-2.992-0.418-3.784-0.946L204.908,449.081z"/>
		<path fill="#FFFFFF" d="M222.002,451.413l-0.154-1.342h-0.066c-0.594,0.836-1.738,1.584-3.257,1.584
			c-2.156,0-3.256-1.519-3.256-3.059c0-2.574,2.289-3.982,6.403-3.961v-0.22c0-0.88-0.242-2.464-2.42-2.464
			c-0.99,0-2.024,0.308-2.772,0.792l-0.44-1.276c0.88-0.572,2.156-0.946,3.499-0.946c3.257,0,4.049,2.223,4.049,4.356v3.982
			c0,0.925,0.044,1.826,0.176,2.553H222.002z M221.716,445.979c-2.112-0.044-4.51,0.33-4.51,2.398c0,1.254,0.836,1.848,1.826,1.848
			c1.386,0,2.266-0.88,2.574-1.782c0.066-0.197,0.11-0.418,0.11-0.616V445.979z"/>
		<path fill="#FFFFFF" d="M228.954,437.771c0.022,0.66-0.462,1.188-1.232,1.188c-0.682,0-1.166-0.527-1.166-1.188
			c0-0.683,0.506-1.211,1.21-1.211C228.491,436.561,228.954,437.089,228.954,437.771z M226.797,451.413v-10.649h1.936v10.649
			H226.797z"/>
		<path fill="#FFFFFF" d="M232.033,443.646c0-1.1-0.022-2.002-0.088-2.882h1.716l0.11,1.76h0.044
			c0.528-1.012,1.76-2.002,3.521-2.002c1.474,0,3.762,0.88,3.762,4.532v6.359h-1.936v-6.139c0-1.717-0.638-3.146-2.464-3.146
			c-1.276,0-2.267,0.902-2.597,1.98c-0.088,0.241-0.132,0.571-0.132,0.901v6.403h-1.936V443.646z"/>
		<path fill="#FFFFFF" d="M246.575,437.705v3.059h2.772v1.474h-2.772v5.743c0,1.32,0.374,2.068,1.452,2.068
			c0.506,0,0.88-0.066,1.122-0.132l0.088,1.452c-0.374,0.154-0.968,0.264-1.716,0.264c-0.902,0-1.628-0.286-2.09-0.813
			c-0.55-0.572-0.748-1.519-0.748-2.772v-5.81h-1.65v-1.474h1.65v-2.553L246.575,437.705z"/>
		<path fill="#FFFFFF" d="M256.167,449.081c0.858,0.527,2.112,0.968,3.433,0.968c1.958,0,3.103-1.034,3.103-2.53
			c0-1.387-0.792-2.179-2.794-2.948c-2.42-0.858-3.917-2.112-3.917-4.203c0-2.31,1.915-4.026,4.797-4.026
			c1.518,0,2.619,0.353,3.278,0.727l-0.528,1.562c-0.484-0.264-1.474-0.704-2.816-0.704c-2.024,0-2.794,1.211-2.794,2.223
			c0,1.386,0.902,2.068,2.948,2.86c2.509,0.968,3.785,2.179,3.785,4.356c0,2.289-1.694,4.269-5.193,4.269
			c-1.43,0-2.992-0.418-3.784-0.946L256.167,449.081z"/>
		<path fill="#FFFFFF" d="M269.565,437.705v3.059h2.772v1.474h-2.772v5.743c0,1.32,0.374,2.068,1.452,2.068
			c0.506,0,0.88-0.066,1.123-0.132l0.088,1.452c-0.374,0.154-0.968,0.264-1.716,0.264c-0.902,0-1.628-0.286-2.09-0.813
			c-0.55-0.572-0.748-1.519-0.748-2.772v-5.81h-1.65v-1.474h1.65v-2.553L269.565,437.705z"/>
		<path fill="#FFFFFF" d="M280.5,451.413l-0.154-1.342h-0.066c-0.594,0.836-1.738,1.584-3.257,1.584
			c-2.156,0-3.256-1.519-3.256-3.059c0-2.574,2.289-3.982,6.403-3.961v-0.22c0-0.88-0.242-2.464-2.42-2.464
			c-0.99,0-2.024,0.308-2.772,0.792l-0.44-1.276c0.88-0.572,2.157-0.946,3.499-0.946c3.257,0,4.049,2.223,4.049,4.356v3.982
			c0,0.925,0.044,1.826,0.176,2.553H280.5z M280.214,445.979c-2.112-0.044-4.511,0.33-4.511,2.398c0,1.254,0.836,1.848,1.826,1.848
			c1.386,0,2.266-0.88,2.574-1.782c0.066-0.197,0.11-0.418,0.11-0.616V445.979z"/>
		<path fill="#FFFFFF" d="M285.295,444.086c0-1.254-0.022-2.332-0.088-3.322h1.694l0.066,2.09h0.088
			c0.484-1.43,1.65-2.332,2.948-2.332c0.22,0,0.374,0.022,0.55,0.066v1.826c-0.198-0.044-0.396-0.066-0.66-0.066
			c-1.364,0-2.333,1.034-2.597,2.486c-0.044,0.265-0.088,0.572-0.088,0.902v5.677h-1.914V444.086z"/>
		<path fill="#FFFFFF" d="M307.758,450.929c-0.704,0.353-2.112,0.704-3.916,0.704c-4.182,0-7.328-2.64-7.328-7.503
			c0-4.643,3.146-7.789,7.746-7.789c1.848,0,3.014,0.396,3.52,0.66l-0.461,1.563c-0.727-0.353-1.761-0.616-2.993-0.616
			c-3.476,0-5.787,2.223-5.787,6.117c0,3.63,2.09,5.963,5.699,5.963c1.166,0,2.354-0.242,3.124-0.616L307.758,450.929z"/>
		<path fill="#FFFFFF" d="M319.571,446c0,3.938-2.728,5.655-5.303,5.655c-2.882,0-5.104-2.112-5.104-5.479
			c0-3.564,2.332-5.655,5.281-5.655C317.504,440.521,319.571,442.744,319.571,446z M311.123,446.11c0,2.332,1.342,4.093,3.234,4.093
			c1.848,0,3.234-1.738,3.234-4.137c0-1.805-0.902-4.093-3.19-4.093S311.123,444.086,311.123,446.11z"/>
		<path fill="#FFFFFF" d="M322.101,435.791h1.937v15.622h-1.937V435.791z"/>
		<path fill="#FFFFFF" d="M327.38,435.791h1.937v15.622h-1.937V435.791z"/>
		<path fill="#FFFFFF" d="M333.738,446.44c0.044,2.618,1.716,3.696,3.652,3.696c1.386,0,2.223-0.242,2.948-0.55l0.33,1.386
			c-0.682,0.309-1.848,0.66-3.542,0.66c-3.279,0-5.237-2.156-5.237-5.368c0-3.213,1.893-5.743,4.995-5.743
			c3.477,0,4.4,3.059,4.4,5.017c0,0.396-0.044,0.704-0.066,0.902H333.738z M339.415,445.054c0.021-1.231-0.506-3.146-2.685-3.146
			c-1.958,0-2.816,1.805-2.971,3.146H339.415z"/>
		<path fill="#FFFFFF" d="M352.944,440.764c-0.044,0.77-0.088,1.628-0.088,2.927v6.183c0,2.442-0.483,3.938-1.518,4.862
			c-1.034,0.969-2.531,1.276-3.873,1.276c-1.276,0-2.685-0.308-3.542-0.88l0.483-1.475c0.704,0.44,1.805,0.836,3.125,0.836
			c1.979,0,3.433-1.034,3.433-3.718v-1.188h-0.045c-0.594,0.99-1.738,1.782-3.388,1.782c-2.641,0-4.533-2.244-4.533-5.192
			c0-3.609,2.354-5.655,4.797-5.655c1.849,0,2.86,0.968,3.322,1.849h0.044l0.088-1.606H352.944z M350.942,444.966
			c0-0.33-0.022-0.616-0.11-0.88c-0.352-1.122-1.298-2.046-2.706-2.046c-1.849,0-3.169,1.562-3.169,4.026
			c0,2.09,1.057,3.828,3.146,3.828c1.188,0,2.267-0.748,2.685-1.979c0.11-0.33,0.154-0.704,0.154-1.034V444.966z"/>
		<path fill="#FFFFFF" d="M357.233,446.44c0.044,2.618,1.716,3.696,3.652,3.696c1.386,0,2.223-0.242,2.948-0.55l0.33,1.386
			c-0.682,0.309-1.848,0.66-3.542,0.66c-3.279,0-5.237-2.156-5.237-5.368c0-3.213,1.893-5.743,4.995-5.743
			c3.477,0,4.4,3.059,4.4,5.017c0,0.396-0.044,0.704-0.066,0.902H357.233z M362.91,445.054c0.021-1.231-0.506-3.146-2.685-3.146
			c-1.958,0-2.816,1.805-2.971,3.146H362.91z"/>
		<path fill="#FFFFFF" d="M373.998,436.583v6.205h7.173v-6.205h1.937v14.83h-1.937v-6.953h-7.173v6.953h-1.915v-14.83H373.998z"/>
		<path fill="#FFFFFF" d="M395.36,448.509c0,1.1,0.021,2.068,0.088,2.904h-1.716l-0.11-1.738h-0.044
			c-0.506,0.858-1.628,1.98-3.521,1.98c-1.672,0-3.675-0.924-3.675-4.665v-6.227h1.937v5.896c0,2.024,0.616,3.389,2.376,3.389
			c1.299,0,2.2-0.902,2.553-1.76c0.11-0.286,0.176-0.639,0.176-0.99v-6.535h1.937V448.509z"/>
		<path fill="#FFFFFF" d="M398.659,443.646c0-1.1-0.022-2.002-0.088-2.882h1.694l0.088,1.716h0.065
			c0.595-1.012,1.585-1.958,3.345-1.958c1.452,0,2.553,0.88,3.015,2.135h0.044c0.33-0.595,0.748-1.057,1.188-1.387
			c0.638-0.484,1.342-0.748,2.354-0.748c1.408,0,3.499,0.924,3.499,4.621v6.271h-1.893v-6.029c0-2.046-0.748-3.278-2.311-3.278
			c-1.1,0-1.958,0.814-2.288,1.761c-0.088,0.264-0.154,0.616-0.154,0.968v6.579h-1.892v-6.381c0-1.694-0.748-2.927-2.223-2.927
			c-1.21,0-2.09,0.969-2.398,1.937c-0.109,0.286-0.154,0.616-0.154,0.946v6.425h-1.892V443.646z"/>
		<path fill="#FFFFFF" d="M422.991,451.413l-0.154-1.342h-0.065c-0.594,0.836-1.738,1.584-3.257,1.584
			c-2.156,0-3.256-1.519-3.256-3.059c0-2.574,2.288-3.982,6.402-3.961v-0.22c0-0.88-0.242-2.464-2.42-2.464
			c-0.99,0-2.024,0.308-2.772,0.792l-0.44-1.276c0.88-0.572,2.156-0.946,3.499-0.946c3.256,0,4.048,2.223,4.048,4.356v3.982
			c0,0.925,0.044,1.826,0.177,2.553H422.991z M422.705,445.979c-2.112-0.044-4.511,0.33-4.511,2.398
			c0,1.254,0.837,1.848,1.826,1.848c1.387,0,2.267-0.88,2.575-1.782c0.065-0.197,0.109-0.418,0.109-0.616V445.979z"/>
		<path fill="#FFFFFF" d="M427.787,443.646c0-1.1-0.022-2.002-0.088-2.882h1.716l0.11,1.76h0.044
			c0.528-1.012,1.76-2.002,3.521-2.002c1.474,0,3.763,0.88,3.763,4.532v6.359h-1.937v-6.139c0-1.717-0.639-3.146-2.465-3.146
			c-1.275,0-2.266,0.902-2.596,1.98c-0.088,0.241-0.132,0.571-0.132,0.901v6.403h-1.937V443.646z"/>
		<path fill="#FFFFFF" d="M444.639,449.081c0.858,0.527,2.112,0.968,3.433,0.968c1.958,0,3.103-1.034,3.103-2.53
			c0-1.387-0.792-2.179-2.795-2.948c-2.42-0.858-3.916-2.112-3.916-4.203c0-2.31,1.914-4.026,4.797-4.026
			c1.518,0,2.618,0.353,3.278,0.727l-0.528,1.562c-0.484-0.264-1.475-0.704-2.816-0.704c-2.024,0-2.795,1.211-2.795,2.223
			c0,1.386,0.902,2.068,2.949,2.86c2.508,0.968,3.784,2.179,3.784,4.356c0,2.289-1.694,4.269-5.192,4.269
			c-1.431,0-2.993-0.418-3.785-0.946L444.639,449.081z"/>
		<path fill="#FFFFFF" d="M463.493,451.017c-0.506,0.265-1.628,0.616-3.059,0.616c-3.212,0-5.303-2.178-5.303-5.435
			c0-3.278,2.244-5.654,5.721-5.654c1.145,0,2.156,0.285,2.685,0.55l-0.439,1.496c-0.463-0.264-1.188-0.506-2.245-0.506
			c-2.442,0-3.763,1.804-3.763,4.026c0,2.464,1.585,3.982,3.697,3.982c1.1,0,1.826-0.286,2.376-0.528L463.493,451.017z"/>
		<path fill="#FFFFFF" d="M468.003,437.771c0.021,0.66-0.462,1.188-1.232,1.188c-0.682,0-1.166-0.527-1.166-1.188
			c0-0.683,0.506-1.211,1.21-1.211C467.541,436.561,468.003,437.089,468.003,437.771z M465.847,451.413v-10.649h1.937v10.649
			H465.847z"/>
		<path fill="#FFFFFF" d="M472.16,446.44c0.044,2.618,1.716,3.696,3.652,3.696c1.386,0,2.223-0.242,2.948-0.55l0.33,1.386
			c-0.682,0.309-1.848,0.66-3.542,0.66c-3.279,0-5.237-2.156-5.237-5.368c0-3.213,1.893-5.743,4.995-5.743
			c3.477,0,4.4,3.059,4.4,5.017c0,0.396-0.044,0.704-0.066,0.902H472.16z M477.837,445.054c0.021-1.231-0.506-3.146-2.685-3.146
			c-1.958,0-2.816,1.805-2.971,3.146H477.837z"/>
		<path fill="#FFFFFF" d="M482.192,443.646c0-1.1-0.022-2.002-0.088-2.882h1.716l0.11,1.76h0.044
			c0.528-1.012,1.76-2.002,3.521-2.002c1.474,0,3.763,0.88,3.763,4.532v6.359h-1.937v-6.139c0-1.717-0.638-3.146-2.465-3.146
			c-1.275,0-2.266,0.902-2.596,1.98c-0.088,0.241-0.132,0.571-0.132,0.901v6.403h-1.937V443.646z"/>
		<path fill="#FFFFFF" d="M502.081,451.017c-0.506,0.265-1.628,0.616-3.059,0.616c-3.212,0-5.303-2.178-5.303-5.435
			c0-3.278,2.244-5.654,5.721-5.654c1.145,0,2.156,0.285,2.685,0.55l-0.439,1.496c-0.463-0.264-1.188-0.506-2.245-0.506
			c-2.442,0-3.763,1.804-3.763,4.026c0,2.464,1.585,3.982,3.697,3.982c1.1,0,1.826-0.286,2.376-0.528L502.081,451.017z"/>
		<path fill="#FFFFFF" d="M505.38,446.44c0.044,2.618,1.716,3.696,3.652,3.696c1.386,0,2.223-0.242,2.948-0.55l0.33,1.386
			c-0.682,0.309-1.848,0.66-3.542,0.66c-3.279,0-5.237-2.156-5.237-5.368c0-3.213,1.893-5.743,4.995-5.743
			c3.477,0,4.4,3.059,4.4,5.017c0,0.396-0.044,0.704-0.066,0.902H505.38z M511.057,445.054c0.021-1.231-0.506-3.146-2.685-3.146
			c-1.958,0-2.816,1.805-2.971,3.146H511.057z"/>
	</g>
</g>
</svg>
